<?xml version="1.0" encoding="utf-8"?>
<!-- Generator: Adobe Illustrator 26.5.0, SVG Export Plug-In . SVG Version: 6.00 Build 0)  -->
<svg version="1.1" id="Calque_1" xmlns="http://www.w3.org/2000/svg" xmlns:xlink="http://www.w3.org/1999/xlink" x="0px" y="0px"
	 viewBox="0 0 1656.5 1593.2" style="enable-background:new 0 0 1656.5 1593.2;" xml:space="preserve">
<style type="text/css">
	.st0{fill:#FFFFFF;}
	.st1{fill:#C79742;}
	.st2{fill:#FFFFFF;stroke:#000000;stroke-width:2;stroke-miterlimit:10;}
	.st3{fill:#FFBA00;}
	.st4{opacity:0.5;fill:#D7D7D7;}
</style>
<g id="Bg">
</g>
<g>
	<g>
		<ellipse transform="matrix(0.8481 -0.5299 0.5299 0.8481 -261.6446 624.6903)" cx="958.6" cy="768.6" rx="684.6" ry="585.9"/>
		<g>
			
				<ellipse transform="matrix(0.8481 -0.5299 0.5299 0.8481 -265.959 577.5002)" class="st0" cx="874.1" cy="752.6" rx="684.6" ry="585.9"/>
			<path d="M783.2,1369.2c-42.2,0-83.8-3.9-124.7-11.7c-83.5-15.9-159-47.1-224.3-92.7c-63.1-44.1-114.1-99.7-151.7-165.4
				c-38.2-66.7-60.6-140.4-66.6-219.1c-6.2-81.4,5.5-164.4,34.9-246.7c29.1-81.7,73.9-157.7,133-226.1
				c57.1-66,125.1-122.2,202.1-166.8c77.1-44.6,159.3-75.6,244.3-91.9c88.1-16.9,175.4-17.4,259.6-1.4
				c83.5,15.9,159,47.1,224.3,92.7c63.1,44.1,114.1,99.7,151.7,165.4c38.2,66.7,60.6,140.4,66.6,219.1
				c6.2,81.4-5.5,164.4-34.9,246.7l-1.2-0.4l1.2,0.4c-29.1,81.7-73.9,157.7-133,226.1c-57.1,66-125.1,122.2-202.1,166.8
				c-77.1,44.6-159.3,75.6-244.3,91.9C872.8,1364.9,827.7,1369.2,783.2,1369.2z M965.1,138.5c-44.4,0-89.3,4.3-134.4,13
				c-84.8,16.3-166.7,47.1-243.5,91.6c-76.8,44.5-144.6,100.4-201.5,166.2c-58.9,68.1-103.5,143.9-132.5,225.3
				c-29.2,82-40.9,164.6-34.8,245.6c6,78.2,28.3,151.6,66.3,218c37.4,65.4,88.2,120.7,151,164.6c65,45.4,140.1,76.4,223.2,92.3
				c83.8,16,170.8,15.5,258.6-1.4c84.8-16.3,166.7-47.1,243.5-91.6c76.8-44.5,144.6-100.4,201.5-166.2
				c58.9-68.1,103.5-143.9,132.5-225.3c29.2-82,40.9-164.6,34.8-245.6c-6-78.2-28.3-151.6-66.3-218c-37.4-65.4-88.2-120.7-151-164.6
				c-65-45.4-140.1-76.4-223.2-92.3C1048.6,142.4,1007,138.5,965.1,138.5z"/>
		</g>
		<g>
			
				<ellipse transform="matrix(0.8481 -0.5299 0.5299 0.8481 -265.959 577.5001)" class="st0" cx="874.1" cy="752.6" rx="632.9" ry="541.6"/>
			<path d="M790.1,1322.8c-39,0-77.5-3.6-115.3-10.8c-77.2-14.7-147-43.5-207.4-85.7c-58.3-40.7-105.5-92.2-140.3-153
				c-35.3-61.7-56.1-129.9-61.6-202.6c-5.8-75.2,5.1-152,32.3-228.1c26.9-75.5,68.3-145.8,123-209.1
				c52.8-61.1,115.7-112.9,186.9-154.2c71.2-41.3,147.3-69.9,225.9-85c81.5-15.6,162.2-16.1,240-1.3c77.2,14.7,147,43.5,207.4,85.7
				c58.3,40.7,105.5,92.2,140.3,153c35.3,61.7,56.1,129.9,61.6,202.6c5.8,75.2-5.1,152-32.3,228.1c-26.9,75.5-68.3,145.8-123,209.1
				c-52.8,61.1-115.7,112.9-186.9,154.2c-71.2,41.3-147.3,69.9-225.9,85C872.9,1318.7,831.2,1322.8,790.1,1322.8z M958.2,185
				c-41,0-82.5,4-124.2,12c-78.4,15-154.1,43.5-225.1,84.7c-71,41.1-133.6,92.8-186.2,153.7c-54.4,63-95.6,133-122.5,208.2
				c-27,75.8-37.8,152.1-32.1,227c5.5,72.3,26.1,140.1,61.3,201.5c34.6,60.4,81.5,111.6,139.5,152.1c60.1,42,129.5,70.7,206.3,85.3
				c77.5,14.7,157.9,14.3,239.1-1.3c78.4-15,154.1-43.5,225.1-84.7c71-41.1,133.6-92.8,186.2-153.7c54.4-63,95.6-133,122.5-208.2
				c27-75.8,37.8-152.1,32.1-227c-5.5-72.3-26.1-140.1-61.3-201.5c-34.6-60.4-81.5-111.6-139.5-152.1
				c-60.1-42-129.5-70.7-206.3-85.3C1035.4,188.6,997,185,958.2,185z"/>
		</g>
		<g>
			
				<ellipse transform="matrix(0.8481 -0.5299 0.5299 0.8481 -265.775 579.5122)" class="st0" cx="877.7" cy="753.2" rx="597" ry="510.9"/>
			<path d="M798.4,1291.2c-36.8,0-73.1-3.4-108.8-10.2c-72.9-13.9-138.7-41.1-195.6-80.9c-55-38.4-99.6-87-132.4-144.3
				c-33.3-58.2-52.9-122.5-58.1-191.1c-5.4-71,4.8-143.4,30.4-215.2c25.4-71.2,64.4-137.6,116-197.2
				c49.8-57.6,109.1-106.6,176.3-145.5c67.2-38.9,138.9-65.9,213.1-80.2c76.8-14.8,153-15.2,226.4-1.2
				c72.9,13.9,138.7,41.1,195.6,80.9c55,38.4,99.6,87,132.4,144.3c33.3,58.2,52.9,122.5,58.1,191.1c5.4,71-4.8,143.4-30.4,215.2
				c-25.4,71.2-64.4,137.6-116,197.2c-49.8,57.6-109.1,106.6-176.3,145.5c-67.2,38.9-138.9,65.9-213.1,80.2
				C876.6,1287.4,837.3,1291.2,798.4,1291.2z M957,217.9c-38.7,0-77.8,3.8-117.1,11.3c-73.9,14.2-145.4,41.1-212.3,79.9
				c-67,38.8-126.1,87.6-175.7,144.9c-51.3,59.4-90.2,125.5-115.5,196.4c-25.5,71.5-35.7,143.5-30.3,214.1
				c5.2,68.2,24.7,132.1,57.8,190c67,117.1,182.9,196.6,326.2,223.9c73.1,13.9,148.9,13.5,225.5-1.2
				c73.9-14.2,145.4-41.1,212.3-79.9c67-38.8,126.1-87.6,175.7-144.9c51.3-59.4,90.2-125.5,115.5-196.4
				c25.5-71.5,35.7-143.5,30.3-214.1c-5.2-68.2-24.7-132.1-57.8-190c-67-117.1-182.9-196.6-326.2-223.9
				C1029.8,221.3,993.6,217.9,957,217.9z"/>
		</g>
		<g>
			<path d="M947.4,369.8l-14.3-2.7l31.9-89.4c2.7-7.4,5.4-14.4,8.2-21c-1.7,1-3.5,2-5.5,3c-2,1-11,5.3-27,12.7l-4.3-11.3l43.4-19.1
				l12.4,2.4L947.4,369.8z"/>
			<path d="M1069.4,393l-84.9-16.2l4.4-12.3l45.9-26.7c14-8.2,23.4-14.2,28.3-17.9c4.8-3.7,8.8-7.5,12-11.3
				c3.1-3.8,5.5-8.1,7.2-12.8c2.4-6.7,2.2-12.4-0.6-17.1c-2.8-4.7-7.9-7.8-15.3-9.2c-5.4-1-10.7-1.1-16.2-0.3
				c-5.4,0.8-11.9,2.9-19.4,6.3l-4.3-11.2c15.3-7.3,30-9.7,44-7c12.1,2.3,20.6,7.1,25.3,14.5c4.7,7.3,5.3,16.1,1.7,26.3
				c-2.8,7.9-7.9,15.4-15.3,22.3c-7.4,6.9-19.5,15.1-36.3,24.6l-37.9,21.5l-0.2,0.7l66.5,12.6L1069.4,393z"/>
		</g>
		<g>
			<g>
				<g>
					
						<ellipse transform="matrix(0.8481 -0.5299 0.5299 0.8481 -54.3908 453.904)" class="st0" cx="764.4" cy="321.8" rx="38.4" ry="32.9"/>
					<path d="M759.2,357.7c-6.5,0-12.8-1.6-18.2-4.7c-7.4-4.4-12.5-11.3-14.3-19.6c-4-18.7,9.6-39,30.2-45.4
						c10.8-3.3,22-2.3,30.7,2.8c7.4,4.4,12.5,11.3,14.3,19.6c4,18.7-9.6,39-30.2,45.4C767.6,357,763.4,357.7,759.2,357.7z
						 M769.5,288.6c-3.9,0-7.8,0.6-11.7,1.8c-19.4,6-32.1,25-28.4,42.4c1.6,7.6,6.3,14,13,17.9c8.1,4.7,18.5,5.7,28.6,2.6
						c19.4-6,32.1-25,28.4-42.4c-1.6-7.6-6.3-14-13-17.9C781.4,290,775.6,288.6,769.5,288.6z"/>
				</g>
				<g>
					
						<ellipse transform="matrix(0.8481 -0.5299 0.5299 0.8481 -488.286 685.3315)" class="st0" cx="951" cy="1194.2" rx="38.4" ry="32.9"/>
					<path d="M945.9,1230.1c-6.5,0-12.8-1.6-18.2-4.7c-7.4-4.4-12.5-11.3-14.3-19.6c-4-18.7,9.6-39,30.2-45.4
						c10.8-3.3,22-2.3,30.7,2.8c7.4,4.4,12.5,11.3,14.3,19.6c4,18.7-9.6,39-30.2,45.4C954.2,1229.4,950,1230.1,945.9,1230.1z
						 M956.2,1161c-3.9,0-7.8,0.6-11.7,1.8c-19.4,6-32.1,25-28.4,42.4c1.6,7.6,6.3,14,13,17.9c8.1,4.7,18.5,5.7,28.6,2.6
						c19.4-6,32.1-25,28.4-42.4c-1.6-7.6-6.3-14-13-17.9C968.1,1162.4,962.2,1161,956.2,1161z"/>
				</g>
			</g>
			<g>
				<g>
					
						<ellipse transform="matrix(0.8481 -0.5299 0.5299 0.8481 -424.0979 335.5687)" class="st0" cx="373.2" cy="907.4" rx="38.4" ry="32.9"/>
					<path d="M368,943.2c-6.5,0-12.8-1.6-18.2-4.7c-7.4-4.4-12.5-11.3-14.3-19.6c-4-18.7,9.6-39,30.2-45.4l0,0
						c10.8-3.3,22-2.3,30.7,2.8c7.4,4.4,12.5,11.3,14.3,19.6c4,18.7-9.6,39-30.2,45.4C376.4,942.6,372.1,943.2,368,943.2z
						 M366.6,875.9c-19.4,6-32.1,25-28.4,42.4c1.6,7.6,6.3,14,13,17.9c8.1,4.7,18.5,5.7,28.6,2.6c19.4-6,32.1-25,28.4-42.4
						c-1.6-7.6-6.3-14-13-17.9C387.1,873.8,376.6,872.8,366.6,875.9L366.6,875.9z"/>
				</g>
				<g>
					
						<ellipse transform="matrix(0.8481 -0.5299 0.5299 0.8481 -118.5767 803.6717)" class="st0" cx="1342.2" cy="608.6" rx="38.4" ry="32.9"/>
					<path d="M1337.1,644.5c-6.5,0-12.8-1.6-18.2-4.7c-7.4-4.4-12.5-11.3-14.3-19.6c-4-18.7,9.6-39,30.2-45.4
						c10.8-3.3,22-2.3,30.7,2.8c7.4,4.4,12.5,11.3,14.3,19.6c4,18.7-9.6,39-30.2,45.4C1345.5,643.8,1341.2,644.5,1337.1,644.5z
						 M1347.4,575.4c-3.9,0-7.8,0.6-11.7,1.8c-19.4,6-32.1,25-28.4,42.4c1.6,7.6,6.3,14,13,17.9c8.1,4.7,18.5,5.7,28.6,2.6
						c19.4-6,32.1-25,28.4-42.4c-1.6-7.6-6.3-14-13-17.9C1359.3,576.9,1353.5,575.4,1347.4,575.4z"/>
				</g>
			</g>
		</g>
		<g>
			<g>
				<g>
					
						<ellipse transform="matrix(0.8481 -0.5299 0.5299 0.8481 -159.8372 352.3856)" class="st0" cx="534.6" cy="454.9" rx="38.4" ry="32.9"/>
					<path d="M529.4,490.8c-8.9,0-17.3-2.9-23.7-8.8c-6.1-5.7-9.5-13.6-9.4-22.2c0-10.3,4.8-20.6,13.2-28.4
						c15.9-14.8,40.1-16.3,53.9-3.3c6.1,5.7,9.5,13.6,9.4,22.2c0,10.3-4.8,20.6-13.2,28.4C551.1,486.6,540,490.8,529.4,490.8z
						 M539.8,421.7c-9.9,0-20.3,3.9-28.5,11.5c-7.8,7.3-12.3,17-12.3,26.5c0,7.9,3,15.1,8.6,20.3c12.9,12.1,35.5,10.6,50.4-3.3
						c7.8-7.3,12.3-17,12.3-26.5c0-7.9-3-15.1-8.6-20.3C555.8,424.4,548,421.7,539.8,421.7z"/>
				</g>
				<g>
					
						<ellipse transform="matrix(0.8481 -0.5299 0.5299 0.8481 -382.8415 786.8601)" class="st0" cx="1180.8" cy="1061.1" rx="38.4" ry="32.9"/>
					<path d="M1175.6,1096.9c-8.9,0-17.3-2.9-23.7-8.8c-6.1-5.7-9.5-13.6-9.4-22.2c0-10.3,4.8-20.6,13.2-28.4
						c15.9-14.8,40.1-16.3,53.9-3.3l0,0c6.1,5.7,9.5,13.6,9.4,22.2c0,10.3-4.8,20.6-13.2,28.4
						C1197.3,1092.8,1186.2,1096.9,1175.6,1096.9z M1186,1027.8c-9.9,0-20.3,3.9-28.5,11.5c-7.8,7.3-12.3,17-12.3,26.5
						c0,7.9,3,15.1,8.6,20.3c12.9,12.1,35.5,10.6,50.4-3.3c7.8-7.3,12.3-17,12.3-26.5c0-7.9-3-15.1-8.6-20.3l0,0
						C1202,1030.5,1194.2,1027.8,1186,1027.8z"/>
				</g>
			</g>
			<g>
				<g>
					
						<ellipse transform="matrix(0.8481 -0.5299 0.5299 0.8481 -512.1057 424.782)" class="st0" cx="484.7" cy="1105.5" rx="38.4" ry="32.9"/>
					<path d="M479.6,1141.3c-8.9,0-17.3-2.9-23.7-8.8c-6.1-5.7-9.5-13.6-9.4-22.2c0-10.3,4.8-20.6,13.2-28.4
						c15.9-14.8,40.1-16.3,53.9-3.3c6.1,5.7,9.5,13.6,9.4,22.2c0,10.3-4.8,20.6-13.2,28.4C501.2,1137.2,490.1,1141.3,479.6,1141.3z
						 M489.9,1072.2c-9.9,0-20.3,3.9-28.5,11.5l0,0c-7.8,7.3-12.3,17-12.3,26.5c0,7.9,3,15.1,8.6,20.3c12.9,12.1,35.5,10.6,50.4-3.3
						c7.8-7.3,12.3-17,12.3-26.5c0-7.9-3-15.1-8.6-20.3C506,1074.9,498.1,1072.2,489.9,1072.2z"/>
				</g>
				<g>
					
						<ellipse transform="matrix(0.8481 -0.5299 0.5299 0.8481 -30.571 714.447)" class="st0" cx="1230.7" cy="410.5" rx="38.4" ry="32.9"/>
					<path d="M1225.5,446.4c-8.9,0-17.3-2.9-23.7-8.8c-6.1-5.7-9.5-13.6-9.4-22.2c0-10.3,4.8-20.6,13.2-28.4l0,0
						c15.9-14.8,40.1-16.3,53.9-3.3c6.1,5.7,9.5,13.6,9.4,22.2c0,10.3-4.8,20.6-13.2,28.4C1247.1,442.3,1236,446.4,1225.5,446.4z
						 M1207.3,388.8L1207.3,388.8c-7.8,7.3-12.3,17-12.3,26.5c0,7.9,3,15.1,8.6,20.3c12.9,12.1,35.5,10.6,50.4-3.3
						c7.8-7.3,12.3-17,12.3-26.5c0-7.9-3-15.1-8.6-20.3C1244.9,373.4,1222.3,374.9,1207.3,388.8z"/>
				</g>
			</g>
		</g>
		<g>
			<path d="M460.9,669c-15.9,44.6-41.7,63.5-77.3,56.8c-6.2-1.2-11-2.6-14.2-4.4l4-11.2c3.8,2.2,8.4,3.8,13.9,4.8
				c12.9,2.4,24,0.4,33.3-6c9.3-6.5,17.1-17.6,23.4-33.5l-1-0.2c-4.5,3.8-9.6,6.3-15.3,7.6c-5.7,1.3-11.6,1.4-17.7,0.3
				c-10.4-2-17.6-6.6-21.5-13.8c-4-7.2-4-16.2-0.1-27c4.2-11.9,11-20.6,20.3-26.1c9.3-5.6,19.5-7.3,30.6-5.2c8,1.5,14.3,4.8,18.8,10
				c4.6,5.1,7.1,11.8,7.6,20C466.2,649.3,464.6,658.6,460.9,669z M435.3,622.2c-7.7-1.5-14.4-0.2-20.3,3.8
				c-5.9,4-10.4,10.2-13.4,18.8c-2.7,7.5-2.8,13.7-0.5,18.8c2.3,5,7.4,8.3,15.3,9.8c4.9,0.9,9.7,0.8,14.5-0.3c4.8-1.1,9-3.2,12.5-6
				c3.5-2.9,6-6.1,7.3-9.8c1.9-5.5,2.6-10.7,2.1-15.8c-0.5-5-2.3-9.3-5.3-12.7C444.5,625.4,440.4,623.2,435.3,622.2z"/>
		</g>
		<g>
			<path d="M1361.3,817c-2.6,7.3-6.8,12.8-12.7,16.7c-5.9,3.8-12.9,5.8-21.2,5.9l-0.2,0.6c9,2.9,15,7.2,17.9,12.7
				c2.9,5.5,3,12.1,0.3,19.7c-3.9,10.9-10.7,18.5-20.6,22.9c-9.9,4.4-21.9,5.2-36.3,2.5c-6.2-1.2-11.7-2.7-16.6-4.6
				c-4.8-1.9-9.3-4.4-13.4-7.7l4.4-12.3c4.2,3.4,9,6.3,14.3,8.7c5.3,2.4,10.5,4,15.7,5c20.3,3.9,33.2-1.9,38.7-17.4
				c4.9-13.8-3.8-22.9-26.2-27.1l-11.6-2.2l4-11.2l11.7,2.2c9.2,1.7,17.1,1.2,23.9-1.7c6.8-2.9,11.4-7.8,13.9-14.8
				c2-5.6,1.6-10.3-1.2-14.2c-2.8-3.9-7.6-6.5-14.3-7.8c-5.1-1-10.2-1.2-15.3-0.7c-5,0.5-11.1,2-18.3,4.5l-3.6-10
				c6.1-2.8,12.7-4.6,19.8-5.5c7-0.9,14.1-0.7,21,0.6c11.4,2.2,19.4,6.4,23.9,12.7C1363.8,800.6,1364.4,808.2,1361.3,817z"/>
		</g>
		<polygon points="887,785.8 841.6,777.2 963.8,434.6 1009.2,443.3 		"/>
		<polygon points="879,777.1 854,742.4 1062,598.3 1087,633.1 		"/>
	</g>
	<g>
		<g>
			<g>
				<polygon class="st0" points="832,1365.7 782.9,1289 867.4,1285.9 912.5,1355.4 871.7,1383.8 				"/>
				<path d="M866.7,1287.3l44,67.8l-39.2,27.2l-38.6-17.7l-47.7-74.4L866.7,1287.3 M868.1,1284.6l-87.6,3.2l50.6,78.9l40.7,18.6
					l42.5-29.5L868.1,1284.6L868.1,1284.6z"/>
			</g>
			<g>
				<polygon class="st1" points="1031.6,1410.1 1031.2,1428.8 822.9,1426.7 823.3,1405.1 				"/>
				<path class="st1" d="M1031.4,1416.5c0,0,9.6-33.4-42.2-43.5c-51.8-10.1-83.6-30.4-83.6-30.4s0.4,21.5-31.6,23.2
					c-44.8,2.5-50.4-10.8-50.4-10.8L823,1411L1031.4,1416.5z"/>
				<g>
					<path d="M928.5,1366.7c0,0-0.1,0-0.1,0c-1-0.1-1.8-1-1.7-2c0.6-6.8,3-13.4,6.9-19c0.6-0.8,1.8-1.1,2.6-0.5
						c0.9,0.6,1.1,1.7,0.5,2.5c-3.6,5.1-5.8,11.1-6.3,17.3C930.4,1366,929.5,1366.7,928.5,1366.7z"/>
				</g>
				<g>
					<path d="M941.7,1369.9c0,0-0.1,0-0.1,0c-1-0.1-1.8-1-1.7-2c0.6-6.8,3-13.4,6.9-19c0.6-0.8,1.8-1.1,2.6-0.5
						c0.9,0.6,1.1,1.7,0.5,2.5c-3.6,5.1-5.8,11.1-6.3,17.3C943.6,1369.2,942.7,1369.9,941.7,1369.9z"/>
				</g>
				<g>
					<path d="M952.7,1373c0,0-0.1,0-0.1,0c-1-0.1-1.8-1-1.7-2c0.6-6.8,3-13.4,6.9-19c0.6-0.8,1.8-1.1,2.6-0.5
						c0.9,0.6,1.1,1.7,0.5,2.5c-3.6,5.1-5.8,11.1-6.3,17.3C954.5,1372.3,953.7,1373,952.7,1373z"/>
				</g>
				<g>
					<path class="st1" d="M914.8,1356.2c-0.4,0-0.8-0.1-1.1-0.4c-0.6-0.4-0.9-1.2-0.7-1.9c0-0.1,2.5-10.7,6.5-21.6
						c5.7-15.3,11.3-23.4,17.4-24.9c2.3-0.6,5.7-0.4,9.4,3.5c3.2,3.4,4.5,7.4,3.7,11.7c-2.8,16.1-32.9,32.6-34.2,33.3
						C915.4,1356.2,915.1,1356.3,914.8,1356.2z M938.9,1310.9c-0.5,0-0.8,0.1-1.1,0.1c-2.6,0.6-8,4.4-14.7,22.6
						c-2.4,6.5-4.3,13-5.4,17c8.2-5,26.5-17.2,28.4-28.5c0.6-3.3-0.4-6.1-2.8-8.7C941.4,1311.3,939.9,1310.9,938.9,1310.9z"/>
				</g>
				<g>
					<path class="st1" d="M913.3,1356.5c-0.1,0-0.2,0-0.3,0c-0.7-0.1-1.3-0.7-1.5-1.4c0-0.1-2.5-10.8-3.7-22.2
						c-1.7-16.1-0.2-25.8,4.6-29.6c1.8-1.4,5-2.7,10.1-0.6c4.4,1.8,7.3,4.9,8.6,9.1c4.7,15.7-15.2,42.8-16.1,44
						C914.5,1356.3,913.9,1356.5,913.3,1356.5z M917.5,1305.2c-1.6,0-2.4,0.6-2.7,0.9c-2.1,1.6-5.2,7.2-3.2,26.4
						c0.7,6.9,1.9,13.5,2.8,17.6c5.2-7.8,16.3-26.3,13-37.3c-1-3.2-3.1-5.4-6.4-6.8C919.5,1305.4,918.4,1305.2,917.5,1305.2z"/>
				</g>
			</g>
		</g>
		<g>
			<g>
				<path d="M754,1357.5c0,0-85.6-186.1-90.9-195.7c-4.2-7.6-14.8-14.1-23.8,0S507.3,1351.8,440,1337c-51-11.2-98.3,14.5-129-87.7
					c0,0,83.9-68.4,210.9-192.6c100.3-98.1,164.3-112.8,208.4-47.5c35.7,52.8,156.1,292.9,156.1,292.9L754,1357.5z"/>
			</g>
		</g>
		<g>
			<path class="st0" d="M830,1325.7l-1.4-2.6l0.6-0.3l1.4,2.6L830,1325.7z M824.2,1314.7l-4.4-8.4l0.6-0.3l4.4,8.4L824.2,1314.7z
				 M815.5,1298l-4.3-8.4l0.6-0.3l4.3,8.4L815.5,1298z M806.9,1281.2l-4.3-8.4l0.6-0.3l4.3,8.4L806.9,1281.2z M798.2,1264.5
				l-4.3-8.4l0.6-0.3l4.3,8.4L798.2,1264.5z M789.6,1247.7l-4.3-8.4l0.6-0.3l4.3,8.4L789.6,1247.7z M781,1231
				c-1.4-2.8-2.8-5.6-4.3-8.4l0.6-0.3c1.4,2.8,2.9,5.6,4.3,8.4L781,1231z M455.5,1221.3l-0.4-0.5l7.2-6.2l0.4,0.5L455.5,1221.3z
				 M772.5,1214.2c-1.4-2.8-2.8-5.6-4.3-8.4l0.6-0.3c1.4,2.8,2.8,5.6,4.3,8.4L772.5,1214.2z M469.8,1208.9l-0.4-0.5l7.1-6.2l0.4,0.5
				L469.8,1208.9z M763.9,1197.4c-1.4-2.8-2.8-5.6-4.2-8.4l0.6-0.3c1.4,2.8,2.8,5.6,4.2,8.4L763.9,1197.4z M484.1,1196.5l-0.4-0.5
				l7.1-6.2l0.4,0.5L484.1,1196.5z M498.3,1184.2l-0.4-0.5l7.1-6.2l0.4,0.5L498.3,1184.2z M755.4,1180.6c-1.4-2.8-2.8-5.6-4.2-8.4
				l0.6-0.3c1.4,2.8,2.8,5.6,4.2,8.4L755.4,1180.6z M512.5,1171.8l-0.4-0.5l7.1-6.2l0.4,0.5L512.5,1171.8z M747,1163.8
				c-1.4-2.8-2.8-5.7-4.2-8.4l0.6-0.3c1.4,2.8,2.8,5.6,4.2,8.4L747,1163.8z M526.8,1159.5l-0.4-0.5l7.1-6.2l0.4,0.5L526.8,1159.5z
				 M541,1147.2l-0.4-0.5l7.1-6.2l0.4,0.5L541,1147.2z M738.6,1146.9c-1.4-2.9-2.8-5.7-4.2-8.5l0.6-0.3c1.4,2.8,2.7,5.6,4.2,8.4
				L738.6,1146.9z M555.2,1134.9l-0.4-0.5l7.1-6.2l0.4,0.5L555.2,1134.9z M730.4,1130c-1.4-2.9-2.8-5.7-4.1-8.5l0.6-0.3
				c1.3,2.7,2.7,5.6,4.1,8.5L730.4,1130z M569.5,1122.6l-0.4-0.5l7.1-6.2l0.4,0.5L569.5,1122.6z M722.2,1113c-1.4-3-2.7-5.8-4-8.5
				l0.6-0.3c1.3,2.7,2.6,5.6,4,8.5L722.2,1113z M583.7,1110.3l-0.4-0.5l7.1-6.2l0.4,0.5L583.7,1110.3z M598,1098l-0.4-0.5l7.1-6.1
				l0.4,0.5L598,1098z M714.3,1095.9c-1.3-2.9-2.4-5.5-3.4-7.8l-0.4-0.9l0.6-0.2l0.4,0.9c1,2.3,2.1,4.9,3.4,7.8L714.3,1095.9z
				 M612.3,1085.7l-0.4-0.5c2.5-2.2,4.9-4.2,7.2-6.1l0.4,0.5C617.2,1081.5,614.8,1083.5,612.3,1085.7z M706.7,1078.7
				c-1.4-3-2.9-5.8-4.4-8.3l0.5-0.3c1.5,2.5,3,5.3,4.4,8.3L706.7,1078.7z M626.6,1073.4l-0.4-0.5c2.3-2,4.4-3.7,6.2-5.3
				c0.3-0.3,0.7-0.6,1-0.8l0.4,0.5c-0.3,0.3-0.7,0.6-1,0.8C631,1069.6,628.9,1071.4,626.6,1073.4z M697.2,1062.6
				c-2-2.7-4-5.1-6.1-7.1l0.4-0.5c2.1,2,4.2,4.4,6.2,7.1L697.2,1062.6z M641.1,1061.4l-0.4-0.5c2.7-2,5.3-3.9,7.7-5.4l0.3,0.5
				C646.3,1057.6,643.8,1059.4,641.1,1061.4z M656.9,1051.4l-0.3-0.6c3.1-1.5,6.1-2.6,8.9-3.3l0.1,0.6
				C662.9,1048.8,659.9,1049.9,656.9,1051.4z M683.6,1050c-2.8-1.5-5.8-2.3-8.8-2.6l0.1-0.6c3.1,0.3,6.2,1.2,9.1,2.7L683.6,1050z"/>
		</g>
	</g>
	<g>
		<g>
			<path class="st0" d="M305.7,1432.4l148.9,6.2c8-7.7,15.8-79.5,15.8-79.5l-131.7,5.9L305.7,1432.4z"/>
			<path d="M338,1363.9l-0.3,0.6l-33.7,68.9l151,6.3l0.3-0.3c3.5-3.4,7.3-17.9,11.3-43.3c2.9-18.7,4.9-36.7,4.9-36.9l0.1-1.3
				l-1.3,0.1L338,1363.9z M307.4,1431.3l32-65.3l129.8-5.8c-0.5,4.4-2.3,19.7-4.8,35.5c-2.1,13.6-6.3,36.9-10.3,41.7L307.4,1431.3z"
				/>
		</g>
	</g>
	<g>
		<polygon points="202.4,1414.8 196.8,1397 395.2,1333.4 401.8,1353.3 		"/>
		<path class="st1" d="M200.2,1408.8c0,0,8,27.5,60.7,26c55.4-1.6,87.1,0.9,87.1,0.9s-11.9-17.1,17.9-29
			c41.6-16.6,51.3-5.8,51.3-5.8l-17.2-53.3L200.2,1408.8z"/>
		<g>
			<path d="M329.8,1413.3c0,0,0.1,0,0.1,0c1-0.2,2,0.4,2.2,1.4c1.3,6.7,0.8,13.7-1.5,20.1c-0.3,1-1.4,1.5-2.4,1.2
				c-1-0.3-1.5-1.3-1.2-2.3c2.1-5.9,2.5-12.2,1.4-18.3C328.2,1414.5,328.8,1413.5,329.8,1413.3z"/>
		</g>
		<g>
			<path d="M316.2,1413.8c0,0,0.1,0,0.1,0c1-0.2,2,0.4,2.2,1.4c1.3,6.7,0.8,13.7-1.5,20.1c-0.3,1-1.4,1.5-2.4,1.2
				c-1-0.3-1.5-1.3-1.2-2.3c2.1-5.9,2.5-12.2,1.4-18.3C314.7,1415,315.3,1414.1,316.2,1413.8z"/>
		</g>
		<g>
			<path d="M304.8,1413.8c0,0,0.1,0,0.1,0c1-0.2,2,0.4,2.2,1.4c1.3,6.7,0.8,13.7-1.5,20.1c-0.3,1-1.4,1.5-2.4,1.2
				c-1-0.3-1.5-1.3-1.2-2.3c2.1-5.9,2.5-12.2,1.4-18.3C303.3,1415,303.9,1414,304.8,1413.8z"/>
		</g>
	</g>
	<g>
		<g>
			<path d="M271.4,1207.4c0,0,72.6-58.4,200.3-48.6c0,0,375.4,28.4,378.6,156.7c1.9,75.5-80.7,121.6-163,122.6
				c-48.1,0.6-259,1.5-259,1.5c-23.6,0.8-42.7-21.1-12.2-93.6c1.5-3.7-44.6-3.2-65.6-14.5C290.1,1298.7,271,1250.5,271.4,1207.4z"/>
		</g>
		<g>
			<path class="st0" d="M687.2,1439.1l0-1.9c52.8-0.7,104-20.1,133.5-50.8c19.4-20.1,29.3-44.6,28.6-70.9
				c-0.7-28.9-20.9-55.1-60-77.8c-31.5-18.3-75.1-34.3-129.7-47.7c-93.1-22.9-187-30.2-188-30.2c-65.8-5-116.5,8.4-147.6,20.5
				c-31.1,12.2-49.1,25.5-51.8,27.6c-0.1,23.5,5.5,45.4,16.6,65c13.3,23.2,34.1,42.7,62.1,57.8l-0.9,1.7
				c-28.2-15.3-49.4-35-62.8-58.5c-11.4-20-17.1-42.4-16.9-66.4l0-0.4l0.3-0.3c0.2-0.1,18.7-14.8,52.5-28.1
				c31.2-12.2,82.3-25.8,148.5-20.7c0.9,0.1,95,7.4,188.2,30.3c54.8,13.5,98.6,29.6,130.2,47.9c39.7,23.1,60.2,49.8,61,79.4
				c0.7,26.8-9.4,51.7-29.1,72.2C792.2,1418.7,740.5,1438.4,687.2,1439.1z"/>
		</g>
		<g>
			
				<rect x="416" y="1340.7" transform="matrix(0.9994 -3.590329e-02 3.590329e-02 0.9994 -47.8203 20.2299)" class="st0" width="246.7" height="1.9"/>
		</g>
		<g>
			<path class="st0" d="M433.9,1382.6c-3.4,0-6.5,0-9.4,0l0-1.3c2.9,0,6,0,9.4,0V1382.6z M443.3,1382.6l0-1.3c3,0,6.1,0,9.4,0l0,1.3
				C449.5,1382.6,446.3,1382.6,443.3,1382.6z M415.1,1382.5c-4.5,0-7.7,0-9.4,0l0-1.3c1.7,0,4.9,0,9.4,0L415.1,1382.5z
				 M462.1,1382.5l0-1.3l9.4,0l0,1.3L462.1,1382.5z M480.9,1382.4l0-1.3l9.4-0.1l0,1.3L480.9,1382.4z M499.8,1382.2l0-1.3
				c3.1,0,6.2-0.1,9.4-0.1l0,1.3C506,1382.2,502.9,1382.2,499.8,1382.2z M518.6,1382l0-1.3c3.1,0,6.2-0.1,9.4-0.1l0,1.3
				C524.8,1381.9,521.7,1382,518.6,1382z M537.4,1381.7l0-1.3c3.1-0.1,6.3-0.1,9.4-0.2l0,1.3
				C543.6,1381.6,540.5,1381.6,537.4,1381.7z M556.2,1381.3l0-1.3c3.1-0.1,6.3-0.1,9.4-0.2l0,1.3
				C562.5,1381.2,559.3,1381.2,556.2,1381.3z M575,1380.8l0-1.3c3.1-0.1,6.3-0.2,9.4-0.3l0,1.3
				C581.3,1380.6,578.1,1380.7,575,1380.8z M593.8,1380.2l0-1.3c3.2-0.1,6.3-0.2,9.4-0.3l0,1.3
				C600.1,1380,596.9,1380.1,593.8,1380.2z M612.6,1379.5l-0.1-1.3c3.2-0.1,6.3-0.3,9.4-0.4l0.1,1.3
				C618.9,1379.2,615.7,1379.4,612.6,1379.5z M631.4,1378.6l-0.1-1.3c3.2-0.2,6.3-0.3,9.4-0.5l0.1,1.3
				C637.7,1378.3,634.5,1378.4,631.4,1378.6z M650.1,1377.5l-0.1-1.3c1.3-0.1,2.7-0.2,4-0.3c1.8-0.1,3.6-0.3,5.4-0.4l0.1,1.2
				c-1.8,0.2-3.6,0.3-5.4,0.4C652.8,1377.3,651.5,1377.4,650.1,1377.5z M668.9,1375.8l-0.1-1.2c3.2-0.4,6.3-0.8,9.3-1.3l0.2,1.2
				C675.2,1375,672.1,1375.4,668.9,1375.8z M687.5,1372.9l-0.3-1.2c3.2-0.7,6.2-1.4,9.1-2.2l0.3,1.2
				C693.8,1371.5,690.7,1372.2,687.5,1372.9z M705.7,1367.9l-0.4-1.2c3.1-1.1,6-2.3,8.6-3.6l0.5,1.1
				C711.7,1365.6,708.8,1366.8,705.7,1367.9z M722.6,1359.6l-0.7-1c2.7-1.8,5.1-3.8,7.2-5.8l0.9,0.9
				C727.9,1355.8,725.4,1357.8,722.6,1359.6z M735.9,1346.2l-1.1-0.7c1.6-2.6,2.9-5.4,3.8-8.4l1.2,0.4
				C738.9,1340.7,737.6,1343.6,735.9,1346.2z M741.8,1328.3l-1.2-0.1c0.2-1.9,0.3-3.8,0.3-5.9c0-1.1,0-2.3-0.1-3.4l1.3-0.1
				c0.1,1.2,0.1,2.3,0.1,3.5C742,1324.4,741.9,1326.4,741.8,1328.3z M739.8,1309.6c-0.4-2.8-0.9-5.8-1.6-9.2l1.2-0.2
				c0.7,3.4,1.2,6.5,1.6,9.3L739.8,1309.6z M734.4,1292.5c-1.8-1.8-4.4-3.4-7.7-4.9l0.5-1.1c3.4,1.5,6.1,3.2,8.1,5.1L734.4,1292.5z
				 M717.9,1284.5c-2.7-0.8-5.8-1.5-9.1-2.2l0.2-1.2c3.3,0.7,6.4,1.4,9.2,2.2L717.9,1284.5z M699.6,1280.7c-2.9-0.4-6-0.9-9.3-1.2
				l0.1-1.2c3.3,0.4,6.4,0.8,9.3,1.2L699.6,1280.7z M680.9,1278.5c-3-0.3-6.1-0.5-9.4-0.7l0.1-1.3c3.2,0.2,6.4,0.5,9.4,0.8
				L680.9,1278.5z M662.2,1277.1c-3.1-0.2-6.2-0.3-9.4-0.5l0.1-1.3c3.2,0.1,6.3,0.3,9.4,0.5L662.2,1277.1z M643.4,1276.3
				c-3.1-0.1-6.2-0.2-9.4-0.3l0-1.3c3.2,0.1,6.3,0.2,9.4,0.3L643.4,1276.3z M507.4,1276.1l-4.9,0l0-1.3l4.9,0l4.5,0l0,1.3
				L507.4,1276.1z M521.3,1276l0-1.3c3.1,0,6.2,0,9.4,0l0,1.3C527.5,1276,524.4,1276,521.3,1276z M493.1,1276c-3.2,0-6.3,0-9.4-0.1
				l0-1.3c3.1,0,6.2,0.1,9.4,0.1L493.1,1276z M540.1,1275.9l0-1.3l9.4-0.1l0,1.3L540.1,1275.9z M624.6,1275.9
				c-3.1-0.1-6.2-0.1-9.4-0.1l0-1.3c3.2,0,6.3,0.1,9.4,0.1L624.6,1275.9z M558.9,1275.8l0-1.3l9.4-0.1l0,1.3L558.9,1275.8z
				 M474.3,1275.8c-3.2-0.1-6.3-0.1-9.4-0.2l0-1.3c3.1,0.1,6.2,0.2,9.4,0.2L474.3,1275.8z M605.9,1275.7c-3.1,0-6.2,0-9.4,0l0-1.3
				c3.2,0,6.3,0,9.4,0L605.9,1275.7z M577.7,1275.7l0-1.3c3.1,0,6.3,0,9.4,0l0,1.3C583.9,1275.7,580.8,1275.7,577.7,1275.7z
				 M455.5,1275.3c-3.2-0.1-6.3-0.3-9.4-0.4l0.1-1.3c3,0.2,6.2,0.3,9.4,0.4L455.5,1275.3z M436.7,1274.2c-3.3-0.2-6.4-0.5-9.4-0.8
				l0.1-1.2c2.9,0.3,6.1,0.6,9.3,0.8L436.7,1274.2z M418,1272.2c-3.1-0.5-6.3-1.1-9.3-1.7l0.3-1.2c3,0.6,6.1,1.2,9.2,1.7L418,1272.2
				z M399.6,1268.3c-3.1-0.9-6.1-1.8-9-2.9l0.4-1.2c2.9,1,5.9,2,8.9,2.8L399.6,1268.3z M381.9,1261.9c-2.9-1.3-5.7-2.7-8.4-4.2
				l0.6-1.1c2.7,1.5,5.5,2.9,8.3,4.2L381.9,1261.9z M365.4,1252.6c-2.6-1.8-5.1-3.7-7.5-5.7l0.8-1c2.3,2,4.8,3.9,7.4,5.7
				L365.4,1252.6z M351,1240.4c-2.2-2.3-4.3-4.7-6.2-7.2l1-0.8c1.9,2.4,3.9,4.8,6.1,7.1L351,1240.4z M339.5,1225.4
				c-1.6-2.7-3.2-5.5-4.5-8.3l1.1-0.5c1.3,2.8,2.8,5.6,4.4,8.2L339.5,1225.4z M331.5,1208.3c-1.8-5.6-2.3-9.1-2.3-9.3l1.2-0.2
				c0,0,0.5,3.6,2.3,9L331.5,1208.3z"/>
		</g>
	</g>
	<g>
		<g>
			<g>
				<g>
					<g>
						<path class="st0" d="M797.6,754.1c0.7,3.3-0.3,6.7-3.6,6.9l-50.6,2.1c-1.3,0.5-33.9,4.2-33.9,4.2l-26.8,75.3l-39.1-25.7
							c0,0,10.9-93.7,45.2-94c10.8-0.1,57.9-1.5,57.9-1.5c1.4,7.4-3.4,13.6-10.8,13.9l-20.2,0.7l69-1.1c5-0.3,8,5.1,7.5,9.1
							C797.8,744.6,800.3,750.9,797.6,754.1z"/>
						<path d="M747.5,720.3l-0.9,0c-0.5,0-47.2,1.4-57.9,1.5c-8.2,0.1-15.8,5.2-22.4,15.3c-5.2,7.9-10,18.9-14.1,32.6
							c-7,23.3-9.7,46.8-9.8,47.1l-0.1,0.7l40.8,26.8l27.1-76c8.1-0.9,30.4-3.5,33.2-4.1l50.5-2.1c1.5-0.1,2.8-0.7,3.6-1.8
							c1.1-1.4,1.5-3.5,1.1-5.9c1.2-1.7,1.3-4.1,0.4-6.4c-1-2.5-3.2-4.3-5.8-4.8c0-2.4-1-5-2.7-6.8c-1.6-1.7-3.8-2.6-6-2.5
							l-42.3,0.6c1.2-0.7,2.2-1.6,3.1-2.7c2.3-2.9,3.1-6.7,2.4-10.6L747.5,720.3z M644.7,816.4c1.1-8.4,12.6-92,44-92.4
							c9.8-0.1,50.2-1.3,57-1.5c0.4,3-0.4,5.8-2.1,7.9c-1.8,2.3-4.6,3.6-7.8,3.8l-20.2,0.7l0.1,2.2l69-1.1c2.1-0.1,3.5,0.9,4.3,1.8
							c1.5,1.6,2.3,4,2,6.1l-0.1,1.1l1.1,0.1c2.3,0.2,4.2,1.5,5.1,3.6c0.7,1.7,0.6,3.4-0.4,4.6l-0.3,0.4l0.1,0.5
							c0.4,1.9,0.1,3.6-0.6,4.6c-0.5,0.6-1.1,0.9-2,1l-50.7,2.1l-0.1,0.1c-1.4,0.4-20.9,2.7-33.7,4.1l-0.7,0.1l-26.6,74.6
							L644.7,816.4z"/>
					</g>
					<g>
						<line class="st0" x1="797.6" y1="754.1" x2="750.2" y2="754.6"/>
						
							<rect x="750.2" y="753.3" transform="matrix(0.9999 -1.073019e-02 1.073019e-02 0.9999 -8.0499 8.3474)" width="47.4" height="2.2"/>
					</g>
					<g>
						<line class="st0" x1="792.2" y1="744.1" x2="744.5" y2="744.6"/>
						
							<rect x="744.5" y="743.3" transform="matrix(0.9999 -1.072867e-02 1.072867e-02 0.9999 -7.9419 8.2859)" width="47.7" height="2.2"/>
					</g>
				</g>
				<path class="st2" d="M651.6,758.2c30.8-9.6,36.4,98,36.4,98c-60.8,207.2-344.6,198.9-332,26.8
					C361.2,811.4,552.3,1028.7,651.6,758.2z"/>
			</g>
			<g>
				<path d="M682.4,868.5l-1.3-1.3c0-0.3-0.1-1.3-0.3-2.9l2.6-0.2c0.1,1.6,0.2,2.6,0.3,2.9l-1.3,0.2V868.5z M679.8,855
					c-0.3-2.8-0.7-5.9-1.1-9.3l2.6-0.3c0.4,3.4,0.8,6.6,1.1,9.4L679.8,855z M677.5,836.4c-0.4-3-0.9-6.1-1.4-9.3l2.6-0.4
					c0.5,3.2,1,6.3,1.4,9.3L677.5,836.4z M674.6,817.8c-0.6-3.2-1.1-6.3-1.7-9.2l2.6-0.5c0.6,3,1.2,6.1,1.7,9.3L674.6,817.8z
					 M671,799.4c-0.7-3.2-1.5-6.2-2.2-9.1l2.5-0.7c0.8,2.9,1.5,6,2.2,9.2L671,799.4z M666.1,781.4c-0.3-1-0.7-2.1-1-3
					c-0.7-2-1.6-3.7-2.6-5.1l2.1-1.6c1.2,1.6,2.2,3.5,3,5.8c0.4,1,0.7,2,1,3.1L666.1,781.4z M647.3,772.1l-1.5-2.2
					c0.2-0.1,4.4-2.9,9.4-2.9l0.2,0l-0.1,2.6l-0.2,0C651.1,769.6,647.4,772.1,647.3,772.1z"/>
			</g>
		</g>
		<g>
			<g>
				<g>
					<path class="st2" d="M277.3,1248.4c-33.7-123.8-53.2-231.1-54.7-318.3c-0.4-22.5,19.6-37.9,43.7-48.4
						c34.3-14.9,100-14.5,100-14.5c46.1,36.7,90.6,116.8,40.2,144.8c-11.2,65.7,36.4,119.2,36.4,119.2
						C418.4,1211.9,340.6,1260.4,277.3,1248.4z"/>
				</g>
				<g>
					<path d="M186.4,707.1c8.9-1.6,17.4,3.8,20.1,12.2c0.1,0,0.1,0,0.2,0c12.5-2.2,24.5,4.6,29.3,15.8c1.5-0.5,3-0.9,4.5-1.2
						c14.6-2.6,28.5,7.2,31.1,21.8c0.5,2.8,0.5,5.5,0.2,8.2c2.8,3.4,4.7,7.6,5.5,12.2c2.6,14.6-7.2,28.5-21.8,31.1
						c-6.5,1.1-12.9-0.2-18.2-3.3c-0.5,0.1-0.9,0.2-1.4,0.3c-14.6,2.6-28.5-7.2-31.1-21.8c-0.6-3.6-0.5-7.1,0.2-10.5
						c-10.1-2.4-18.3-10.6-20.2-21.5c-0.5-2.9-0.5-5.8-0.1-8.5c-6.4-1.8-11.6-7.1-12.8-14.1C170.2,718.1,176.7,708.8,186.4,707.1z"
						/>
					<g>
						<path class="st3" d="M295.4,798.1l-1.1,0.2c2.2,12.7-4.6,24.5-15.2,26.4c-0.8,0.1-1.6,0.2-2.3,0.2
							c-9.7,0.3-18.8-8.1-20.9-19.9c-2.2-12.7,4.6-24.5,15.2-26.4c5.1-0.9,10.3,0.6,14.7,4.3c4.4,3.7,7.5,9.2,8.5,15.3L295.4,798.1z
							"/>
					</g>
					<ellipse transform="matrix(0.4142 -0.9102 0.9102 0.4142 -570.566 744.0716)" cx="292.7" cy="815.3" rx="30.2" ry="30.2"/>
					<g>
						<g>
							<g>
								<g>
									<g>
										<g>
											<path class="st0" d="M287.1,878.1l-5.6-39.6l34.4,11.5l3,19.7c0,0,46.5,42.4,33.2,51
												C338.7,929.3,291.5,889.4,287.1,878.1z"/>
											<path d="M347.4,923.2c-2.1,0-4.5-0.4-7.2-1.3c-19.3-6.3-50.5-33.7-54.3-43.4l-0.1-0.3l-5.9-41.7L317,849l3,20.1
												c4,3.7,36.7,34.3,35.6,47.7c-0.2,2.2-1.2,3.9-3,5C351.3,922.8,349.5,923.2,347.4,923.2z M288.4,877.7
												c3.4,8.3,33.2,35.4,52.6,41.7c4.7,1.5,8.2,1.6,10.3,0.2c1.1-0.7,1.7-1.7,1.8-3c0.9-10.5-25-36.7-35.1-45.9l-0.3-0.3
												l-2.9-19.4l-31.6-10.6L288.4,877.7z"/>
										</g>
									</g>
								</g>
							</g>
						</g>
					</g>
					<g>
						<g>
							<path class="st0" d="M297.4,797.7c-9.6,1.7-16.5,10.6-18.2,21.9c-3.5,1-5.6,5.8-4.7,10.9c0.8,4.4,3.6,7.8,6.6,8.5
								c4.8,13.3,16,21.8,27.3,19.8c13-2.3,21.1-17.9,18-34.8C323.4,807.2,310.4,795.4,297.4,797.7z"/>
							<path d="M305.1,860.5c-10.3,0-20.2-7.9-24.9-20.3c-3.4-1.1-6.1-4.8-6.9-9.4c-1-5.5,1.1-10.5,4.8-12.2
								c2.1-11.8,9.6-20.5,19.2-22.2l0,0c13.7-2.5,27.4,9.8,30.6,27.4c3.2,17.6-5.4,33.9-19.1,36.3
								C307.5,860.4,306.3,860.5,305.1,860.5z M297.7,799L297.7,799c-8.7,1.6-15.4,9.7-17.2,20.8l-0.1,0.8l-0.8,0.2
								c-2.9,0.8-4.5,5-3.7,9.5c0.7,3.8,3,6.9,5.6,7.5l0.7,0.2l0.2,0.7c4.7,12.8,15.5,20.8,25.8,18.9c12.3-2.2,19.9-17.1,17-33.3
								C322.3,808.2,309.9,796.8,297.7,799z"/>
						</g>
					</g>
					<ellipse transform="matrix(0.944 -0.33 0.33 0.944 -250.8963 140.6969)" cx="288.9" cy="809.3" rx="15.1" ry="15.1"/>
				</g>
			</g>
			<g>
				<path d="M348,930.8c2.5-0.1,4.8-0.6,7-1.4l-0.6-1.5c-2.7,1-5.7,1.5-8.9,1.3l-0.1,1.6C346.3,930.8,347.2,930.8,348,930.8z
					 M336.1,928.9l0.5-1.5c-2.7-0.9-5.5-2.2-8.5-3.8l-0.7,1.4C330.4,926.6,333.3,927.9,336.1,928.9z M363,923.9
					c2.3-2.6,3.4-5.7,3.2-9.2l-1.6,0.1l0,0c0.1,3.1-0.8,5.8-2.8,8.1L363,923.9z M319.3,920.1l0.9-1.3c-2.4-1.7-5-3.5-7.5-5.6l-1,1.2
					C314.3,916.5,316.9,918.4,319.3,920.1z M362.1,906.2l1.4-0.7c-1.3-2.5-3-5.2-5.2-8l-1.2,1C359.2,901.1,360.9,903.8,362.1,906.2z
					 M304.5,908.3l1-1.2c-2.2-2-4.5-4.2-6.8-6.4l-1.1,1.1C299.9,904.1,302.2,906.3,304.5,908.3z M291,895.1l1.1-1.1
					c-2.1-2.3-4.3-4.6-6.3-6.9l-1.2,1C286.7,890.5,288.9,892.8,291,895.1z M351,891.4l1.1-1.1c-2-2.2-4.3-4.4-6.8-6.6l-1.1,1.2
					C346.7,887,349,889.2,351,891.4z M337.2,878.7l1-1.2c-4.3-3.6-7.5-5.8-7.5-5.8l-0.9,1.3C329.9,872.9,332.9,875.2,337.2,878.7z
					 M278.5,880.9l1.2-1c-0.7-0.8-1.1-1.3-1.1-1.4l-0.9-0.3l0.5,1.5L278,879l-0.6,0.5C277.4,879.5,277.8,880,278.5,880.9z"/>
			</g>
			<g>
				<path d="M323.9,1239.3c-1.6-2.5-3.2-5.2-4.9-8.1l2.3-1.3c1.6,2.8,3.2,5.5,4.8,8L323.9,1239.3z M314.6,1222.9
					c-1.4-2.7-2.8-5.6-4.2-8.5l2.4-1.1c1.4,2.9,2.8,5.7,4.2,8.4L314.6,1222.9z M306.5,1205.9c-1.2-2.8-2.5-5.7-3.7-8.7l2.4-1
					c1.2,2.9,2.4,5.8,3.7,8.6L306.5,1205.9z M299.3,1188.4c-1.1-2.9-2.2-5.9-3.3-8.8l2.5-0.9c1.1,3,2.1,5.9,3.2,8.8L299.3,1188.4z
					 M293,1170.7c-0.7-2.2-1.5-4.5-2.2-6.8c-0.2-0.7-0.5-1.4-0.7-2.2l2.5-0.8c0.2,0.7,0.4,1.4,0.7,2.1c0.7,2.3,1.5,4.6,2.2,6.8
					L293,1170.7z M287.4,1152.6c-0.8-3-1.6-6-2.4-9.1l2.5-0.6c0.8,3.1,1.5,6.1,2.4,9.1L287.4,1152.6z M282.9,1134.3
					c-0.7-3-1.3-6.1-1.9-9.2l2.6-0.5c0.6,3.1,1.3,6.2,1.9,9.2L282.9,1134.3z M279.3,1115.8c-0.6-3.1-1.1-6.2-1.6-9.3l2.6-0.4
					c0.5,3.1,1,6.1,1.6,9.2L279.3,1115.8z M276.3,1097.2c-0.5-3.2-0.9-6.3-1.3-9.3l2.6-0.3c0.4,3,0.8,6.1,1.3,9.3L276.3,1097.2z
					 M273.8,1078.5c-0.4-3.2-0.7-6.4-1-9.4l2.6-0.3c0.3,3,0.6,6.1,1,9.3L273.8,1078.5z M271.9,1059.8c-0.3-3.4-0.6-6.5-0.8-9.4
					l2.6-0.2c0.2,2.9,0.5,6,0.8,9.4L271.9,1059.8z M270.5,1041c-0.4-5.9-0.5-9.4-0.5-9.5l2.6-0.1c0,0,0.1,3.5,0.5,9.4L270.5,1041z"
					/>
			</g>
			<g>
				<path d="M425.4,995.9l-2.2-1.4c0.1-0.1,6.9-10.5,6.7-27.2c-0.6-59.7-63.6-98.5-64.3-98.9l1.4-2.2c0.6,0.4,64.9,39.9,65.5,101.1
					C432.7,984.7,425.7,995.4,425.4,995.9z"/>
			</g>
		</g>
		<g>
			<g>
				<g>
					<g>
						<path class="st0" d="M23.9,1400.3c-0.7-3.3,0.3-6.7,3.6-6.9l50.6-2.1c1.3-0.5,33.9-4.2,33.9-4.2l26.9-75.3l39.1,25.7
							c0,0-10.9,93.6-45.2,94c-10.8,0.1-57.9,1.5-57.9,1.5c-1.4-7.4,3.4-13.6,10.8-13.9l20.2-0.7l-69,1c-5,0.3-8-5.1-7.5-9.1
							C23.7,1409.8,21.2,1403.5,23.9,1400.3z"/>
						<path d="M73.9,1434.1l0.9,0c0.5,0,47.2-1.4,57.9-1.5c8.2-0.1,15.8-5.2,22.4-15.3c5.2-7.9,10-18.9,14.1-32.6
							c7-23.3,9.7-46.8,9.8-47.1l0.1-0.7l-40.8-26.8l-27.1,76c-8.1,0.9-30.4,3.5-33.2,4.1l-50.5,2.1c-1.5,0.1-2.8,0.7-3.6,1.8
							c-1.1,1.4-1.5,3.5-1.1,5.9c-1.2,1.7-1.3,4.1-0.4,6.4c1,2.5,3.2,4.3,5.8,4.8c0,2.4,1,5,2.7,6.8c1.6,1.7,3.8,2.6,6,2.5l42.3-0.6
							c-1.2,0.7-2.2,1.6-3.1,2.7c-2.3,2.9-3.1,6.7-2.4,10.6L73.9,1434.1z M176.8,1338.1c-1.1,8.4-12.6,92-44,92.4
							c-9.8,0.1-50.2,1.2-57,1.4c-0.4-3,0.4-5.8,2.1-7.9c1.8-2.3,4.6-3.6,7.8-3.8l20.2-0.7l-0.1-2.2l-69,1c-2.1,0.1-3.5-0.9-4.3-1.8
							c-1.5-1.6-2.3-4-2-6.1l0.1-1.1l-1.1-0.1c-2.3-0.2-4.2-1.5-5-3.6c-0.7-1.7-0.6-3.4,0.4-4.6l0.3-0.4l-0.1-0.5
							c-0.4-1.9-0.1-3.6,0.6-4.6c0.5-0.6,1.1-0.9,2-1l50.8-2.1l0.1-0.1c1.4-0.4,20.9-2.7,33.7-4.1l0.7-0.1l26.6-74.6L176.8,1338.1z"
							/>
					</g>
					<g>
						<line class="st0" x1="23.9" y1="1400.3" x2="71.3" y2="1399.8"/>
						
							<rect x="23.9" y="1398.9" transform="matrix(0.9999 -1.050040e-02 1.050040e-02 0.9999 -14.6982 0.5766)" width="47.4" height="2.2"/>
					</g>
					<g>
						<line class="st0" x1="29.3" y1="1410.3" x2="77" y2="1409.8"/>
						
							<rect x="29.3" y="1408.9" transform="matrix(0.9999 -1.049737e-02 1.049737e-02 0.9999 -14.7985 0.6354)" width="47.7" height="2.2"/>
					</g>
				</g>
				<path class="st2" d="M207.2,1359.1c0,0-89.4,42.4-92.3-4.8c55.6-299.2,87.4-489.3,154.3-452.1
					C331.9,937.1,254.8,1053,207.2,1359.1z"/>
			</g>
			<g>
				<rect x="198.4" y="1073.3" transform="matrix(0.2421 -0.9703 0.9703 0.2421 -839.6393 1074.2974)" width="138.9" height="2.6"/>
			</g>
			<g>
				<path d="M287.8,993.6l-2.6-0.1c0-1,0-2.1,0-3.3c0-2,0-4-0.1-6.1l2.6-0.1c0.1,2.1,0.1,4.1,0.1,6.2
					C287.9,991.5,287.9,992.6,287.8,993.6z M284.6,974.9c-0.3-3.2-0.7-6.3-1.1-9.3l2.6-0.4c0.5,3,0.9,6.2,1.1,9.4L284.6,974.9z
					 M281.7,956.5c-0.7-3.1-1.6-6.1-2.5-8.9l2.5-0.8c1,2.9,1.8,6,2.5,9.2L281.7,956.5z M206.2,952.1l-2.5-0.9
					c0.1-0.2,1.4-3.7,3.8-8.8l2.3,1.2C207.5,948.5,206.2,952.1,206.2,952.1z M275.8,939c-1.3-2.9-2.8-5.6-4.5-8l2.2-1.4
					c1.7,2.5,3.3,5.4,4.7,8.4L275.8,939z M214.4,935.4l-2.2-1.4c1.7-2.9,3.6-5.5,5.4-7.9l2.1,1.6C217.8,930.1,216,932.7,214.4,935.4
					z M265.6,923.8c-2.2-2.2-4.5-4.1-7.1-5.7l1.4-2.2c2.7,1.7,5.2,3.7,7.5,6L265.6,923.8z M225.8,921.1l-1.8-1.9
					c2.6-2.3,5.2-4.2,7.9-5.6l1.2,2.3C230.7,917.1,228.2,918.9,225.8,921.1z M250.4,914.4c-2.9-0.9-5.9-1.3-8.7-1l-0.2-2.6
					c3.2-0.3,6.5,0.1,9.8,1.2L250.4,914.4z"/>
			</g>
			<g>
				<path d="M145.3,1362.6l-0.1-2.6c2.8-0.1,5.9-0.3,9.2-0.8l0.3,2.6C151.4,1362.2,148.2,1362.5,145.3,1362.6z M135.7,1361.7
					c-3.4-0.7-6.4-2-9.1-3.8l1.4-2.2c2.4,1.6,5.1,2.7,8.2,3.4L135.7,1361.7z M164.2,1360.1l-0.5-2.6c2.9-0.6,6-1.3,9.1-2.1l0.6,2.5
					C170.2,1358.8,167.1,1359.6,164.2,1360.1z M182.6,1355.6l-0.7-2.5c2.9-0.8,5.9-1.7,9-2.7l0.8,2.5
					C188.6,1353.8,185.5,1354.8,182.6,1355.6z M119.7,1351c-3.1-4.7-3.7-9-3.7-9.2l2.6-0.4c0,0,0.6,4,3.3,8.1L119.7,1351z
					 M200.6,1349.9l-0.9-2.5c4.5-1.6,7.2-2.6,7.2-2.6l0.5,1.2l1.2,0.5C208.3,1347.2,208.3,1347.2,200.6,1349.9z"/>
			</g>
		</g>
	</g>
	<g>
		<g>
			<polygon class="st1" points="677.7,732.4 731.7,702.3 785.7,732.4 			"/>
			<path class="st1" d="M685.4,560c0.7,14,10.6,24.6,22.2,32.1c4.6,3.2,13.9,9.1,15.9,14.5c7.1,0.8,9.5,0.9,16.7,0.2
				c1.5-5.3,11.2-11.5,15.5-14.6c12.2-7.8,22.1-19.3,22.4-34h-92.8L685.4,560z"/>
			<rect x="730.7" y="607" class="st1" width="1.9" height="95.3"/>
			<g>
				<path d="M787.1,733.8H676.2l8.3-78.8c1.4-13.7,11.4-23,22.3-32.1c1.1-0.9,2.2-1.8,3.3-2.7c7.4-6.1,12.3-10.1,12-13.8
					c-0.3-3.3-4.8-7.3-15.1-13.2c-12.9-7.5-21.1-19.2-22.5-32.2l-8.3-78.8h110.9l-8.3,78.8c-1.4,12.9-9.5,24.7-22.5,32.2
					c-10.3,6-14.8,10-15.1,13.2c-0.3,3.6,4.6,7.7,12,13.8c1,0.9,2.1,1.8,3.3,2.7l0,0c10.9,9.1,20.9,18.4,22.3,32.1L787.1,733.8z
					 M679.1,731.1h105.1l-8-75.9c-1.3-12.7-10.9-21.6-21.4-30.3l0,0c-1.1-0.9-2.2-1.8-3.2-2.7c-8.3-6.8-13.3-11-12.9-16
					c0.4-4.4,4.9-8.6,16.4-15.3c12.2-7.1,19.9-18.1,21.2-30.2l8-75.9H679.1l8,75.9c1.3,12.1,9,23.1,21.2,30.2
					c11.4,6.7,16,10.9,16.4,15.3c0.4,5-4.6,9.1-12.9,16c-1,0.9-2.1,1.7-3.2,2.7c-10.5,8.7-20,17.6-21.4,30.3L679.1,731.1z"/>
			</g>
		</g>
		<g>
			<g>
				<path d="M788.4,716.5H674.9c-2.9,0-5.2,2.3-5.2,5.2v13.6h123.9v-13.6C793.6,718.8,791.3,716.5,788.4,716.5z"/>
				<g>
					<rect x="666.4" y="731.5" width="130.2" height="7.5"/>
					<path class="st0" d="M797.2,739.6H665.7v-8.7h131.5V739.6z M667,738.3h129v-6.2H667V738.3z"/>
				</g>
			</g>
		</g>
		<g>
			<g>
				<path d="M788.4,506H674.9c-2.9,0-5.2-2.3-5.2-5.2v-13.6h123.9v13.6C793.6,503.7,791.3,506,788.4,506z"/>
				<g>
					<rect x="666.4" y="482" width="130.2" height="7.5"/>
					<path class="st0" d="M797.2,490H665.7v-8.7h131.5V490z M667,488.8h129v-6.2H667V488.8z"/>
				</g>
			</g>
		</g>
	</g>
	<path class="st4" d="M174.5,1319.3c0,0-76.3,36.2-78.7-4.1c47.4-255.1,74.6-417.3,131.6-385.5
		C280.8,959.5,215.1,1058.3,174.5,1319.3z"/>
</g>
</svg>
