<?xml version="1.0" encoding="utf-8"?>
<!-- Generator: Adobe Illustrator 26.5.0, SVG Export Plug-In . SVG Version: 6.00 Build 0)  -->
<svg version="1.1" xmlns="http://www.w3.org/2000/svg" xmlns:xlink="http://www.w3.org/1999/xlink" x="0px" y="0px"
	 viewBox="0 0 1656.5 1593.2" style="enable-background:new 0 0 1656.5 1593.2;" xml:space="preserve">
<style type="text/css">
	.st0{fill:#FFFFFF;}
	.st1{fill:url(#SVGID_1_);}
	.st2{fill:url(#SVGID_00000034086211208589770180000001310062697378334606_);}
	.st3{fill:url(#SVGID_00000129907562534480365280000018167941287360803775_);}
	.st4{fill:url(#SVGID_00000015323689275990244390000015122468776328628151_);}
	.st5{fill:#C19A51;}
	.st6{opacity:0.5;fill:#D8D8D8;}
	.st7{opacity:0.5;}
	.st8{fill:#D8D8D8;}
	.st9{fill:#F20000;}
</style>
<g id="Bg">
</g>
<g id="Object">
	<g>
		<g>
			<g>
				<rect x="147.4" y="1557" width="1415.2" height="4.3"/>
			</g>
			<g>
				<g>
					<g>
						<g>
							<g>
								<path class="st0" d="M257.4,627.2c-26.4-7.3-41.9-34.6-34.6-61c7.3-26.4,34.6-41.9,61-34.6c26.4,7.3,41.9,34.6,34.6,61
									C311.2,619,283.8,634.5,257.4,627.2z"/>
								<g>
									<path class="st0" d="M221.9,698.7c4.7,1.9,9.6,3.6,14.5,4.9c17.7,4.9,35.7,6,53.7,3.2l-5.5-29.9l3.7-0.7
										c9.6-1.8,19-5,27.7-9.5l3.4-1.8l14.1,27c20.5-11.4,37.3-28,48.9-48.2l-26.8-14.4l1.8-3.4c3.5-6.4,6.2-13.3,8.2-20.4
										c0.7-2.4,1.2-4.8,1.7-7.2l0.7-3.7l29.9,5.9c3.9-23.1,1.4-46.5-7.2-68.3l-28,12l-1.5-3.5c-3.9-9-9.1-17.4-15.4-24.9
										l-2.5-2.9l23.2-19.7c-15.7-17.5-35.7-30.2-58.2-37l-8,29.4l-3.7-1c-9.5-2.6-19.3-3.8-29.1-3.5l-3.8,0.1l-1-30.4
										c-23.3,1.4-45.6,9.1-64.9,22.3l17.9,24.6l-3.1,2.2c-8,5.8-15,12.7-20.9,20.6l-2.3,3l-24.4-18.2
										c-8.5,12.1-14.8,25.4-18.7,39.8c-2.2,8.2-3.7,16.5-4.3,24.9l30.4,1.3l-0.2,3.8c-0.4,9.8,0.6,19.6,3.1,29.1l1,3.7l-29.5,7.7
										c6.6,22.4,19,42.5,36.1,58.3l20-22.9l2.9,2.5c7.4,6.5,15.7,11.7,24.7,15.7l3.5,1.5L221.9,698.7z M251,629.1
										c-25-9.9-39.1-37.4-31.8-63.9c3.8-13.8,12.7-25.2,25.1-32.3c12.4-7,26.8-8.8,40.6-5c13.8,3.8,25.2,12.7,32.3,25.1
										c7,12.4,8.8,26.8,5,40.6c-3.8,13.8-12.7,25.2-25.1,32.3c-12.4,7-26.8,8.8-40.6,5l0,0C254.5,630.4,252.7,629.8,251,629.1z
										 M287.5,536.8c-1.5-0.6-3.1-1.1-4.7-1.6c-11.8-3.3-24.2-1.7-34.8,4.3c-10.6,6-18.3,15.9-21.6,27.7
										c-3.3,11.8-1.7,24.2,4.3,34.8c6,10.6,15.9,18.3,27.7,21.6l0,0c11.8,3.3,24.2,1.7,34.8-4.3c10.6-6,18.3-15.9,21.6-27.7
										C321.1,568.8,309,545.3,287.5,536.8z"/>
									<path d="M270.6,710.4c-11.7,0-23.3-1.6-34.8-4.8c-4.9-1.4-9.9-3-14.7-5c-0.5-0.2-1-0.6-1.2-1.2c-0.2-0.5-0.2-1.1,0-1.7
										l11.5-25.9l-1.5-0.7c-9.2-4.1-17.7-9.5-25.3-16.1l-1.3-1.1l-18.6,21.3c-0.4,0.4-0.9,0.7-1.5,0.7c-0.6,0-1.1-0.2-1.6-0.6
										c-17.4-16.1-30.1-36.6-36.7-59.3c-0.2-0.6-0.1-1.1,0.2-1.7c0.3-0.5,0.8-0.9,1.3-1l27.4-7.2l-0.4-1.6
										c-2.6-9.7-3.6-19.7-3.2-29.8l0.1-1.7l-28.3-1.3c-0.6,0-1.1-0.3-1.5-0.7c-0.4-0.4-0.6-1-0.5-1.6c0.6-8.5,2.1-17,4.4-25.3
										c4-14.6,10.4-28.2,19-40.4c0.3-0.5,0.8-0.8,1.4-0.9c0.6-0.1,1.2,0.1,1.6,0.4l22.7,16.9l1-1.3c6-8,13.2-15.1,21.3-21l1.3-1
										l-16.7-22.9c-0.3-0.5-0.5-1-0.4-1.6c0.1-0.6,0.4-1.1,0.9-1.4c19.6-13.4,42.4-21.3,66-22.7c0.6,0,1.1,0.2,1.6,0.6
										c0.4,0.4,0.7,0.9,0.7,1.5l0.9,28.3l1.7-0.1c10-0.3,20,0.9,29.7,3.5l1.6,0.4l7.4-27.3c0.2-0.6,0.5-1,1-1.3
										c0.5-0.3,1.1-0.3,1.7-0.2c22.8,6.9,43.3,20,59.1,37.7c0.4,0.4,0.6,1,0.5,1.6c0,0.6-0.3,1.1-0.8,1.5l-21.6,18.3l1.1,1.3
										c6.5,7.7,11.8,16.2,15.7,25.5l0.7,1.5l26-11.2c0.5-0.2,1.1-0.2,1.7,0c0.5,0.2,1,0.7,1.2,1.2c8.7,22.1,11.2,46.1,7.3,69.4
										c-0.1,0.6-0.4,1.1-0.9,1.4c-0.5,0.3-1.1,0.4-1.6,0.3l-27.8-5.5l-0.3,1.6c-0.5,2.5-1.1,4.9-1.7,7.4
										c-2,7.2-4.8,14.2-8.3,20.8l-0.8,1.5l25,13.4c0.5,0.3,0.9,0.7,1,1.3c0.2,0.6,0.1,1.1-0.2,1.6c-11.8,20.5-29,37.4-49.7,49
										c-0.5,0.3-1.1,0.3-1.7,0.2c-0.6-0.2-1-0.5-1.3-1.1l-13.1-25.1l-1.5,0.8c-8.9,4.7-18.5,7.9-28.3,9.7l-1.6,0.3l5.1,27.8
										c0.1,0.6,0,1.2-0.4,1.6c-0.3,0.5-0.8,0.8-1.4,0.9C283.8,709.9,277.2,710.4,270.6,710.4z M224.7,697.5c4,1.6,8.1,2.9,12.2,4
										c16.7,4.6,33.7,5.8,50.6,3.5l-5.1-27.8c-0.1-0.6,0-1.1,0.3-1.6c0.3-0.5,0.8-0.8,1.4-0.9l3.7-0.7c9.4-1.7,18.6-4.9,27.1-9.3
										l3.4-1.8c0.5-0.3,1.1-0.3,1.6-0.1c0.5,0.2,1,0.5,1.3,1.1l13,25c18.6-10.8,34.1-26.1,45-44.4l-24.9-13.3
										c-0.5-0.3-0.9-0.7-1-1.3c-0.2-0.5-0.1-1.1,0.2-1.6l1.8-3.4c3.4-6.3,6.1-13,8-20c0.6-2.3,1.2-4.7,1.7-7.1l0.7-3.7
										c0.2-1.2,1.3-1.9,2.5-1.7L396,598c3.2-21.2,0.9-42.9-6.6-62.9l-26,11.1c-1.1,0.5-2.3,0-2.8-1.1l-1.5-3.5
										c-3.8-8.8-8.9-17.1-15.1-24.4l-2.5-2.9c-0.4-0.4-0.5-1-0.5-1.6c0-0.6,0.3-1.1,0.7-1.5l21.5-18.2
										c-14.7-15.8-33.1-27.5-53.6-34.1l-7.4,27.2c-0.1,0.5-0.5,1-1,1.3c-0.5,0.3-1.1,0.4-1.6,0.2l-3.7-1
										c-9.3-2.6-18.9-3.7-28.5-3.4l-3.8,0.1c-0.6,0-1.1-0.2-1.5-0.6c-0.4-0.4-0.7-0.9-0.7-1.5l-0.9-28.2
										c-21.3,1.7-41.9,8.8-59.8,20.6l16.6,22.8c0.7,1,0.5,2.3-0.5,3l-3.1,2.2c-7.8,5.7-14.7,12.5-20.4,20.1l-2.3,3
										c-0.7,0.9-2,1.1-3,0.4l-22.6-16.9c-7.7,11.4-13.5,23.9-17.2,37.3c-2,7.3-3.4,14.8-4.1,22.3l28.2,1.2c0.6,0,1.1,0.3,1.5,0.7
										c0.4,0.4,0.6,1,0.6,1.5l-0.2,3.8c-0.4,9.6,0.6,19.2,3,28.5l1,3.7c0.1,0.5,0.1,1.1-0.2,1.6c-0.3,0.5-0.8,0.8-1.3,1
										l-27.3,7.2c6.4,20.4,17.9,38.9,33.3,53.7l18.6-21.3c0.8-0.9,2.1-1,3-0.2l2.9,2.5c7.2,6.3,15.4,11.5,24.2,15.4l3.5,1.5
										c0.5,0.2,0.9,0.7,1.1,1.2c0.2,0.5,0.2,1.1,0,1.6L224.7,697.5z M270.7,635c-5,0-10-0.7-14.9-2c-1.9-0.5-3.8-1.2-5.7-1.9
										c0,0,0,0,0,0c-26.4-10.4-40.7-39-33.1-66.4c3.9-14.3,13.2-26.2,26.1-33.5c12.9-7.3,27.9-9.2,42.2-5.2
										c14.3,3.9,26.2,13.2,33.5,26.1c7.3,12.9,9.2,27.9,5.2,42.2c-3.9,14.3-13.2,26.2-26.1,33.5C289.6,632.5,280.2,635,270.7,635
										z M251.7,627.1c1.7,0.7,3.5,1.3,5.2,1.8c13.2,3.6,27,1.9,39-4.8c11.9-6.8,20.5-17.8,24.1-31c3.6-13.2,1.9-27-4.8-39
										c-6.8-11.9-17.8-20.5-31-24.1c-13.2-3.6-27-1.9-39,4.8c-11.9,6.8-20.5,17.8-24.1,31C214.2,591.1,227.3,617.4,251.7,627.1
										L251.7,627.1z M270.7,627.4c-4.3,0-8.6-0.6-12.8-1.7c-12.3-3.4-22.6-11.4-29-22.6c-6.3-11.1-7.9-24.1-4.5-36.4
										c3.4-12.3,11.4-22.6,22.6-28.9c11.1-6.3,24.1-7.9,36.4-4.5c1.7,0.5,3.3,1,4.9,1.6h0c22.8,9,35.1,33.7,28.6,57.3
										c-3.4,12.3-11.4,22.6-22.6,28.9C287,625.2,278.9,627.4,270.7,627.4z M270.6,535.7c-7.5,0-14.8,1.9-21.5,5.7
										c-10.1,5.8-17.4,15.1-20.6,26.4c-3.1,11.2-1.6,23,4.1,33.2c5.8,10.2,15.1,17.4,26.4,20.5c11.2,3.1,23,1.6,33.2-4.1
										c10.1-5.8,17.4-15.1,20.6-26.4c6-21.6-5.2-44-26-52.2c-1.4-0.6-3-1.1-4.5-1.5C278.4,536.2,274.5,535.7,270.6,535.7z"/>
								</g>
							</g>
						</g>
						<g class="st7">
							<path class="st8" d="M864.8,549.1c16.6-27.9,28-58.3,33.9-90.5l0.1-0.4l-40.1-7.2c3.7-20.8,4.5-41.5,2.7-61.6l40.6-3.7
								c-3-32.4-11.7-63.7-25.9-93.1l-36.7,17.8c-9-18.6-20.5-35.9-34.1-51.4l30.7-26.8c-21.5-24.6-47-44.8-75.6-60.2l-19.2,35.9
								c-17.8-9.6-37.2-16.9-57.8-21.5l9-39.7c-3.8-0.9-7.7-1.7-11.6-2.4c-28.2-5.1-56.7-5.7-84.9-1.9l5.5,40.4
								c-20.7,2.8-40.6,8.4-59.4,16.5l-16.1-37.4c-29.9,12.9-57,30.8-80.5,53.3l28.2,29.4c-14.8,14.2-27.8,30.4-38.4,48.3l-35-20.9
								c-16.6,27.8-27.9,58.2-33.8,90.3l0,0.2l40.1,7.3c-3.8,20.8-4.6,41.5-2.8,61.6l-40.6,3.7c2.9,32.4,11.6,63.7,25.8,93.1
								l36.7-17.7c9,18.6,20.5,35.9,34,51.4l-30.7,26.8c21.5,24.6,46.9,44.9,75.6,60.2l19.3-35.9c17.8,9.6,37.2,16.9,57.8,21.6
								l-9,39.7c3.9,0.9,7.8,1.7,11.8,2.4c28.1,5.1,56.6,5.7,84.7,1.9l-5.5-40.4c20.7-2.8,40.6-8.4,59.4-16.5l16.1,37.4
								c29.9-12.8,57-30.7,80.5-53.2l-28.1-29.5c14.8-14.2,27.8-30.3,38.5-48.2L864.8,549.1z M612.6,520.2
								c-60.7-11-100.9-69.1-90-129.8c11-60.7,69.1-100.9,129.8-90c60.7,11,100.9,69.1,90,129.8
								C731.3,490.9,673.2,531.2,612.6,520.2z"/>
							<g>
								<path class="st8" d="M602.1,578.1c-44.8-8.1-83.8-33.2-109.7-70.6c-25.9-37.4-35.8-82.7-27.7-127.5
									c8.1-44.8,33.2-83.8,70.6-109.7c37.4-25.9,82.7-35.8,127.5-27.7c44.8,8.1,83.8,33.2,109.7,70.6
									c25.9,37.4,35.8,82.7,27.7,127.5c-8.1,44.8-33.2,83.8-70.6,109.7C692.2,576.4,646.9,586.2,602.1,578.1z M662.4,244.9
									c-44.2-8-88.8,1.7-125.7,27.3c-36.9,25.6-61.6,64-69.6,108.2c-8,44.2,1.7,88.8,27.3,125.7c25.6,36.9,64,61.6,108.2,69.6
									c44.2,8,88.8-1.7,125.7-27.3c36.9-25.6,61.6-64,69.6-108.2c8-44.2-1.7-88.8-27.3-125.7C745,277.7,706.6,252.9,662.4,244.9z"
									/>
							</g>
						</g>
					</g>
				</g>
			</g>
			<g>
				<g>
					<g>
						<g>
							<g>
								<path class="st0" d="M1227.2,412.7l-6.4-149.2c0,0-53.9-11.2-128.6-7.9c-33.5,1.5-130.1-6-210.8-7.8
									c-86.8-1.9-95.8,0.1-106.4,9.1c-13.7,11.5-4.4,31.3,103.3,34.9c-64.8-1.3-110.5-10.1-113.2,9.4
									c-3.8,27.5,18.2,28,100.6,37.5C803.3,336.3,765,321,765,345.5c0,20.3,3.9,19.6,97.4,33.3c-94.8-12-89.7,3.6-89.9,19.1
									c-0.3,14.1,17,10.4,99.7,20.2c13.5,1.6,27.1,2.6,70.1,3.8c-0.1,0-92.8,12.7-89.6,36.6c3.3,25.2,181.4-18.2,233.9-34.7
									C1183.2,424.8,1231.8,422.7,1227.2,412.7z"/>
								<path d="M876.5,468.2c-10.2,0-17.9-1.1-22-3.8c-2.3-1.5-3.6-3.4-4-5.7c-0.4-3.3,0.6-6.5,3-9.6
									c10.1-12.8,44.4-21.4,67.2-25.9c-26-0.9-37.4-1.8-48.8-3.1c-22.5-2.6-39.9-4.3-53.9-5.6c-37.8-3.6-48-4.5-47.8-16.7
									c0-0.8,0-1.6,0-2.3c0-5.4,0-11.5,5.1-16c5.4-4.8,16.1-6.7,29.5-7.1c-39.2-6.5-42.1-10.4-42.1-26.9c0-5,1.4-8.7,4.4-11.3
									c3.8-3.4,9.8-4.6,17.9-4.6c0.1,0,0.2,0,0.4,0c-9.5-2.5-15.6-5.7-19.2-10.4c-3.5-4.5-4.6-10.3-3.4-18.4
									c1.7-12.1,16.8-14.6,41-14.3c-20.8-4.3-32.8-10.4-35.4-18c-1.6-4.5,0.2-9.2,5.1-13.3c10.7-9,17.8-11.6,107.9-9.6
									c37.2,0.8,77.9,2.8,113.8,4.6c42.3,2.1,78.9,3.9,96.9,3.1c74.1-3.2,128.6,7.8,129.1,8c1,0.2,1.7,1,1.7,2l6.4,148.8
									c0.5,1.5,0.4,3-0.4,4.3c-5.2,8-42.3,10.4-142.1,9.3C1046.8,438.4,928.8,468.2,876.5,468.2z M808.7,376.7
									c-15.9,0-25.9,2-30.4,6c-3.7,3.2-3.7,7.7-3.7,12.8c0,0.8,0,1.6,0,2.4c-0.1,8,6.8,8.9,43.9,12.4c14,1.3,31.5,3,54,5.6
									c14,1.6,28,2.6,69.9,3.8c1.1,0,2,0.9,2.1,2c0,1.1-0.8,2.1-1.9,2.2c-23.5,3.1-90.1,16.1-87.8,34.2c0.1,1,0.8,1.9,2,2.7
									c22.6,14.4,179.1-23.4,229.1-39.1c0.2-0.1,0.4-0.1,0.7-0.1c39.8,0.4,133,1.5,138.8-7.4c0.1-0.1,0.1-0.2,0-0.6
									c-0.1-0.3-0.2-0.5-0.2-0.8l-6.3-147.5c-9.5-1.8-60-10.5-126.4-7.6c-18.2,0.8-54.8-1-97.3-3.2c-35.9-1.8-76.6-3.8-113.7-4.6
									c-88.5-1.9-95.3,0.4-105,8.6c-2.4,2-5,5.2-3.8,8.7c2,5.8,16.3,19.5,105.8,22.5c1.2,0,2.1,1,2.1,2.2c0,1.2-1,2.1-2.2,2.1
									c-16.1-0.3-31.1-1.1-44.4-1.8c-37.7-2-65-3.4-66.7,9.3c-1,6.9-0.2,11.6,2.6,15.2c7.6,9.8,31.8,12.6,80,18.1
									c5.1,0.6,10.5,1.2,16.1,1.8c1.1,0.1,2,1.1,1.9,2.3c-0.1,1.1-1.1,2-2.2,2c-19.2-0.7-36.5-2.8-50.3-4.4
									c-22.6-2.6-39-4.5-45.1,0.9c-2,1.8-2.9,4.4-2.9,8.1c0,16.6,0,17.3,79.9,28.9l15.6,2.3c1.2,0.2,2,1.2,1.8,2.4
									c-0.2,1.2-1.2,2-2.4,1.8C839.8,378.1,822.1,376.7,808.7,376.7z"/>
							</g>
							<g>
								<path class="st0" d="M1219.1,968c65.6-24.4,412.2-199.8,379-498.9c-26.8-241.5-479.3-216.2-479.3-216.2
									c-66.8,20.9-66.8,163.8,0,198.7c0,0,194.5-6.6,212.5,59.4c27,99.3-73,153.4-127.1,179.4C1126.2,727.9,1149.2,994,1219.1,968
									z"/>
								<path d="M1209.7,971.9c-14.7,0-28-12.5-38.2-36.4c-30.1-70.6-25.8-219.3,31.7-247c66.1-31.8,151-84.8,126-177
									c-17.3-63.6-208.4-57.9-210.4-57.8l-0.6,0l-0.5-0.3c-17.9-9.4-32.2-26.8-41.2-50.3c-8.2-21.4-11.5-46.4-9.4-70.6
									c3.8-42.3,22.8-72.9,50.9-81.7l0.5-0.1c1.1-0.1,114.7-6.1,230.2,17.6c67.9,13.9,123.2,35.2,164.3,63.3
									c51.6,35.3,80.9,81.4,87.1,137.2c7.7,69.3-4.5,137.2-36.2,201.9c-26.1,53.3-65.4,104.5-116.9,152.4
									c-91.8,85.3-195.1,134.9-227.2,146.9l0,0C1216.4,971.3,1213,971.9,1209.7,971.9z M1134.9,449.2c47.7,0,183.1,5,198.4,61.2
									c11.9,43.9,0.6,84-33.6,119.2c-27.8,28.6-65.1,48.5-94.6,62.7c-24.7,11.9-41.6,50.1-46.3,104.8
									c-4.3,49.2,2.3,102.8,16.7,136.7c14.6,34.4,31.4,36.5,42.9,32.2c31.9-11.8,134.5-61.2,225.8-146
									c51.1-47.5,90.1-98.3,116-151.1c31.3-64,43.4-131.1,35.8-199.5c-6-54.4-34.7-99.5-85.2-134.1
									c-40.6-27.8-95.4-48.9-162.7-62.7c-112.2-23-222.7-17.8-228.9-17.5c-26.3,8.4-44.1,37.4-47.7,77.9
									c-5.3,59.7,20.9,102.1,47.8,116.5C1121.2,449.4,1126.8,449.2,1134.9,449.2z"/>
							</g>
							<g>
								<path d="M1152.8,452.2c-0.1-0.1-2.5-3-6.1-8.1l3.5-2.4c3.4,5,5.8,7.8,5.8,7.8L1152.8,452.2z M1141.3,435.7
									c-1.7-2.8-3.4-5.7-5-8.7l3.7-2c1.6,2.9,3.2,5.7,4.9,8.5L1141.3,435.7z M1131.7,418.1c-1.4-3-2.8-6.1-4.1-9.1l3.9-1.6
									c1.2,3,2.6,6,4,8.9L1131.7,418.1z M1124,399.6c-1.1-3.2-2.1-6.4-3-9.6l4.1-1.2c0.9,3.1,1.9,6.2,2.9,9.3L1124,399.6z
									 M1118.6,380.3c-0.7-3.3-1.3-6.6-1.8-9.9l4.2-0.6c0.5,3.2,1,6.4,1.7,9.6L1118.6,380.3z M1115.7,360.4c-0.2-3-0.3-6-0.3-9
									l0-1.1l4.3,0l0,1c0,2.9,0.1,5.8,0.3,8.7L1115.7,360.4z M1120.2,340.6l-4.3-0.4c0.3-3.3,0.7-6.7,1.3-10l4.2,0.7
									C1120.9,334.2,1120.4,337.4,1120.2,340.6z M1123.5,321.5l-4.1-1.1c0.8-3.2,1.8-6.5,2.9-9.6l4,1.4
									C1125.2,315.3,1124.3,318.4,1123.5,321.5z M1129.9,303.2l-3.9-1.7c1.3-3,2.8-6.1,4.4-9l3.8,2
									C1132.7,297.3,1131.2,300.2,1129.9,303.2z M1139.2,286l-3.6-2.3c1.8-2.8,3.7-5.6,5.7-8.3l3.4,2.5
									C1142.7,280.6,1140.9,283.3,1139.2,286z M1150.8,270.3l-3.3-2.8l0.8-0.9l3.2,2.8L1150.8,270.3z"/>
							</g>
						</g>
						<g>
							<g>
								<g>
									<g>
										<g>
											<path class="st0" d="M926,728.6c0.7,0,60.9-19.6,70.3-31.5l13.8-25.3c6.7,21.9,25.5,68.8,35.1,88.8
												c7.4,15.4-35.8,95.3-35.8,95.3s-48.4-17.5-52.1-38.1C954.7,803.5,931.4,745,926,728.6z"/>
											<path d="M1010.4,858.6l-1.7-0.6c-2-0.7-49.6-18.2-53.4-39.8c-1.6-9.2-12.3-37.6-20.9-60.5c-4.6-12.2-8.5-22.7-10.4-28.4
												l-0.9-2.7l2.6-0.1c4.3-1.2,59.9-19.7,68.8-30.6l16.2-29.6l1.5,4.8c6.9,22.2,25.8,69.5,35,88.5
												c7.7,15.9-31.4,89-35.9,97.3L1010.4,858.6z M928.7,730c2,5.9,5.6,15.4,9.6,26.2c8.6,23,19.4,51.7,21.1,61.2
												c3,17.1,40.4,32.5,49,35.8c2.8-5.2,11.6-22.1,19.7-40.1c16.8-37.3,16.7-48.4,15.1-51.6c-8.8-18.3-25.8-60.3-33.7-84.4
												l-11.6,21.3c-4.2,5.3-17.4,12.3-39.3,20.9C947.4,723.7,934.3,728.3,928.7,730z"/>
										</g>
										<g>
											<g>
												<g>
													<g>
														<g>
															<path d="M890.8,660c20.9,43.6,44.2,107.7,105.5,44.9c25.8-26.5,31.3-59.4,15.3-103c-16.7-45.4-107.7-52.5-141-36.5
																C837.2,581.6,869.9,616.5,890.8,660z"/>
															<g>
																<path class="st0" d="M875.5,615.2c13.5,15.5,12.4-3.5,31.7,9.4c12.9,8.6,11.8,32,12.9,31
																	c28.5-28.7,37.2,8.6,19.1,34.9c-0.1,0.2-19.2,89.7-37.5,60c-15.6-25.3-45.2-50.2-27.7-87.8c4-8.7-3.4-18.2-5.3-26.5
																	C866.5,626.9,871.6,620.9,875.5,615.2z"/>
																<path d="M909.5,758.6c-3.5,0-6.7-2.4-9.6-7.1c-3.1-5-6.7-10-10.6-15.3c-14.9-20.4-31.7-43.5-17.3-74.6
																	c2.4-5.2,0-10.8-2.5-16.8c-1.1-2.7-2.3-5.6-3-8.3c-2.2-9.2,2.2-15.5,6-21c0.4-0.5,0.7-1,1.1-1.5l1.6-2.3l1.8,2.1
																	c5.9,6.8,8,6.1,11.5,5c3.9-1.2,9.3-2.9,19.7,4c10.1,6.7,12.2,21.3,13.1,28.5c12.6-11.3,20.1-8.6,23.5-5.8
																	c9.2,7.6,7.4,29.3-3.7,45.8c0,0.1,0,0.2-0.1,0.4c-5.5,24-16.7,64.6-30.3,66.8C910.4,758.5,910,758.6,909.5,758.6z
																	 M875.7,618.6c-3.5,5-6.6,9.9-5,17c0.6,2.4,1.6,4.9,2.8,7.6c2.6,6.3,5.6,13.4,2.4,20.3c-13.4,28.8,2,49.9,16.8,70.3
																	c3.9,5.3,7.6,10.4,10.8,15.5c2.3,3.7,4.5,5.3,6.6,5c7.8-1.3,18.3-26.2,26.8-63.6c0.2-1,0.3-1.1,0.5-1.5
																	c10.7-15.7,11.4-34.9,4.8-40.4c-4.3-3.6-11.9-0.6-20.6,8.2l-0.9,1l-1.4-0.4c-1.5-0.5-1.6-1.7-2-4.7
																	c-0.7-6.1-2.4-20.5-11.3-26.5c-8.7-5.8-12.4-4.6-16.1-3.5C885.3,624.3,881.8,624.7,875.7,618.6z"/>
															</g>
														</g>
													</g>
												</g>
											</g>
										</g>
										<path d="M872.8,711.4c19-6.7,29.6-7.8,36.1-15.9c6.5-8.1,9.9-47.7,9.9-47.7h12c3.8,39.9,12.5,65.7,28,72.3
											c0,0-20.6,52.2-62,52C864.1,771.9,870.1,748.2,872.8,711.4z"/>
									</g>
									<g>
										<path class="st0" d="M943.7,811.1v-27.4c0,0,11-52.5,89.7-58.3l26.6,35.4L943.7,811.1z"/>
										<path d="M941.6,814.3l0-31.1c0.1-0.6,3-13.9,15.9-28c11.7-12.9,34.4-29,75.7-32l1.2-0.1l28.9,38.5L941.6,814.3z
											 M945.8,783.9v23.9l110.7-48l-24.2-32.3C959.6,733.4,946.7,780.5,945.8,783.9z"/>
									</g>
								</g>
								<g>
									<g>
										<path class="st0" d="M1204.1,690.4c-145.9,56.5-419.2,164.6-470,234.8c0,0,145.2,261.6-64.3,629.7l518.7,4.4
											C1517.5,976.9,1272.3,719.3,1204.1,690.4z"/>
										<path d="M1189.7,1561.3l-1.3,0l-522.3-4.4l1.8-3.2c47.7-83.8,80.7-168.9,98.2-253c14-67.3,18.1-134.1,12.3-198.6
											c-9.9-109.7-45.8-175.3-46.1-176l-0.7-1.2l0.8-1.1c48-66.3,291.8-166.1,471-235.5l0.8-0.3l0.8,0.3
											c32.3,13.7,92.8,70.5,127,171.1c43.6,128.2,54.4,353.8-141.6,700.7L1189.7,1561.3z M673.4,1552.7l513.8,4.3
											c194.6-344.9,183.9-568.9,140.7-696.1c-37.3-109.7-101.2-158.2-123.8-168.2c-113.9,44.1-412.6,159.8-467.4,232.6
											c5,9.5,36.7,74.1,46,176.4c5.9,64.9,1.7,132.1-12.3,199.8C752.9,1385.1,720.3,1469.6,673.4,1552.7z"/>
									</g>
								</g>
							</g>
						</g>
						<g>
							<g>
								<path class="st0" d="M440.4,904.9c0,0,5.1-90.8-31.3-169.4c-48.2-103.9-169.7-80.6-263-97.6c-61.2-11.1-75.6,16.5-23.4,31.5
									c23.1,6.7,36.8,8.4,73.2,18.1c-100.7-17-125.5-19-131-8.1c-9.7,19.2,8.1,35.5,133.9,46.6C63,713.6,58,725.5,56.3,734.7
									c-1,5.5,14.8,22.6,136.6,23.9c-15.7-1.5-113.9-0.2-111.1,21.6c3.6,27.6,99.1-5.8,147.3,5.3c60,13.7,42.2,139.6,42.2,139.6
									L440.4,904.9z"/>
								<path d="M271.4,927.3c-0.6,0-1.1-0.2-1.5-0.6c-0.5-0.5-0.7-1.1-0.6-1.8c0-0.3,4.4-31.7,1.4-64.2c-4.9-53.5-25.6-69.3-42-73
									c-20.7-4.7-51.1-1-78,2.2c-36.9,4.5-68.7,8.4-71-9.3c-0.4-3,0.6-5.7,3-8.2c7.4-7.6,28-11.8,49.5-14.1
									c-34.6-2.7-67.6-8-76.3-18.7c-1.8-2.2-2-4.1-1.7-5.3c1.8-9.6,9.4-17.3,68.2-15.5c-44.5-7.9-56-16.7-60.1-24.1
									c-2.7-4.8-2.5-10.1,0.6-16.2c5-9.9,22.2-10.5,78-2c-6-1.4-12-3-18.9-4.9c-22.7-6.6-35.5-16.4-33.3-25.8
									c2.3-9.7,21-16.5,57.7-9.9c22.4,4.1,47.1,5.9,70.9,7.6c77,5.6,156.5,11.3,193.6,91.2c36.3,78.2,31.6,169.5,31.5,170.4
									c-0.1,1-0.8,1.9-1.9,2l-169.1,20.2C271.6,927.3,271.5,927.3,271.4,927.3z M204.5,781.1c9.1,0,17.7,0.7,25.1,2.4
									c25.5,5.8,41.2,32.4,45.3,76.8c2.5,27.4-0.1,54-1.1,62.4L438.4,903c0.5-13.1,1.8-95.4-31.2-166.6
									c-36-77.6-114.3-83.3-190-88.8c-24-1.7-48.7-3.5-71.4-7.6c-35.8-6.5-51.4,0.6-52.8,6.6c-1.3,5.6,7.6,14.2,30.3,20.7
									c11.4,3.3,20.6,5.4,31.3,7.8c11,2.5,23.5,5.4,41.9,10.3c1.1,0.3,1.8,1.4,1.5,2.5c-0.2,1.1-1.3,1.8-2.4,1.7
									c-98.8-16.7-124-18.5-128.7-9.3c-2.4,4.8-2.6,8.7-0.7,12.2c7.6,13.7,47.8,23.5,126.3,30.7c2.2,0.2,4.4,0.4,6.6,0.6
									c1.2,0.1,2,1.1,1.9,2.3c-0.1,1.2-1.1,2-2.3,1.9c-2.1-0.2-4.2-0.4-6.2-0.6C62,716,59.7,728.4,58.4,735
									c-0.1,0.3,0.1,1,0.8,1.8c3.3,4,21,16.6,113.4,19.2c9.9-0.1,17.4,0.1,20.4,0.4c1.1,0.1,2,1.1,1.9,2.2c-0.1,1.1-1,2-2.1,2
									c0,0,0,0,0,0c-6.2-0.1-13.1-0.2-20.3-0.4c-28.6,0.4-75.8,3.7-86.7,15c-1.5,1.5-2.1,3-1.9,4.7c1.7,13.5,33.1,9.6,66.2,5.6
									C168,783.4,187.3,781.1,204.5,781.1z M440.4,904.9L440.4,904.9L440.4,904.9z"/>
							</g>
							<g>
								<path class="st0" d="M868.4,1083.5c-11.4,69-132.2,270.9-370.9,233.9c-276.3-42.8-228.7-430.6-228.7-430.6
									s72.1-89.6,172.3-9.3c0,0-11.2,208.8,124,206.2c65.7-1.3,126.9-170.4,237.4-210.5C863.7,850.9,879.8,1014.5,868.4,1083.5z"
									/>
								<path d="M554.2,1324c-18.1,0-37.1-1.4-57-4.5c-63.6-9.8-115.3-38.8-153.6-86.1c-30.6-37.7-52.9-87.2-66.1-146.9
									c-22.5-101.5-10.9-199-10.8-200l0.1-0.6l0.4-0.5c0.8-0.9,18.7-23,49.4-35.4c28.4-11.5,73.3-16.3,125.8,25.8l0.9,0.7
									l-0.1,1.1c0,0.3-1.5,30.1,3.7,66.4c4.8,33.4,16.4,79.3,44.5,108.4c19.3,19.9,44,29.8,73.6,29.2
									c30.2-0.6,60.1-38.7,94.8-82.8c39.1-49.8,83.4-106.3,141.9-127.5c11.6-4.2,22.4-2.4,31.9,5.5c38.2,31.7,45.8,153.8,37,207.1
									l-2.1-0.3l2.1,0.3c-5.3,32.3-36.6,101-100.9,157.9C725.2,1281.2,653.9,1324,554.2,1324z M270.9,887.7
									c-0.9,8.5-10.6,101.5,10.8,198c13.1,59,35,107.9,65.3,145.1c37.7,46.4,88.5,74.8,150.9,84.5c128.3,19.9,217.1-30.8,269-76.7
									c63.5-56.3,94.3-123.8,99.5-155.4l0,0c4.8-29.2,4.4-73-0.9-111.6c-6.4-45.8-18.7-78.4-34.6-91.6c-8.4-6.9-17.4-8.5-27.7-4.8
									c-57.4,20.9-101.3,76.8-140,126.2c-35.3,45-65.8,83.9-98,84.5c-30.8,0.6-56.7-9.7-76.8-30.5
									c-28.9-29.9-40.8-76.8-45.7-110.8c-4.7-32.8-4-60.3-3.8-66.1c-40.6-32.2-81.2-40.4-120.7-24.5
									C290.9,865.1,273.6,884.5,270.9,887.7z"/>
							</g>
							<g>
								<g>
									<path d="M269.4,914.7l-3.2-2.8c0.1-0.1,2.6-3,7.2-7.2l2.9,3.2C271.8,911.9,269.4,914.7,269.4,914.7z M436.6,904.7
										c-2.7-2-5.4-3.8-8-5.6l2.3-3.6c2.7,1.8,5.5,3.7,8.2,5.7L436.6,904.7z M283.7,901.6l-2.6-3.4c2.6-2.1,5.4-4,8.2-5.9l2.4,3.5
										C288.9,897.7,286.2,899.6,283.7,901.6z M420.2,893.9c-2.8-1.7-5.7-3.2-8.6-4.7l1.9-3.8c2.9,1.5,5.9,3.1,8.8,4.8
										L420.2,893.9z M299.9,890.8l-2.1-3.7c2.9-1.7,5.9-3.2,8.9-4.6l1.8,3.9C305.6,887.7,302.7,889.2,299.9,890.8z M402.8,885.2
										c-3-1.3-6.1-2.4-9.1-3.5l1.4-4c3.1,1.1,6.3,2.3,9.4,3.6L402.8,885.2z M317.5,882.5l-1.5-4c3.2-1.2,6.4-2.2,9.6-3.1l1.2,4.1
										C323.7,880.3,320.5,881.4,317.5,882.5z M384.3,878.9c-3.2-0.8-6.4-1.5-9.5-2l0.7-4.2c3.3,0.6,6.6,1.3,9.9,2.1L384.3,878.9z
										 M336.2,877.2l-0.8-4.2c3.3-0.6,6.7-1.1,10-1.4l0.4,4.2C342.6,876.2,339.4,876.6,336.2,877.2z M365.2,875.7
										c-2.9-0.2-5.9-0.4-8.8-0.4l-0.9,0l0-4.3l0.9,0c3,0,6.1,0.1,9.1,0.4L365.2,875.7z"/>
								</g>
							</g>
							<g>
								<path class="st0" d="M416.7,753.6c0,0-35-102.4-143.1-145.4c-93.5-37.2-94,1.5-77,10.7c17,9.2,63.7,10.7,78.5,41.1"/>
								<path d="M416.7,755.8c-0.9,0-1.7-0.6-2-1.4c-0.1-0.3-9-25.8-30.8-56.2c-20.1-28-55.8-66-111-87.9
									c-68.7-27.3-80.2-11.5-81.8-8.1c-2.3,4.9,0.8,11.8,6.7,15c4.8,2.6,12.2,4.6,20.8,6.9c21.2,5.7,47.7,12.8,58.5,35.1
									c0.5,1.1,0.1,2.3-1,2.9c-1.1,0.5-2.3,0.1-2.9-1c-10-20.5-35.4-27.3-55.8-32.8c-8.9-2.4-16.5-4.4-21.8-7.3
									c-8-4.3-11.8-13.5-8.5-20.5c3.4-7.3,18.7-21.3,87.3,5.9c56.3,22.4,92.5,61,113,89.5c22.2,30.9,31.2,56.9,31.3,57.1
									c0.4,1.1-0.2,2.3-1.3,2.7C417.2,755.7,417,755.8,416.7,755.8z"/>
							</g>
						</g>
					</g>
				</g>
				<path class="st6" d="M864.3,1124.8c210.2-66.9-65.1,434.4-65.1,434.4h-196c0,0,103.2-124.1,131.4-289.7
					C748.9,1185.3,864.3,1124.8,864.3,1124.8z"/>
			</g>
			<path class="st6" d="M1300.5,428.8c53.3-15.1,131.2,157.4,64.4,157.2C1298.1,585.7,1247.1,443.8,1300.5,428.8z"/>
		</g>
		<g>
			<g id="Groupe_4664" transform="translate(1.266 43.641)">
				<g id="Groupe_4663" transform="translate(0)">
					<circle id="Ellipse_146" class="st9" cx="279.8" cy="288.2" r="32.8"/>
				</g>
			</g>
			<g id="Groupe_4665" transform="translate(0 0)">
				<path id="Tracé_6185" class="st9" d="M281.1,268.4L281.1,268.4c-14.3,0-26.1-11.2-26.7-25.5l-8-174.7
					c-0.9-19.2,14-35.4,33.1-36.3c0.5,0,1.1,0,1.6,0l0,0c19.2,0,34.7,15.6,34.7,34.8c0,0.5,0,1.1,0,1.6l-8,174.7
					C307.1,257.2,295.4,268.4,281.1,268.4z"/>
			</g>
		</g>
		<g id="Groupe_4668" transform="translate(0)">
			<g id="Groupe_4666">
				<path id="Tracé_6187" class="st9" d="M567.5,879.8c3.3,3.3,8.6,3.3,11.9,0l59.5-59.5c3.3-3.3,3.3-8.6,0-11.9
					c-3.3-3.3-8.6-3.3-11.9,0l-59.5,59.5C564.2,871.2,564.2,876.5,567.5,879.8z"/>
			</g>
			<g id="Groupe_4667">
				<path id="Tracé_6188" class="st9" d="M567.5,820.3l59.5,59.5c3.3,3.3,8.6,3.3,11.9,0c3.3-3.3,3.3-8.6,0-11.9l0,0l-59.5-59.5
					c-3.3-3.3-8.6-3.3-11.9,0C564.2,811.7,564.2,817,567.5,820.3L567.5,820.3L567.5,820.3z"/>
			</g>
		</g>
	</g>
</g>
</svg>
