<?xml version="1.0" encoding="UTF-8"?>
<svg xmlns="http://www.w3.org/2000/svg" version="1.1" viewBox="0 0 286 125.5">
  <!-- Generator: Adobe Illustrator 28.7.0, SVG Export Plug-In . SVG Version: 1.2.0 Build 4)  -->
  <g>
    <g id="Calque_1">
      <g>
        <path d="M37.6,95.8c4.2,1.8,5.6,2.7,10.8,2.7s8.8-.7,12.4-2.1,5.1-2.5,6.9-4.9,2.6-5,2.6-7.9-.9-5.4-2.5-7.6c-1.7-2.2-4.5-4-8.4-5.4-2.5-1-4.6-2.4-13.1-4.4s-14.5-3.9-17.9-5.8c-4.4-2.3-7.7-5.2-9.9-8.6-2.2-3.4-3.3-7.2-3.3-11.5s1.3-9,4-13,6.5-7.1,11.7-9.2c5.1-2.1,10.8-3.1,17-3.1s12.9,1.1,18.2,3.3c5.3,2.2,9.3,5.4,12.1,9.7s3.9,11,4.2,16.4h-14c-.6-5.8-1.3-10.7-4.9-13.7-3.7-3-7.9-4.9-15-4.9s-12.8,1.3-16.2,4.1c-3.4,2.7-5.1,6-5.1,9.8s1.2,6,3.6,8.2c2.4,2.1,8.5,4.3,18.5,6.6,10,2.2,16.8,4.2,20.6,5.9,5.4,2.5,9.4,5.6,12,9.4s3.9,8.2,3.9,13.1-1.4,9.5-4.2,13.9c-2.8,4.3-6.9,7.7-12.2,10.1s-11.3,3.6-17.9,3.6-17.3-1.8-23-4.2l9.3-10.3-.2-.2Z"/>
        <path d="M177.3,30.6c-1.9-3.8-4.4-6.8-7.6-8.9-3.1-2.1-7-3.5-11.7-4.3-3.3-.6-8.1-.9-14.4-.9h-35.7v10.9h36.7c5.7,0,9.6.2,11.7.8,3.3.9,5.9,2.7,7.9,5.4s3,6,3,9.9-1.7,9.4-5.1,12.3c-3.4,2.9-9.1,4.4-17.2,4.4h-37v48.2h15.5v-37.3h21.3c13.4,0,22.6-2.7,27.8-8.1s7.7-12,7.7-19.8-.9-8.7-2.9-12.5h0Z"/>
        <path d="M260,51.9h14.3V15h-14.4v36.9h.1Z"/>
        <polygon points="274.3 108.4 261.1 108.4 211.5 35.1 211.9 108.4 197.8 108.4 197.8 15 211 15 274.3 108.4"/>
        <path d="M29.6,89.3c-2-3-3.7-6.6-4.3-11.2l-13.6-.9c.2,6.2,3.5,15,6.8,19.9l11.1-7.8Z"/>
      </g>
    </g>
  </g>
</svg>