<?xml version="1.0" encoding="UTF-8"?>
<svg xmlns="http://www.w3.org/2000/svg" version="1.1" viewBox="0 0 397.7 230.6">
  <!-- Generator: Adobe Illustrator 28.7.0, SVG Export Plug-In . SVG Version: 1.2.0 Build 4)  -->
  <g>
    <g id="Calque_1">
      <g>
        <path d="M97.8,106.9c4.2,1.8,5.6,2.7,10.8,2.7s8.8-.7,12.4-2.1c3.6-1.4,5.1-2.5,6.9-4.9,1.8-2.4,2.6-5,2.6-7.9s-.9-5.4-2.5-7.6c-1.7-2.2-4.5-4-8.4-5.4-2.5-1-4.6-2.4-13.1-4.4s-14.5-3.9-17.9-5.8c-4.4-2.3-7.7-5.2-9.9-8.6-2.2-3.4-3.3-7.2-3.3-11.5s1.3-9,4-13c2.7-4,6.5-7.1,11.7-9.2,5.1-2.1,10.8-3.1,17-3.1s12.9,1.1,18.2,3.3c5.3,2.2,9.3,5.4,12.1,9.7,2.8,4.3,3.9,11,4.2,16.4h-14c-.6-5.8-1.3-10.7-4.9-13.7-3.7-3-7.9-4.9-15-4.9s-12.8,1.3-16.2,4.1c-3.4,2.7-5.1,6-5.1,9.8s1.2,6,3.6,8.2c2.4,2.1,8.5,4.3,18.5,6.6,10,2.2,16.8,4.2,20.6,5.9,5.4,2.5,9.4,5.6,12,9.4,2.6,3.8,3.9,8.2,3.9,13.1s-1.4,9.5-4.2,13.9c-2.8,4.3-6.9,7.7-12.2,10.1-5.3,2.4-11.3,3.6-17.9,3.6s-17.3-1.8-23-4.2l9.3-10.3Z"/>
        <path d="M237.5,41.7c-1.9-3.8-4.4-6.8-7.6-8.9-3.1-2.1-7-3.5-11.7-4.3-3.3-.6-8.1-.9-14.4-.9h-35.7v10.9h36.7c5.7,0,9.6.2,11.7.8,3.3.9,5.9,2.7,7.9,5.4s3,6,3,9.9-1.7,9.4-5.1,12.3c-3.4,2.9-9.1,4.4-17.2,4.4h-24.5c0,0-12.5,0-12.5,0v48.2h15.5v-37.3h21.3c13.4,0,22.6-2.7,27.8-8.1s7.7-12,7.7-19.8c0-4.6-.9-8.7-2.9-12.5Z"/>
        <path d="M320.2,63h14.3V26.1h-14.4v36.9s0,0,.1,0Z"/>
        <polygon points="334.5 119.5 321.3 119.5 271.7 46.2 272.1 119.5 258 119.5 258 26.1 271.2 26.1 334.5 119.5"/>
        <path d="M89.8,100.4c-2-3-3.7-6.6-4.3-11.2l-13.6-.9c.2,6.2,3.5,15,6.8,19.9l11.1-7.8Z"/>
        <g>
          <path d="M34.6,151.3c-.3-.4-.7-.7-1.1-1-.4-.3-.9-.6-1.5-.8-.5-.2-1.1-.4-1.7-.5s-1.3-.2-2-.2c-2,0-3.5.4-4.4,1.1-.9.8-1.4,1.8-1.4,3.1s.2,1.6.7,2.1c.4.5,1.1.9,2.1,1.3s2.2.7,3.6,1c1.6.4,3.1.8,4.3,1.2,1.2.5,2.1,1.1,2.8,1.9.7.8,1,1.9,1,3.3s-.2,2-.6,2.8-1,1.4-1.7,1.9-1.6.9-2.6,1.1-2.1.4-3.4.4-2.3-.1-3.4-.4c-1.1-.2-2.1-.6-3.1-1.1s-1.9-1.1-2.7-1.9l1.1-1.9c.4.4.9.8,1.5,1.2.6.4,1.2.7,1.9,1s1.5.5,2.3.7,1.6.2,2.5.2c1.8,0,3.3-.3,4.3-1,1-.7,1.5-1.7,1.5-3s-.3-1.7-.8-2.3c-.5-.6-1.3-1-2.3-1.4-1-.4-2.3-.7-3.8-1.1-1.6-.4-3-.8-4.1-1.2s-1.9-1.1-2.5-1.8-.8-1.7-.8-3,.4-2.6,1.1-3.6c.7-1,1.7-1.7,2.9-2.2,1.2-.5,2.6-.8,4.3-.8s2,.1,2.8.3c.9.2,1.7.5,2.4.9s1.5.9,2.1,1.5l-1.1,1.8Z"/>
          <path d="M61.4,153.2h2.2l-7.3,16.9h-1.9l-3.5-8.4-3.5,8.4h-1.9l-7.3-16.9h2.1l6.2,14.6,3.1-7.6-2.9-7h2l2.1,5.5,2.2-5.5h2l-2.8,7,3.1,7.6,6.2-14.6Z"/>
          <path d="M66.7,149.6v-3.2h2.2v3.2h-2.2ZM66.7,170v-16.9h2.2v16.9h-2.2Z"/>
          <path d="M79.6,170.4c-1.4,0-2.7-.2-3.9-.7-1.2-.4-2.2-1.1-3.1-2.1l.9-1.6c.9.9,1.9,1.5,2.9,1.9s2,.6,3.1.6,2.4-.3,3.2-.8c.8-.5,1.2-1.3,1.2-2.3s-.2-1.2-.6-1.5c-.4-.4-1-.6-1.7-.9s-1.6-.5-2.7-.7c-1.2-.3-2.2-.7-2.9-1-.8-.4-1.4-.8-1.8-1.4s-.6-1.3-.6-2.1.3-2,.8-2.7,1.3-1.3,2.3-1.6c1-.4,2-.6,3.2-.6s2.4.2,3.4.6c1,.4,1.8,1,2.4,1.7l-1.1,1.5c-.6-.7-1.3-1.2-2.2-1.5-.8-.3-1.8-.5-2.8-.5s-1.3,0-2,.3c-.6.2-1.1.5-1.5.9s-.6,1-.6,1.7.2,1.1.5,1.4c.3.3.8.6,1.4.8.6.2,1.3.5,2.2.7,1.3.3,2.4.7,3.3,1.1.9.4,1.7.8,2.2,1.4s.8,1.3.8,2.4c0,1.6-.6,2.8-1.8,3.7-1.2.9-2.8,1.3-4.7,1.3Z"/>
          <path d="M95.5,170.4c-1.4,0-2.7-.2-3.9-.7-1.2-.4-2.2-1.1-3.1-2.1l.9-1.6c.9.9,1.9,1.5,2.9,1.9s2,.6,3.1.6,2.4-.3,3.2-.8c.8-.5,1.2-1.3,1.2-2.3s-.2-1.2-.6-1.5c-.4-.4-1-.6-1.7-.9s-1.6-.5-2.7-.7c-1.2-.3-2.2-.7-2.9-1-.8-.4-1.4-.8-1.8-1.4s-.6-1.3-.6-2.1.3-2,.8-2.7,1.3-1.3,2.3-1.6c1-.4,2-.6,3.2-.6s2.4.2,3.4.6c1,.4,1.8,1,2.4,1.7l-1.1,1.5c-.6-.7-1.3-1.2-2.2-1.5-.8-.3-1.8-.5-2.8-.5s-1.3,0-2,.3c-.6.2-1.1.5-1.5.9s-.6,1-.6,1.7.2,1.1.5,1.4c.3.3.8.6,1.4.8.6.2,1.3.5,2.2.7,1.3.3,2.4.7,3.3,1.1.9.4,1.7.8,2.2,1.4s.8,1.3.8,2.4c0,1.6-.6,2.8-1.8,3.7-1.2.9-2.8,1.3-4.7,1.3Z"/>
          <path d="M114.8,170v-23.1h9.6c1,0,1.9.2,2.8.6.8.4,1.6,1,2.2,1.7s1.1,1.5,1.4,2.3c.4.9.5,1.7.5,2.6,0,1.3-.3,2.4-.8,3.6s-1.3,2-2.3,2.7c-1,.7-2.2,1-3.5,1h-7.5v8.5h-2.3ZM117.1,159.5h7.4c.9,0,1.7-.2,2.4-.8.7-.5,1.2-1.1,1.6-1.9s.6-1.7.6-2.6-.2-1.8-.6-2.6c-.4-.8-1-1.4-1.7-1.9-.7-.5-1.5-.7-2.3-.7h-7.2v10.5h0Z"/>
          <path d="M143.2,155.1c-1.5,0-2.8.4-3.9,1.2-1.1.8-1.9,1.9-2.4,3.2v10.5h-2.2v-16.9h2.1v4c.6-1.2,1.4-2.1,2.3-2.9s2-1.1,3.1-1.2c.2,0,.4,0,.6,0s.3,0,.4,0v2h0Z"/>
          <path d="M153.2,170.4c-1.2,0-2.3-.2-3.4-.7-1-.5-1.9-1.1-2.7-1.9s-1.4-1.7-1.8-2.8-.6-2.2-.6-3.4.4-3,1.1-4.3c.7-1.3,1.7-2.4,3-3.1,1.3-.8,2.7-1.2,4.4-1.2s3.1.4,4.4,1.2c1.2.8,2.2,1.8,2.9,3.1.7,1.3,1.1,2.7,1.1,4.3v.5c0,.2,0,.3,0,.4h-14.5c.1,1.2.4,2.3,1,3.2s1.3,1.7,2.2,2.2,1.9.8,3,.8,2.1-.3,3.1-.8c1-.6,1.7-1.3,2.1-2.2l1.9.5c-.4.8-.9,1.5-1.6,2.2-.7.6-1.6,1.1-2.5,1.5-.9.4-2,.5-3.1.5ZM147,160.8h12.5c0-1.2-.4-2.3-1-3.2-.6-.9-1.3-1.6-2.2-2.2s-1.9-.8-3-.8-2.1.3-3,.8-1.6,1.2-2.2,2.2c-.6.9-.9,2-1,3.2Z"/>
          <path d="M190.4,170h-2.2v-9.4c0-2-.3-3.4-.9-4.3-.6-.9-1.6-1.4-2.8-1.4s-2.4.4-3.4,1.4c-1,.9-1.7,2.1-2.1,3.5v10.3h-2.2v-9.4c0-2-.3-3.4-.9-4.3s-1.5-1.4-2.8-1.4-2.4.4-3.4,1.3-1.7,2-2.1,3.5v10.3h-2.2v-16.9h2v3.8c.7-1.3,1.6-2.3,2.8-3,1.1-.7,2.4-1.1,3.7-1.1s2.5.4,3.4,1.2c.9.8,1.4,1.8,1.6,3.1.8-1.4,1.7-2.5,2.8-3.2s2.3-1.1,3.7-1.1,1.8.2,2.4.5c.7.3,1.2.8,1.6,1.5s.7,1.4.9,2.3c.2.9.3,1.9.3,3v9.8h0Z"/>
          <path d="M195.3,149.6v-3.2h2.2v3.2h-2.2ZM195.3,170v-16.9h2.2v16.9h-2.2Z"/>
          <path d="M202.4,163.1v-9.9h2.2v9.5c0,1.9.3,3.4,1,4.3s1.6,1.4,2.9,1.4,1.7-.2,2.5-.6,1.5-.9,2.2-1.6,1.1-1.5,1.4-2.4v-10.6h2.2v14.2c0,.3,0,.5.2.7s.3.2.6.2v1.8c-.3,0-.5,0-.6,0-.1,0-.3,0-.4,0-.4,0-.8-.2-1.1-.5s-.5-.7-.5-1.1v-2.3c-.8,1.3-1.8,2.3-3.1,3-1.3.7-2.6,1.1-4.1,1.1s-3.1-.6-4-1.8c-.9-1.2-1.4-3-1.4-5.4Z"/>
          <path d="M247.3,170h-2.2v-9.4c0-2-.3-3.4-.9-4.3-.6-.9-1.6-1.4-2.8-1.4s-2.4.4-3.4,1.4c-1,.9-1.7,2.1-2.1,3.5v10.3h-2.2v-9.4c0-2-.3-3.4-.9-4.3s-1.5-1.4-2.8-1.4-2.4.4-3.4,1.3-1.7,2-2.1,3.5v10.3h-2.2v-16.9h2v3.8c.7-1.3,1.6-2.3,2.8-3s2.4-1.1,3.7-1.1,2.5.4,3.4,1.2,1.4,1.8,1.6,3.1c.8-1.4,1.7-2.5,2.8-3.2s2.3-1.1,3.7-1.1,1.8.2,2.4.5c.7.3,1.2.8,1.6,1.5s.7,1.4.9,2.3c.2.9.3,1.9.3,3v9.8h0Z"/>
          <path d="M263.4,151.2v18.9h-2.3v-23.1h1.9l15.1,19.2v-19.2h2.3v23h-2.1l-14.9-18.9Z"/>
          <path d="M293,170.4c-1.2,0-2.3-.2-3.4-.7-1-.5-1.9-1.1-2.7-1.9s-1.4-1.7-1.8-2.8c-.4-1.1-.6-2.2-.6-3.4s.4-3,1.1-4.3c.7-1.3,1.7-2.4,3-3.1,1.3-.8,2.7-1.2,4.4-1.2s3.1.4,4.4,1.2c1.2.8,2.2,1.8,2.9,3.1.7,1.3,1.1,2.7,1.1,4.3v.5c0,.2,0,.3,0,.4h-14.5c.1,1.2.5,2.3,1,3.2.6.9,1.3,1.7,2.2,2.2.9.6,1.9.8,3,.8s2.1-.3,3.1-.8c1-.6,1.7-1.3,2.1-2.2l1.9.5c-.4.8-.9,1.5-1.6,2.2s-1.5,1.1-2.5,1.5c-.9.4-2,.5-3.1.5ZM286.8,160.8h12.5c0-1.2-.4-2.3-1-3.2-.6-.9-1.3-1.6-2.2-2.2s-1.9-.8-3-.8-2.1.3-3,.8c-.9.5-1.6,1.2-2.2,2.2-.6.9-.9,2-1,3.2Z"/>
          <path d="M311.8,170.4c-1.1,0-2.2-.2-3.2-.7s-1.8-1.1-2.5-1.9c-.7-.8-1.2-1.7-1.6-2.8s-.6-2.1-.6-3.2.2-2.3.6-3.4.9-2,1.6-2.8c.7-.8,1.5-1.5,2.5-1.9,1-.5,2-.7,3.2-.7s2.7.4,3.8,1.1c1.1.7,2,1.6,2.7,2.7v-3.5h2v16.9c0,1.6-.4,2.9-1.1,3.9s-1.8,1.9-3,2.4c-1.3.5-2.6.8-4.1.8s-3.5-.4-4.7-1c-1.2-.7-2.2-1.6-2.9-2.8l1.4-1.1c.7,1.1,1.6,1.9,2.7,2.4,1.1.5,2.3.8,3.6.8s2.1-.2,3-.6,1.7-1,2.2-1.8c.5-.8.8-1.8.8-3v-3.4c-.6,1.1-1.5,1.9-2.7,2.6-1.1.6-2.3,1-3.6,1ZM312.4,168.5c.7,0,1.3-.1,1.9-.4.6-.2,1.2-.6,1.7-1,.5-.4,1-.9,1.3-1.4.4-.5.6-1,.6-1.5v-5.2c-.3-.8-.8-1.6-1.4-2.2s-1.3-1.1-2.1-1.5c-.8-.4-1.6-.5-2.4-.5s-1.8.2-2.5.6c-.8.4-1.4.9-1.9,1.6-.5.7-.9,1.4-1.2,2.2-.3.8-.4,1.6-.4,2.5s.2,1.8.5,2.6c.3.8.8,1.5,1.4,2.2.6.6,1.2,1.1,2,1.5.8.4,1.6.5,2.5.5Z"/>
          <path d="M332.6,170.4c-1.2,0-2.4-.2-3.4-.7-1-.5-1.9-1.1-2.7-1.9s-1.3-1.7-1.7-2.8c-.4-1-.6-2.1-.6-3.3s.2-2.3.6-3.4c.4-1,1-2,1.8-2.8.8-.8,1.6-1.4,2.7-1.9,1-.5,2.1-.7,3.4-.7s2.3.2,3.4.7c1,.5,1.9,1.1,2.7,1.9.8.8,1.3,1.7,1.8,2.8.4,1,.6,2.2.6,3.4s-.2,2.3-.6,3.3-1,2-1.7,2.8-1.6,1.4-2.7,1.9c-1,.5-2.1.7-3.4.7ZM326.4,161.7c0,1.2.3,2.4.8,3.4.5,1,1.3,1.8,2.2,2.4s2,.9,3.1.9,2.2-.3,3.1-.9c.9-.6,1.7-1.4,2.2-2.5.6-1,.8-2.2.8-3.4s-.3-2.4-.8-3.4c-.6-1-1.3-1.9-2.2-2.4-.9-.6-2-.9-3.1-.9s-2.2.3-3.1.9c-.9.6-1.7,1.4-2.2,2.5-.5,1-.8,2.2-.8,3.4Z"/>
          <path d="M352.2,170.4c-1.2,0-2.4-.2-3.4-.7-1-.5-1.9-1.1-2.7-1.9-.8-.8-1.4-1.8-1.8-2.8s-.6-2.2-.6-3.4.4-3.1,1.1-4.4c.7-1.3,1.7-2.4,3-3.1s2.8-1.2,4.4-1.2,3,.4,4.2,1.1,2.1,1.7,2.7,2.9l-2.1.7c-.5-.9-1.1-1.5-2-2s-1.8-.7-2.8-.7-2.2.3-3.1.9-1.7,1.4-2.2,2.4-.8,2.2-.8,3.4.3,2.4.8,3.4,1.3,1.9,2.2,2.5c.9.6,2,.9,3.1.9s1.5-.1,2.1-.4,1.3-.6,1.8-1.1c.5-.4.9-.9,1-1.4l2.2.6c-.3.8-.8,1.5-1.5,2.2s-1.5,1.1-2.5,1.5c-1,.4-2,.5-3,.5Z"/>
          <path d="M370.1,170.4c-1.2,0-2.3-.2-3.4-.7-1-.5-1.9-1.1-2.7-1.9s-1.4-1.7-1.8-2.8c-.4-1.1-.6-2.2-.6-3.4s.4-3,1.1-4.3c.7-1.3,1.7-2.4,3-3.1,1.3-.8,2.7-1.2,4.4-1.2s3.1.4,4.4,1.2c1.2.8,2.2,1.8,2.9,3.1.7,1.3,1.1,2.7,1.1,4.3v.5c0,.2,0,.3,0,.4h-14.5c.1,1.2.5,2.3,1,3.2.6.9,1.3,1.7,2.2,2.2.9.6,1.9.8,3,.8s2.1-.3,3.1-.8c1-.6,1.7-1.3,2.1-2.2l1.9.5c-.4.8-.9,1.5-1.6,2.2s-1.5,1.1-2.5,1.5c-.9.4-2,.5-3.1.5ZM363.9,160.8h12.5c0-1.2-.4-2.3-1-3.2-.6-.9-1.3-1.6-2.2-2.2s-1.9-.8-3-.8-2.1.3-3,.8c-.9.5-1.6,1.2-2.2,2.2-.6.9-.9,2-1,3.2Z"/>
          <path d="M158.4,204.6c-1.3,0-2.5-.3-3.6-.8-1.1-.6-2.1-1.3-2.9-2.2s-1.4-2-1.9-3.2-.7-2.4-.7-3.6.2-2.5.7-3.7c.4-1.2,1.1-2.2,1.9-3.1s1.7-1.6,2.8-2.1,2.3-.8,3.6-.8c1.9,0,3.5.4,4.6,1.2,1.2.8,2.1,1.8,2.7,3.1l-1.5,1c-.6-1.2-1.4-2.1-2.5-2.6-1-.6-2.2-.8-3.5-.8s-2,.2-2.9.7-1.6,1.1-2.2,1.8c-.6.8-1.1,1.6-1.4,2.6-.3,1-.5,2-.5,3s.2,2.1.5,3.1.9,1.8,1.6,2.6c.7.8,1.4,1.3,2.3,1.8s1.8.6,2.8.6,2.3-.3,3.4-.9c1.1-.6,2.1-1.5,3-2.7v2c-1.8,2.2-4,3.3-6.5,3.3ZM164.6,196.4h-4.3v-1.5h5.9v9.5h-1.6v-8Z"/>
          <path d="M183.3,202.7v1.7h-13v-19.3h12.7v1.7h-10.8v7h9.4v1.6h-9.4v7.4h11.1Z"/>
          <path d="M189,188.6v15.8h-1.9v-19.3h1.6l12.7,16.1v-16.1h1.9v19.3h-1.8l-12.5-15.8Z"/>
          <path d="M221.3,202.7v1.7h-13v-19.3h12.7v1.7h-10.8v7h9.4v1.6h-9.4v7.4h11.1ZM212.5,179.5h1.9l1.6,2.5-1.2.5-2.4-3Z"/>
          <path d="M225,185.1l6.9,16.9,6.9-16.9h2l-8,19.3h-1.7l-8-19.3h2Z"/>
          <path d="M256.7,202.7v1.7h-13v-19.3h12.7v1.7h-10.8v7h9.4v1.6h-9.4v7.4h11.1Z"/>
        </g>
      </g>
    </g>
  </g>
</svg>