<?xml version="1.0" encoding="utf-8"?>
<!-- Generator: Adobe Illustrator 26.5.0, SVG Export Plug-In . SVG Version: 6.00 Build 0)  -->
<svg version="1.1" xmlns="http://www.w3.org/2000/svg" xmlns:xlink="http://www.w3.org/1999/xlink" x="0px" y="0px"
	 viewBox="0 0 2565.4 1593.2" style="enable-background:new 0 0 2565.4 1593.2;" xml:space="preserve">
<style type="text/css">
	.st0{fill:#FFFFFF;}
	.st1{fill:url(#SVGID_1_);}
	.st2{fill:url(#SVGID_00000177463261260126937580000010418318423141985413_);}
	.st3{fill:url(#SVGID_00000177484763034274177140000005990352439529311649_);}
	.st4{fill:url(#SVGID_00000154426015581473842000000006967219012045012156_);}
	.st5{fill:#C19A51;}
	.st6{opacity:0.5;fill:#D8D8D8;}
</style>
<g id="Bg">
</g>
<g id="Object">
	<g>
		<g>
			<g>
				<path class="st0" d="M1737.3,240.5c-24.7-18.5-36.9,135.9-46.7,133.6c-14.4-3.4,18.4-137.9-5.1-137.9
					c-31.1,0-24.1,115.8-31.1,116.4c-15,1.3,13.3-119.4-14.4-120.9c-29.4-1.5-24.7,123.4-36.1,118.3c-13.2-5.9,3.5-120.9-21.6-117.1
					c-42.3,6.4-10.4,220.8-107.6,238.9c-27.2,5.1-100.9-11.3-78.3,13.1c33.3,36,97.9,28.1,97.9,73.3c0,46.4-34.8,293.5-257.5,315.1
					c-231.5,22.5-323.8-250.3-400.3-278.8C703,544.8,587,720.1,639.8,878.6c78.1,234.4,385.3,352.1,626.5,281.3
					C1758,1015.6,1746.7,247.5,1737.3,240.5z"/>
				<path d="M1119.5,1183.1c-77.1,0-155.9-15.8-228.7-46.9c-60.4-25.8-112.9-60.4-156-102.9c-45.7-45.1-78.6-96.8-97.6-153.9
					c-29.8-89.4-7.2-193.8,55-253.8c41.7-40.3,94.6-52.6,145.1-33.7c25.1,9.4,50.8,42.8,83.3,85.3c67.4,88,159.7,208.5,315.8,193.3
					c50.8-4.9,95.4-22.2,132.8-51.3c30.9-24,56.9-56.2,77.4-95.5c36.9-70.9,45-143.6,45-165.6c0-24.4-20.9-32.4-45-41.5
					c-17.7-6.7-37.8-14.4-52.2-29.9c-1.6-1.8-6.6-7.2-4.3-12.1c3.4-7.3,19.5-6.8,45.6-5.3c14.5,0.8,29.5,1.6,38.6-0.1
					c56.6-10.6,68.1-91,77.4-155.7c6.4-44.9,11.5-80.4,30.3-83.3c2.9-0.4,5.6,0.3,7.9,2.2c9.9,8.4,10.3,39.4,10.7,69.3
					c0.2,16.5,0.5,41,3.9,45.2c2.3-4,4.2-21.2,5.8-35.2c4.2-37.4,9.5-83.9,30-82.8c3.1,0.2,5.8,1.5,8,4c9.8,11,7.6,44.6,5.6,74.3
					c-1,14.5-2.3,35.6-0.3,41.4c1-4.5,1.7-15.2,2.3-24.8c2.5-38.1,6-90.3,29.6-90.3c2.4,0,4.5,1,6.2,2.8c8,8.9,5.7,37.3,1.2,79.6
					c-2.1,19.7-5.1,48.9-2.3,54.7c2.7-5.2,6.5-25.4,10-43.5c9.1-48.2,17.1-85.5,29.7-90.4c2-0.8,5.1-1.2,8.7,1.5
					c1.1,0.8,2.7,2,3.4,26.1c0.5,17,0.3,39.2-0.6,62.3c-1.9,46-7.4,118.8-22.9,204.6c-26.3,145.5-70.6,270.6-131.5,371.6
					c-80.4,133.4-188.1,220.7-320.3,259.4C1220.1,1176.3,1170.2,1183.1,1119.5,1183.1z M789.9,588.5c-33.5,0-65.8,13.9-93.9,41.1
					c-60.7,58.6-82.8,160.7-53.6,248.2c18.7,56.2,51.1,107.3,96.2,151.7c42.6,42,94.5,76.2,154.3,101.7
					c119.4,51,255.2,60.5,372.6,26.1c155.5-45.6,276.2-158.4,358.7-335.3c63.6-136.4,91.1-283.5,103-382.9
					c13.2-110.8,10.3-189,8-196.8c-1.4-0.9-2.4-0.7-3.1-0.5c-10.8,4.2-20.1,53.6-26.3,86.4c-6.2,32.7-8.9,45.3-13,48
					c-0.9,0.6-1.9,0.8-2.9,0.5c-7.9-1.9-6.9-19.2-2.4-61.4c3.2-30.1,7.1-67.7,0.1-75.4c-0.7-0.7-1.3-1.1-2.2-1.1
					c-18.6,0-22.2,53.4-24.3,85.3c-1.6,24.8-2.2,30.7-6.6,31.1c-1.5,0.1-3-0.4-4.1-1.5c-4.7-4.6-3.9-20-2.1-46.9
					c1.8-27.2,4-61-4.3-70.3c-1.2-1.4-2.6-2.1-4.3-2.2c-15.5-0.8-20.8,46.6-24.4,78c-3.1,27.6-4.6,37.4-8.9,39.9
					c-1.2,0.7-2.6,0.7-3.8,0.2c-6.8-3-7.3-19.4-7.7-50.6c-0.3-26-0.7-58.5-8.8-65.3c-1.1-0.9-2.2-1.2-3.6-1
					c-14.9,2.2-20.2,39.4-25.8,78.7c-9.5,66.3-21.3,148.9-81.7,160.2c-9.8,1.8-25.1,1-39.9,0.2c-15.3-0.8-38.3-2.1-40.4,2.2
					c-0.4,0.8,0.3,2.8,3.4,6.2c13.5,14.6,32.1,21.7,50.2,28.5c24.9,9.5,48.5,18.4,48.5,46.6c0,22.4-8.2,96.2-45.6,168.1
					c-20.8,40.1-47.4,72.8-78.8,97.3c-38.2,29.7-83.8,47.4-135.6,52.4c-9.3,0.9-18.4,1.3-27.2,1.3c-142.7,0-229.2-113-293.4-196.8
					c-30.7-40.1-57.2-74.7-80.9-83.5C820.2,591.3,804.9,588.5,789.9,588.5z M1735.7,242.6C1735.7,242.7,1735.7,242.7,1735.7,242.6
					L1735.7,242.6C1735.7,242.7,1735.7,242.7,1735.7,242.6z"/>
			</g>
			<g>
				<path class="st0" d="M787.9,545.8c-147.5,1.6-202.3,157.5-147.6,321.8c33.2,99.7,221.2,258.9,313.3,312.7
					c54.9-12.9,213.7-101.4,229.5-318.1C973.2,808.4,940.9,544.1,787.9,545.8z"/>
				<path d="M953.2,1183.2l-0.9-0.5c-91.9-53.7-281.1-213.7-314.5-314.2c-33.3-100-26.7-196.9,17.7-259.2
					c30.4-42.7,76.2-65.5,132.4-66.2c0.5,0,1,0,1.5,0c75.1,0,120.5,61.7,173,133.1c53.8,73.1,114.8,156,221.4,183.4l2.2,0.6
					l-0.2,2.2c-8.6,117.7-59.5,194-100.8,237.2c-51.2,53.6-106.3,77.6-130.7,83.4L953.2,1183.2z M787.9,545.8l0,2.7
					c-54.5,0.6-98.8,22.7-128.1,63.9c-43.4,60.9-49.7,156-17,254.4c32.9,98.9,219.6,256.8,311.2,310.7c24.4-6,77.4-29.7,127-81.6
					c40.4-42.3,90.2-116.7,99.1-231.6c-107.1-28.4-168.2-111.5-222.2-184.9c-52-70.7-96.9-131.6-170.1-130.9L787.9,545.8z"/>
			</g>
		</g>
		<g>
			<g>
				<path class="st0" d="M102.2,866.1c0-166,43.4-302.1,245.5-337.4c159.3-27.8,559.5-13.3,546.1,95.9
					c-72.5,591.2,26.9,916.3,26.9,916.3l-757.1,0.5C163.7,1541.3,102.2,1238.3,102.2,866.1z"/>
				<path d="M161.5,1544l-0.4-2.2c-0.6-3-61.5-307.5-61.5-675.8c0-96.5,15-166.2,47.4-219.1c39.5-64.7,105-104.3,200.4-121
					c71.5-12.5,187.4-15.8,288.4-8.2c71.1,5.3,197.3,20.8,243.6,64.8c13.3,12.7,19.1,26.9,17.2,42.3c-37.4,305-28.1,537.6-13.8,679
					c15.6,153.2,40.3,235.3,40.6,236.1l1.1,3.5l-3.6,0L161.5,1544z M524.1,519.1c-68.1,0-131.6,4.5-175.9,12.2
					c-93.7,16.4-158.1,55.1-196.7,118.5c-31.8,52.1-46.6,120.8-46.6,216.3c0,351.4,55.5,644.6,61,672.5l751.3-0.5
					c-4.8-17.2-25.9-97.4-39.7-233.5C863,1163,853.7,929.9,891.2,624.2c1.7-13.6-3.6-26.3-15.6-37.7
					C824.7,538.1,664.7,519.1,524.1,519.1z"/>
			</g>
			<g>
				<path d="M316.9,1542.3c-0.7-1.6-1.3-3.3-2-5l5-1.9c0.6,1.7,1.3,3.3,1.9,4.9L316.9,1542.3z M310.6,1525.3
					c-0.8-2.4-1.6-4.8-2.4-7.3l5.1-1.7c0.8,2.4,1.6,4.8,2.4,7.2L310.6,1525.3z M304.4,1505.8c-0.7-2.4-1.4-4.9-2.1-7.4l5.2-1.4
					c0.7,2.5,1.4,4.9,2.1,7.3L304.4,1505.8z M299,1486c-0.6-2.5-1.2-4.9-1.8-7.4l5.2-1.3c0.6,2.5,1.2,4.9,1.8,7.4L299,1486z
					 M294.3,1466.1c-0.5-2.5-1.1-5-1.6-7.5l5.3-1.1c0.5,2.5,1.1,5,1.6,7.4L294.3,1466.1z M290.1,1446.1c-0.5-2.5-1-5-1.4-7.5l5.3-1
					c0.5,2.5,0.9,5,1.4,7.5L290.1,1446.1z M286.4,1426.1c-0.4-2.5-0.9-5-1.3-7.5l5.3-0.9c0.4,2.5,0.8,5,1.3,7.5L286.4,1426.1z
					 M283.2,1405.9c-0.4-2.5-0.8-5-1.1-7.6l5.3-0.8c0.4,2.5,0.7,5,1.1,7.5L283.2,1405.9z M280.3,1385.7c-0.3-2.5-0.7-5-1-7.6
					l5.3-0.7c0.3,2.5,0.7,5,1,7.6L280.3,1385.7z M277.7,1365.5c-0.3-2.5-0.6-5.1-0.9-7.6l5.3-0.6c0.3,2.5,0.6,5.1,0.9,7.6
					L277.7,1365.5z M275.3,1345.2c-0.3-2.5-0.5-5.1-0.8-7.6l5.4-0.5c0.3,2.5,0.5,5.1,0.8,7.6L275.3,1345.2z M273.3,1324.9
					c-0.2-2.5-0.5-5.1-0.7-7.6l5.4-0.5c0.2,2.5,0.5,5.1,0.7,7.6L273.3,1324.9z M271.5,1304.6c-0.2-2.5-0.4-5.1-0.6-7.6l5.4-0.4
					c0.2,2.5,0.4,5.1,0.6,7.6L271.5,1304.6z M269.9,1284.3c-0.2-2.5-0.4-5.1-0.5-7.6l5.4-0.4c0.2,2.5,0.4,5.1,0.5,7.6L269.9,1284.3z
					 M268.5,1263.9c-0.2-2.5-0.3-5.1-0.5-7.6l5.4-0.3c0.2,2.5,0.3,5.1,0.5,7.6L268.5,1263.9z M267.3,1243.6
					c-0.1-2.5-0.3-5.1-0.4-7.6l5.4-0.3c0.1,2.5,0.3,5.1,0.4,7.6L267.3,1243.6z M266.2,1223.3c-0.1-2.6-0.2-5.1-0.3-7.6l5.4-0.2
					c0.1,2.5,0.2,5.1,0.3,7.6L266.2,1223.3z M265.4,1202.9c-0.1-2.6-0.2-5.1-0.3-7.6l5.4-0.2c0.1,2.5,0.2,5.1,0.3,7.6L265.4,1202.9z
					 M264.6,1182.6c-0.1-2.6-0.2-5.1-0.2-7.6l5.4-0.2c0.1,2.5,0.2,5.1,0.2,7.6L264.6,1182.6z M264.1,1162.2
					c-0.1-2.6-0.1-5.1-0.2-7.6l5.4-0.1c0.1,2.5,0.1,5.1,0.2,7.6L264.1,1162.2z M263.6,1141.8c0-2.6-0.1-5.1-0.1-7.6l5.4-0.1
					c0,2.5,0.1,5.1,0.1,7.6L263.6,1141.8z M263.3,1121.5c0-2.6-0.1-5.1-0.1-7.6l5.4-0.1c0,2.5,0.1,5.1,0.1,7.6L263.3,1121.5z
					 M263.1,1101.1l0-7.6l5.4,0l0,7.6L263.1,1101.1z M268.4,1080.7l-5.4,0l0-7.6l5.4,0L268.4,1080.7z M268.5,1060.4l-5.4,0l0.1-7.6
					l5.4,0L268.5,1060.4z M268.7,1040l-5.4-0.1l0.1-7.6l5.4,0.1L268.7,1040z M269,1019.7l-5.4-0.1l0.1-7.6l5.4,0.1L269,1019.7z
					 M269.4,999.4l-5.4-0.1l0.2-7.6l5.4,0.1L269.4,999.4z M270,979l-5.4-0.2c0.1-2.7,0.2-5.3,0.2-7.6l5.4,0.2
					C270.1,973.8,270,976.3,270,979z M270.7,958.7l-5.4-0.2c0.2-5,0.3-7.7,0.3-7.7l5.4,0.3C271,951.1,270.9,953.7,270.7,958.7z"/>
			</g>
		</g>
		<g>
			<g>
				<g>
					<g>
						<path d="M642.1,143.5c-22.6-29.3-65.1-29.4-90.6-13.1c-29.4,18.8-45.8,61.2-86.4,78.6c-153.7,66.3-34,218.3-0.2,215.2
							c26.8-2.5,25.6-38.6,45.2-57.1C554.6,325.1,710.9,232.6,642.1,143.5z"/>
						<g>
							<path class="st0" d="M596.2,439.7c-1,0.4-2.1,0.7-3.1,1.1c-17,8.9-35.3,13-55,12.3c-25.8-0.1-49.8-6.6-72-19.5l-16.4-12.6
								c3,38.4,5,93.6-5,100.6c-23.6,16.5,79.2,106.2,134.5,110.2c42.3,3,58.3-27.4,38.7-56.7C603.4,553.4,597.9,468.7,596.2,439.7z
								"/>
							<path d="M584.9,634.6c-1.9,0-3.9-0.1-5.8-0.2c-21.7-1.6-53.4-16.6-84.8-40.2c-29.3-22-50.9-45.8-54.9-60.6
								c-2.2-8,0.9-12.2,3.9-14.3c5.2-3.7,9-31.4,3.9-98.2l-0.5-6l21,16.2c21.7,12.5,45.4,18.9,70.5,19c19.2,0.7,37.2-3.3,53.7-12
								l0.4-0.2c1-0.3,2.1-0.7,3.1-1l3.4-1.2l0.2,3.6c4.2,72.2,11.8,119.8,21.3,134c9.8,14.6,11.5,30.4,4.5,42.4
								C617.7,627.9,603.4,634.6,584.9,634.6z M452.8,426.7c4.2,58.4,2,91-6.6,97c-0.8,0.6-3.4,2.4-1.8,8.4
								c7.7,27.9,87.5,93.5,134.9,96.9c19.2,1.4,34-4.4,40.6-15.7c6-10.3,4.4-23.7-4.3-36.7c-12.6-18.7-18.9-81.9-22-133.1
								c-17.2,8.9-35.9,13-55.7,12.3c-26-0.1-50.7-6.8-73.2-19.8l-0.3-0.2L452.8,426.7z"/>
						</g>
						<g>
							<path class="st0" d="M554,252.1c-11.6,32.5-64.2,3.4-86.6,35.3c-15,21.4-15.8,41.8-17.6,40c-50.4-50.8-64,49.8-3.9,56.1
								c0.4,0,3.6,28.9,5.3,60.3c18.9,13.8,110.7,70.7,159,32.1C643.6,433.8,615.3,266.7,554,252.1z"/>
							<path d="M568.4,491.9c-54.3,0-117.9-45.3-118.7-45.9l-1-0.8l-0.1-1.3c-1.4-26.6-4-51.3-4.9-58c-24.2-3.4-36.1-21.6-39.2-37.8
								c-3.1-15.8,1.7-30.5,11.5-35.7c5.3-2.8,16.5-5,33.1,10.4c0.1-0.3,0.2-0.6,0.3-1c1.9-7,5.7-21.4,16-36.1
								c11.8-16.9,31.6-17.8,49-18.6c17.2-0.8,32.1-1.4,37.3-16.1l0.8-2.3l2.3,0.6c22.4,5.3,42.5,30.4,56.5,70.7
								c18.5,53.4,23.4,129.4,1.2,157.4l-0.4,0.4C599.3,488.1,584.3,491.9,568.4,491.9z M453.8,442.5
								c27.6,19.9,111.2,65.8,154.4,31.6c18.6-24,17.6-94.9-2.2-152.1c-12.9-37.1-30.7-60.6-50.4-66.6
								c-7.1,15.9-24.4,16.6-41.2,17.4c-17,0.8-34.5,1.5-44.8,16.3c-9.7,13.9-13.3,27.2-15.2,34.4c-1.2,4.6-1.7,6.3-3.7,6.8
								c-1,0.3-2.1,0-2.9-0.8c-11.6-11.7-22.1-16-29.5-12.1c-7.6,4-11.3,16.6-8.7,29.9c2.8,14.7,13.9,31.3,36.5,33.7
								c2.6,0.3,2.6,0.3,4.6,20.8C451.5,409.5,452.9,425,453.8,442.5z"/>
						</g>
					</g>
				</g>
				<path d="M542.1,321.8c0.5,5.3-4,9.8-10,10.1c-6,0.3-11.3-3.7-11.8-8.9c-0.5-5.3,4-9.8,10-10.1
					C536.3,312.6,541.6,316.6,542.1,321.8z"/>
				<path d="M586.3,317.8c0.4,4.5-2.6,8.3-6.7,8.5c-4.1,0.2-7.7-3.2-8.1-7.7c-0.4-4.5,2.6-8.3,6.7-8.5
					C582.3,309.9,586,313.3,586.3,317.8z"/>
				<g>
					<path class="st0" d="M504.4,310.1c0,0,14.3-12.5,40.6-6.2"/>
					<path d="M504.4,312.7c-0.8,0-1.5-0.3-2-0.9c-1-1.1-0.9-2.8,0.3-3.8c0.6-0.5,15.6-13.3,43-6.8c1.4,0.3,2.3,1.8,2,3.2
						c-0.3,1.4-1.8,2.3-3.2,2c-24.5-5.8-37.7,5.2-38.2,5.7C505.6,312.5,505,312.7,504.4,312.7z"/>
				</g>
				<g>
					<path class="st0" d="M566.8,302.1c0,0,9-11,18-4.6"/>
					<path d="M566.8,304.8c-0.6,0-1.2-0.2-1.7-0.6c-1.1-0.9-1.3-2.6-0.4-3.8c3.7-4.5,12.9-11.3,21.7-5.1c1.2,0.9,1.5,2.5,0.6,3.8
						c-0.9,1.2-2.5,1.5-3.8,0.6c-6.8-4.8-14.1,3.8-14.4,4.2C568.3,304.4,567.6,304.8,566.8,304.8z"/>
				</g>
			</g>
			<g>
				<path d="M567.1,429.9c-6.3,0-13-0.9-20-2.6c-13.6-3.4-23.4-8.8-23.8-9c-1.3-0.7-1.8-2.4-1-3.7c0.7-1.3,2.4-1.8,3.7-1
					c0.4,0.2,37.9,20.7,65.7,4.9c1.3-0.7,2.9-0.3,3.7,1c0.7,1.3,0.3,2.9-1,3.7C586.5,427.7,577.3,429.9,567.1,429.9z"/>
			</g>
			<g>
				<path d="M439.7,369.3c-14.2-10.1-18.3-20.4-17.4-26.6c0.5-3.6,2.6-6.2,5.8-7.3c4.5-1.5,9.9,0.6,15,5.7l-3.8,3.8
					c-4.2-4.2-7.7-5-9.6-4.4c-1.5,0.5-2,1.9-2.1,3c-0.7,4.5,2.9,12.8,15.1,21.4L439.7,369.3z"/>
			</g>
		</g>
		<g>
			<path d="M610.6,273.1c-23.8-0.4-43.4,22.5-43.8,51.3c-0.4,28.8,18.6,52.5,42.4,53l234.8,4.4l1.4-104.3L610.6,273.1z"/>
			<g>
				<g>
					<path class="st0" d="M626.5,271.7c-45.9,5.6-47.7,96.1-1.7,109.4l286.3,20.2l1.9-138.6L626.5,271.7z"/>
					<path d="M913.8,404.2L911,404l-286.6-20.2l-0.3-0.1c-12.2-3.5-22-12.3-28.4-25.5c-5.6-11.6-8.1-25.8-6.9-40
						c2.2-27.4,16.9-46.7,37.4-49.2l0.2,0l289.3-9.1L913.8,404.2z M625.3,378.4l283.2,20l1.8-132.9l-283.6,8.9
						c-13.5,1.7-30.2,14.3-32.6,44.3C592.2,343.2,602.3,371.6,625.3,378.4z"/>
				</g>
				
					<linearGradient id="SVGID_1_" gradientUnits="userSpaceOnUse" x1="252.765" y1="-2188.564" x2="344.6364" y2="-2188.564" gradientTransform="matrix(0.8177 3.100000e-03 3.100000e-03 0.6198 674.634 1687.5251)">
					<stop  offset="0" style="stop-color:#163C5A"/>
					<stop  offset="0.9987" style="stop-color:#347294"/>
				</linearGradient>
				<path class="st1" d="M949.6,332.7c-0.5,38.3-17.7,69-38.5,68.6c-20.7-0.4-37.1-31.7-36.6-70c0.5-38.3,17.7-69,38.5-68.6
					S950.2,294.4,949.6,332.7z"/>
			</g>
			<g>
				<g>
					<path class="st0" d="M797.2,220.1c-94.3,11.3-98.1,195.8-3.4,222.9l589,41.2l3.8-282.3L797.2,220.1z"/>
					<path d="M1385.4,487.1l-2.8-0.2l-589.2-41.2l-0.3-0.1c-24.3-7-43.9-24.4-56.6-50.4c-11.3-23.2-16.3-51.6-14.1-79.9
						c4.4-54.5,33.6-92.9,74.5-97.8l0.2,0l592.2-18.3L1385.4,487.1z M794.3,440.3l585.8,41l3.7-276.6l-586.4,18.1
						c-46.3,5.6-66.5,53.6-69.6,92.9c-2.2,27.4,2.6,54.8,13.5,77.1C753.3,417.3,771.6,433.8,794.3,440.3z"/>
				</g>
				
					<linearGradient id="SVGID_00000014601730080918163610000005670348106723945638_" gradientUnits="userSpaceOnUse" x1="1065.6566" y1="-1690.1624" x2="1239.5111" y2="-1690.1624" gradientTransform="matrix(0.8889 3.500000e-03 3.500000e-03 0.6672 366.0362 1466.7091)">
					<stop  offset="0" style="stop-color:#163C5A"/>
					<stop  offset="0.9987" style="stop-color:#347294"/>
				</linearGradient>
				<path style="fill:url(#SVGID_00000014601730080918163610000005670348106723945638_);" d="M1461.9,344.5
					c-1,78-36.5,140.5-79.1,139.7c-42.7-0.8-76.4-64.7-75.3-142.6c1-78,36.5-140.5,79.1-139.7
					C1429.2,202.7,1462.9,266.6,1461.9,344.5z"/>
			</g>
			<g>
				<g>
					<path class="st0" d="M1300.7,186.1c-138.3,16.2-143.8,281.6-4.9,320.6l863.6,59.6l5.4-406.1L1300.7,186.1z"/>
					<path d="M2162.1,569.1l-2.8-0.2l-863.9-59.6l-0.3-0.1c-35.2-9.9-63.6-34.7-82.1-71.6c-16.5-33.1-23.9-73.6-20.7-114.1
						c6.2-78.2,48.6-133.2,108.1-140.2l0.2,0l867-26L2162.1,569.1z M1296.3,504l860.5,59.4l5.3-400.5l-861.3,25.8
						c-69,8.2-98.7,77.9-103.2,135.2c-3.1,39.5,4,79,20.2,111.2C1235.6,470.7,1262.7,494.5,1296.3,504z"/>
				</g>
				
					<linearGradient id="SVGID_00000099630980714326931760000017682215670371710866_" gradientUnits="userSpaceOnUse" x1="1901.6654" y1="-1786.3523" x2="2156.5903" y2="-1786.3523" gradientTransform="matrix(0.8889 3.700000e-03 3.700000e-03 0.6545 365.0988 1524.8732)">
					<stop  offset="0" style="stop-color:#163C5A"/>
					<stop  offset="0.9987" style="stop-color:#347294"/>
				</linearGradient>
				<path style="fill:url(#SVGID_00000099630980714326931760000017682215670371710866_);" d="M2275.4,365.3
					c-1.5,112.1-53.4,202.1-116,200.9c-62.5-1.2-112-93-110.5-205.2c1.5-112.1,53.4-202.1,116-200.9
					C2227.4,161.3,2276.9,253.2,2275.4,365.3z"/>
			</g>
			<g>
				<g>
					<path class="st0" d="M2347.9,93l-603.4,51.3l0,0.1c-75.6,5.2-137.6,95.6-140.2,207.1c-2.7,115.4,59.3,209.6,138.4,210.4
						c0,0,0,0,0.1,0l593,57.9L2347.9,93z"/>
					<path d="M2338.5,622.7l-595.8-58.2c-29.8-0.3-58.1-13.5-81.9-38.2c-38.6-40-60.7-105.4-59.1-175
						c2.6-111.4,64.2-202.9,140.7-209.6l1.9-0.2L2350.7,90L2338.5,622.7z M1742.9,559.1l0.2,0l590.1,57.6l11.9-520.9l-598,50.8l0,0
						l-2.4,0.2c-74.7,5.1-135.1,94.9-137.7,204.5c-1.6,68.2,20,132.2,57.6,171.2c22.8,23.6,49.8,36.2,78.1,36.5L1742.9,559.1z"/>
				</g>
				
					<linearGradient id="SVGID_00000170994389464923879530000017367694857900293251_" gradientUnits="userSpaceOnUse" x1="2163.3408" y1="355.7414" x2="2520.3052" y2="355.7414">
					<stop  offset="0" style="stop-color:#163C5A"/>
					<stop  offset="0.9987" style="stop-color:#347294"/>
				</linearGradient>
				<path style="fill:url(#SVGID_00000170994389464923879530000017367694857900293251_);" d="M2520.2,357.7
					c-3.4,145.7-86,262.9-184.5,261.9c-98.5-1.1-175.6-120.1-172.3-265.8c3.4-145.7,86-262.9,184.5-261.9
					C2446.4,93,2523.6,212,2520.2,357.7z"/>
				<path d="M2346.6,91.9c-97.9,0-179.8,116.8-183.1,261.9c-3.4,145.7,73.8,264.7,172.3,265.8c0.5,0,0.9,0,1.3,0
					c97.9,0,179.8-116.8,183.1-261.9c3.4-145.7-73.8-264.7-172.3-265.8C2347.5,91.9,2347,91.9,2346.6,91.9L2346.6,91.9z"/>
			</g>
			<g>
				<path class="st5" d="M2359,107.2L2359,107.2c0.3,0,0.6,0,0.9,0c34.9,0.4,69.8,25.8,95.9,69.6c28.7,48.2,43.7,112.4,42.3,180.7
					c-1.4,68-19,131.5-49.5,179c-27.7,43.2-63.6,67.9-98.3,67.9c-0.3,0-0.6,0-0.9,0c-34.8-0.4-69.8-25.8-95.9-69.6
					c-28.7-48.2-43.7-112.4-42.3-180.7c1.4-68,19-131.5,49.5-179C2288.4,131.9,2324.2,107.2,2359,107.2"/>
				<path d="M2350.2,607l-0.9,0c-35.8-0.4-71.6-26.3-98.2-70.9c-29-48.6-44.1-113.3-42.6-182.1c1.5-68.5,19.2-132.5,49.9-180.4
					c28.2-43.9,64.9-69.2,100.5-69.2l0,0l0.9,0c35.8,0.4,71.6,26.3,98.2,70.9c29,48.6,44.1,113.3,42.6,182.1
					c-1.5,68.5-19.2,132.5-49.9,180.4C2422.5,581.8,2385.9,607,2350.2,607z M2359,109.8c-33.8,0-68.8,24.3-96,66.7
					c-30.2,47-47.7,110.1-49.1,177.6c-1.4,67.8,13.4,131.5,41.9,179.2c25.6,43,59.7,67.9,93.6,68.3l0.9,0c33.8,0,68.8-24.3,96-66.7
					c30.2-47,47.7-110.1,49.1-177.6c1.4-67.8-13.4-131.5-41.9-179.2c-25.6-43-59.7-67.9-93.6-68.3L2359,109.8L2359,109.8z"/>
			</g>
			<g>
				<polygon class="st0" points="2342.5,140.1 2342.5,140.1 2342.5,140.1 				"/>
				<path class="st0" d="M2439.3,199.9c-26.1-37.6-61-59.4-95.9-59.8c-0.3,0-0.6,0-0.9,0c-22.8,0-46,9.1-67.1,25.9
					c10.4-2.8,21-4.3,31.5-4.3c0,0,0,0,0,0h0c0,0,0,0,0,0c0.4,0,0.7,0,1,0c40,0.4,80.1,22.1,110,59.8
					c32.9,41.4,50.1,96.5,48.5,155.2c-1.7,58.4-21.8,113-56.8,153.7c-4.7,5.5-9.7,10.7-14.8,15.5c13.3-9.5,25.9-21.9,37.2-37
					c30.5-40.7,48.1-95.3,49.5-153.7C2483,296.4,2468,241.3,2439.3,199.9z"/>
			</g>
		</g>
		<g>
			<g>
				<path class="st0" d="M1271,206.4c-25.6-19.2-38.3,140.9-48.4,138.5c-14.9-3.5,19-142.9-5.3-142.9c-32.3,0-25,120-32.2,120.6
					c-15.5,1.3,13.8-123.8-14.9-125.3c-30.5-1.6-25.6,127.8-37.4,122.6c-13.7-6.1,3.6-125.3-22.3-121.4
					c-43.8,6.6-10.8,228.8-111.5,247.6c-28.2,5.3-104.5-11.7-81.2,13.5c34.5,37.3,101.5,29.1,101.5,75.9
					c0,48.1-36.1,304.1-266.9,326.5C512.3,885.3,541,602.7,337.3,573.2C191.4,552,78.9,703.4,133.6,867.7
					c80.9,243,399.3,364.9,649.3,291.5C1292.4,1009.6,1280.6,213.6,1271,206.4z"/>
				<path d="M630.8,1183.1c-79.9,0-161.6-16.4-237-48.6c-62.6-26.8-117-62.6-161.6-106.6c-47.4-46.7-81.4-100.3-101.1-159.4
					c-28-84.2-14.2-171,37-232.2c42.8-51.2,104.7-75.2,169.6-65.8c94.7,13.7,140.1,81.9,183.9,147.8
					c52.5,78.9,102.1,153.5,230.3,141.1c52.6-5.1,98.9-23,137.7-53.2c32-24.9,59-58.2,80.2-99c38.2-73.5,46.6-148.8,46.6-171.7
					c0-25.4-21.6-33.6-46.7-43.1c-18.4-7-39.2-14.9-54.1-31c-1.7-1.8-6.8-7.4-4.5-12.4c3.5-7.5,20.2-6.9,47.1-5.5
					c15,0.8,30.5,1.7,40-0.1c58.7-11,70.7-94.4,80.3-161.4c6.7-46.5,11.9-83.3,31.3-86.2c3-0.4,5.8,0.3,8.1,2.3
					c10.2,8.7,10.6,40.8,11,71.8c0.2,17.3,0.5,42.9,4.1,47c2.4-4,4.4-22,6.1-36.6c4.4-38.7,9.8-86.8,31-85.7c3.2,0.2,6,1.5,8.3,4.1
					c10.1,11.4,7.8,46.2,5.8,76.9c-1,15.3-2.5,37.7-0.2,43.2c1.1-4.5,1.8-15.8,2.5-26.1c2.6-39.5,6.2-93.5,30.6-93.5
					c2.4,0,4.6,1,6.4,2.9c8.3,9.2,5.9,38.6,1.3,82.4c-2.2,20.7-5.4,51.3-2.2,57c2.8-5.1,6.8-26.4,10.4-45.2
					c9.5-49.9,17.7-88.5,30.7-93.6c2.1-0.8,5.3-1.2,8.9,1.5l0,0c1.1,0.8,2.8,2.1,3.5,27c0.6,17.6,0.3,40.6-0.7,64.6
					c-1.9,47.7-7.6,123.1-23.7,212c-27.3,150.8-73.1,280.4-136.2,385.1c-83.3,138.2-195,228.6-331.8,268.8
					C735,1176,683.2,1183.1,630.8,1183.1z M310.2,573.9c-53.1,0-102.3,23.2-138,65.8c-50,59.8-63.5,144.7-36,227.1
					c19.4,58.3,53,111.2,99.8,157.3c44.2,43.5,98,79,160,105.5c123.8,52.9,264.5,62.7,386.2,27c161.9-47.5,287.3-165.2,372.8-349.8
					c65.4-141.2,93.6-293.1,105.8-395.7c13.6-114.5,10.6-195.1,8.2-202.9c-1.5-1-2.6-0.8-3.3-0.5c-11.2,4.4-20.9,55.6-27.3,89.6
					c-6.4,33.9-9.2,46.9-13.4,49.6c-0.9,0.6-2,0.8-3,0.6c-8.5-2-6.7-23.2-2.5-63.5c3.3-31.3,7.4-70.2,0.1-78.2
					c-0.7-0.8-1.4-1.1-2.4-1.1c-19.4,0-23.2,57.6-25.2,88.5c-1.7,25.2-2.3,31.7-6.7,32.1c-1.6,0.1-3-0.4-4.2-1.5
					c-4.8-4.7-4-20.7-2.2-48.5c1.9-28.2,4.2-63.3-4.5-73c-1.3-1.5-2.7-2.2-4.5-2.3c-0.1,0-0.3,0-0.4,0c-15.8,0-21.3,48.6-24.9,80.9
					c-3.2,28-4.8,38.8-9.1,41.3c-1.2,0.7-2.6,0.8-3.9,0.2c-7-3.1-7.5-21-7.9-52.3c-0.3-27-0.8-60.6-9.1-67.7c-1.1-1-2.3-1.3-3.8-1.1
					c-15.5,2.3-20.7,39.1-26.8,81.7c-9.8,68.7-22.1,154.3-84.6,165.9c-10.1,1.9-26,1-41.3,0.2c-15.8-0.9-39.8-2.2-41.9,2.4
					c-0.4,0.8,0.3,3,3.6,6.5c14,15.1,33.3,22.5,52,29.6c25.8,9.8,50.2,19.1,50.2,48.2c0,23.2-8.5,99.7-47.2,174.1
					c-21.6,41.5-49.1,75.4-81.7,100.8c-39.6,30.8-86.8,49.1-140.5,54.3c-59,5.7-107.2-6.6-147.5-37.7
					c-35.8-27.7-62.2-67.3-87.8-105.7C474,656.4,429.3,589.2,337,575.8C328,574.5,319,573.9,310.2,573.9z"/>
			</g>
			<g>
				<path class="st0" d="M337.3,573.2C191.4,552,78.9,703.4,133.6,867.7c33.2,99.7,151.1,227.8,243.1,281.6
					c224.4-56.4,228.8-276.1,238.5-318C512.2,760.4,490.4,595.3,337.3,573.2z"/>
				<path d="M376.4,1152.1l-0.9-0.6c-45.8-26.7-98.4-72-144.3-124.1c-48.8-55.4-84.3-111.8-100-158.9c-28-84.2-14.2-171,37-232.2
					c42.8-51.2,104.7-75.2,169.6-65.8l0,0c94.7,13.7,140.1,81.9,183.9,147.8c27.3,41,55.5,83.4,95.2,110.7l1.5,1l-0.4,1.8
					c-1.1,4.7-2.1,11.7-3.4,20.5c-10,68.1-36.5,249.1-237.1,299.5L376.4,1152.1z M310.2,573.9c-53.1,0-102.3,23.2-138,65.8
					c-50,59.8-63.5,144.7-36,227.1c15.5,46.4,50.6,102.2,99,157.1c45.3,51.4,97,95.9,142,122.5c83.8-21.3,146.3-68.4,185.5-139.9
					c32.4-59,41.6-121.4,46.5-154.9c1.2-7.9,2.1-14.4,3.1-19.2c-39.7-27.9-67.9-70.2-95.1-111.1C474,656.4,429.3,589.2,337,575.8
					C328,574.5,319,573.9,310.2,573.9z"/>
			</g>
		</g>
		<g>
			<path d="M552.1,396.2c-5.5,0-10.1-1-10.5-1c-1.5-0.3-2.4-1.7-2.1-3.2c0.3-1.5,1.7-2.4,3.2-2.1c5.2,1.1,19.8,2.5,24-4.5
				c3.8-6.3-7-42.6-15.9-66.3c-0.5-1.4,0.2-2.9,1.6-3.5c1.4-0.5,2.9,0.2,3.5,1.6c3.7,10,22,60.2,15.5,71
				C567.4,394.7,559,396.2,552.1,396.2z"/>
		</g>
		<g>
			<path d="M577.8,661.1l0-5.4c2.5,0,5-0.1,7.5-0.2l0.3,5.4C583,661,580.4,661,577.8,661.1z M564.8,660.5c-2.6-0.2-5.2-0.6-7.7-1
				l0.8-5.3c2.4,0.4,4.9,0.7,7.4,0.9L564.8,660.5z M598.4,659.5l-0.8-5.3c2.4-0.4,4.9-0.8,7.4-1.2l1,5.3
				C603.6,658.7,601,659.2,598.4,659.5z M544.4,656.9c-2.5-0.6-5-1.4-7.5-2.2l1.6-5.1c2.4,0.8,4.8,1.5,7.2,2.1L544.4,656.9z
				 M618.7,655.3l-1.4-5.2c2.4-0.6,4.8-1.4,7.2-2.1l1.6,5.1C623.6,653.9,621.1,654.7,618.7,655.3z M524.8,650.2
				c-2.4-1-4.7-2.1-7-3.3l2.4-4.8c2.2,1.1,4.5,2.2,6.8,3.2L524.8,650.2z M638.3,647.3l-3.2-4.3c1.9-1.4,3.5-3,5-4.8l4.2,3.3
				C642.5,643.7,640.5,645.6,638.3,647.3z M506.5,640.6c-2.2-1.3-4.4-2.8-6.5-4.2l3.1-4.4c2.1,1.4,4.2,2.8,6.3,4.1L506.5,640.6z
				 M650.5,629.3l-5.2-1.5c0.7-2.2,1.1-4.5,1.5-7l5.3,0.7C651.8,624.2,651.2,626.9,650.5,629.3z M489.6,628.6c-2-1.6-4-3.3-5.9-5
				l3.6-4c1.9,1.7,3.8,3.3,5.7,4.9L489.6,628.6z M474.4,614.7c-1.8-1.8-3.6-3.7-5.3-5.6l4-3.6c1.7,1.9,3.4,3.7,5.2,5.5L474.4,614.7z
				 M647.1,608.6c-0.1-2.4-0.4-4.8-0.7-7.4l5.3-0.7c0.4,2.7,0.6,5.3,0.7,7.8L647.1,608.6z M460.6,599.3c-1.6-2-3.2-4-4.8-6.1
				l4.3-3.3c1.5,2,3.1,4,4.7,5.9L460.6,599.3z M644.2,588.9c-0.5-2.4-1.2-4.8-1.9-7.3l5.2-1.4c0.7,2.6,1.4,5.1,1.9,7.5L644.2,588.9z
				 M448.4,582.8c-1.5-2.2-2.9-4.3-4.3-6.4l4.5-2.9c1.3,2.1,2.7,4.2,4.2,6.3L448.4,582.8z M638.6,569.6c-0.8-2.4-1.7-4.8-2.6-7.1
				l5-1.9c0.9,2.4,1.8,4.8,2.6,7.3L638.6,569.6z M437.4,565.4c-1.3-2.3-2.6-4.5-3.8-6.7l4.7-2.6c1.2,2.2,2.4,4.4,3.7,6.6
				L437.4,565.4z M631.4,550.8c-1-2.4-2-4.7-3-6.9l4.9-2.2c1,2.2,2,4.6,3.1,7.1L631.4,550.8z M427.7,547.2c-1.2-2.5-2.3-4.8-3.3-7
				l4.9-2.2c1,2.2,2.1,4.4,3.2,6.9L427.7,547.2z M622.9,532.4c-1.3-2.7-2.5-5-3.5-6.8l4.8-2.5c0.9,1.8,2.1,4.1,3.5,6.9L622.9,532.4z
				 M419.4,528.4c-1.8-4.6-2.7-7.2-2.8-7.4l5.1-1.7c0,0,0.9,2.6,2.6,7.1L419.4,528.4z"/>
		</g>
		<path class="st6" d="M137.6,1543.4c0,0-204.3-923.1,56.6-923.6c96-0.2,93.5,334.9,139.9,515.8c76.9,299.7,243.2,407.8,243.2,407.8
			H137.6z"/>
		<g>
			<rect x="134.9" y="1538.6" width="1785.1" height="5.4"/>
		</g>
	</g>
</g>
</svg>
