<?xml version="1.0" encoding="utf-8"?>
<!-- Generator: Adobe Illustrator 26.5.0, SVG Export Plug-In . SVG Version: 6.00 Build 0)  -->
<svg version="1.1" xmlns="http://www.w3.org/2000/svg" xmlns:xlink="http://www.w3.org/1999/xlink" x="0px" y="0px"
	 viewBox="0 0 1656.5 1593.2" style="enable-background:new 0 0 1656.5 1593.2;" xml:space="preserve">
<style type="text/css">
	.st0{fill:#FFFFFF;}
	.st1{fill:#C19A51;}
	.st2{opacity:0.5;fill:#D8D8D8;}
</style>
<g id="Bg">
</g>
<g id="Object">
	<g>
		<rect x="360.9" y="1270.4" width="453.9" height="4.1"/>
	</g>
	<g>
		<g>
			<path class="st0" d="M711.5,812C624,827.5,317.4,1037.7,133.3,866C-79.8,667.3,191,425.4,191,425.4s173.4,0.2,147.1,150.1
				c0,0-84.8,95.2-49.5,131.5c47.8,49,351.2-77.2,410.3-98.1C758,588.2,783.2,799.2,711.5,812z"/>
			<path d="M314,935.1c-22.5,0-43.8-2.1-63.8-6.3c-45.1-9.5-84.9-30.1-118.2-61.3c-55.4-51.6-83.1-110.9-82.4-176.1
				c0.4-41,13-106.8,70.7-187.7c34.4-48.3,69.1-79.5,69.4-79.8l0.6-0.5l0.8,0c0.8,0,85.2,0.7,127.5,51.2
				c21.6,25.7,28.8,59.8,21.6,101.3l-0.1,0.6l-0.4,0.4c-0.8,0.9-83.2,94.2-49.5,128.7c17.2,17.6,71.9,13.4,162.6-12.5
				c75.6-21.6,159-53.4,208.9-72.4c16-6.1,28.6-10.9,36.6-13.7c9.9-3.5,19.7-1,28.3,7.2c13,12.4,23.2,37.7,28,69.3
				c4.8,31.4,3.3,63.2-4,87.2c-7.6,25.1-21,40-38.7,43.2l-0.4-2l0.4,2c-20,3.5-51.4,17.3-91.2,34.7
				c-64.2,28.1-152.1,66.6-239.9,80.8C357.5,933.2,335.2,935.1,314,935.1z M191.8,427.5c-4.7,4.3-36.6,34.2-68.3,78.7
				c-57,80-69.4,144.9-69.8,185.3c-0.7,64,26.6,122.3,81.1,173.1c32.8,30.6,72,50.9,116.3,60.3c38.3,8.1,81.7,8.3,129.1,0.7
				c87.3-14.1,174.9-52.5,238.9-80.5c40-17.5,71.6-31.4,92.1-35c20.4-3.6,30.6-23.9,35.6-40.4c14.9-49.2,3.1-127.5-23-152.4
				c-7.5-7.2-15.6-9.3-24.2-6.3c-8,2.8-20.6,7.6-36.6,13.7c-49.9,19-133.5,50.9-209.2,72.5c-93.6,26.7-148.1,30.4-166.6,11.4
				c-15.4-15.8-11.6-43.3,11.2-81.8c15.5-26.1,34.9-48.6,37.8-52c6.9-40-0.1-72.8-20.8-97.5C276.4,430.7,200.3,427.7,191.8,427.5z"
				/>
		</g>
	</g>
	<g>
		<g>
			<g>
				<path class="st0" d="M639.5,620.3c123.4-52.5,302-33.3,484.2-14.4c72.7,230.4,95.1,453.1,53.9,666.2l-606.3,0.3
					c0,0,70.1-228.2,38.9-411.5C590,742.4,552.2,635,639.5,620.3z"/>
				<path d="M568.6,1274.4l0.8-2.6c0.2-0.6,17.7-57.9,31.1-136.8c22.5-131.9,16.6-221.7,7.7-273.7c-3.2-18.5-6.7-36.7-10.2-54.3
					c-13.7-69.9-25.6-130.2-2.6-163.5c9.3-13.4,23.5-21.6,43.4-25c122.5-52,295.7-34.1,479-15.1l7.3,0.8l0.4,1.3
					c37,117.2,60.4,231.6,69.7,340c9.7,112.8,4.4,222.9-15.7,327.1l-0.3,1.6L568.6,1274.4z M850.7,588.2c-79.2,0-150.9,8.6-210.5,34
					l-0.5,0.1c-18.9,3.2-32.4,10.8-41,23.3c-22.1,31.9-10.4,91.5,3.2,160.5c3.5,17.6,7.1,35.9,10.2,54.4
					c8.9,52.4,14.9,142.7-7.7,275.2c-11.9,69.6-26.9,122.5-30.4,134.6l601.9-0.3c19.8-103.4,25-212.5,15.4-324.4
					c-9.3-107.8-32.5-221.4-69.2-337.9l-4.7-0.5C1024.1,597.6,933.3,588.2,850.7,588.2z"/>
			</g>
		</g>
		<g>
			<ellipse cx="888.7" cy="329.5" rx="79.4" ry="85.6"/>
			<ellipse class="st1" cx="865.4" cy="403.8" rx="56.2" ry="60.6"/>
			<g>
				<path class="st0" d="M820.8,536.5c0.6,0.2,85-10.5,85-10.5l6,58.8c3,16.6-18.3,205.8-106.1,195.3c-49.5-5.9,19-161.3,21-181.9
					C828.2,584.1,821.6,553.5,820.8,536.5z"/>
				<path d="M812.8,782.6c-2.4,0-4.7-0.1-7.2-0.4c-6.3-0.8-11.2-3.8-14.5-9c-15.8-25.1,8-95.4,23.7-141.9
					c5.4-15.9,9.6-28.5,10.1-33.1c0.8-8.2-1.2-22.2-3.1-35.7c-1.3-9.6-2.6-18.8-2.9-25.8l-0.1-2.7l2.3,0.6
					c4.5-0.4,62.2-7.6,84.6-10.5l2.1-0.3l6.2,60.8c2.3,13.6-10.1,128.3-55.4,176.4C844.9,775.3,829.5,782.6,812.8,782.6z M823,538.3
					c0.4,6.6,1.6,14.8,2.8,23.5c1.9,13.8,3.9,28,3.1,36.7c-0.5,5.1-4.6,17.2-10.3,34c-14.6,43-38.9,115-24.1,138.5
					c2.7,4.2,6.5,6.6,11.6,7.2c18.2,2.2,34.9-4.6,49.5-20c44.6-47.3,56.7-160,54.4-172.9l0-0.2l-5.8-56.7
					C846,535.6,828.4,537.7,823,538.3z"/>
			</g>
			<g>
				<g>
					<g>
						<g>
							<g>
								<path d="M774.6,497.4c19.1,42,68.7,60.6,110.7,41.5c42-19.1,60.6-68.7,41.5-110.7c-19.1-42-72-73.7-114-54.5
									C770.7,392.7,755.4,455.4,774.6,497.4z"/>
								<g>
									<path class="st0" d="M797.5,435.7c12.9,15.5,46.8-4.2,65.6,8.8c12.6,8.7,17.2,19.8,17.8,18.4c17.4-38.1,45.2,14.4,13.5,30
										c-0.2,0.1,6,15.6,11.5,33.2c-7.5,11.4-36,63.8-70.3,52.5C808.6,562.1,766.7,456.1,797.5,435.7z"/>
									<path d="M845.3,582.1c-3.4,0-6.9-0.5-10.4-1.7l-0.4-0.2c-21.6-13.1-49.1-76.2-49.8-114.4c-0.3-15.8,3.6-26.5,11.7-31.8
										l1.5-1l1.2,1.4c6,7.1,17.6,5.9,29.9,4.5c12.5-1.4,25.5-2.8,35.3,3.9c8.6,5.9,13.6,13,16.1,16.5c6-11.4,12.6-12.5,16.2-12
										c6.6,0.9,12.4,8.1,13.9,17.6c1.6,9.5-1.3,21.9-13.6,28.9c0.3,0.7,0.6,1.6,1,2.6c2.2,5.9,6.3,16.9,10,29l0.3,0.9l-0.5,0.8
										c-0.7,1-1.6,2.4-2.6,4.1C895.8,545.8,873.3,582.1,845.3,582.1z M836.4,576.6c29.6,9.6,55.4-31.9,65.1-47.5
										c0.8-1.3,1.5-2.4,2.1-3.4c-3.6-11.6-7.5-22.2-9.7-27.9c-0.5-1.4-0.9-2.4-1.2-3.2c-0.4-1.2-1-2.8,0.6-3.6
										c11.7-5.8,14.4-16.9,13-25.4c-1.3-7.6-5.7-13.6-10.5-14.3c-4.7-0.6-9.4,3.8-13.3,12.4c-0.3,0.7-1,1.2-1.8,1.3
										c-1.4,0.1-2.1-0.8-3.8-3.2c-2.5-3.5-7.1-10.1-15.2-15.7c-8.5-5.9-20.7-4.5-32.5-3.2c-12.7,1.4-24.7,2.7-32.2-4.5
										c-7.3,6.1-8.7,18.1-8.5,27.4c0.4,17.8,6.7,42.4,17.1,65.7C815.6,553.7,827.3,570.9,836.4,576.6z"/>
								</g>
							</g>
						</g>
						<path d="M829,484.6c0.9,3.4,4.7,5.1,8.5,4c3.8-1.2,6.1-4.8,5.2-8.2c-0.9-3.4-4.7-5.1-8.5-4C830.5,477.6,828.1,481.3,829,484.6
							z"/>
						<path d="M801.2,493.2c0.9,3.4,4.2,5.4,7.3,4.5c3.1-1,4.9-4.5,3.9-8c-0.9-3.4-4.2-5.4-7.3-4.5
							C802,486.2,800.3,489.8,801.2,493.2z"/>
						<g>
							<path class="st0" d="M847.1,469.8c0,0-10.4-4-23.6,4.8"/>
							<path d="M823.6,476.7c-0.7,0-1.3-0.3-1.7-0.9c-0.6-0.9-0.4-2.2,0.6-2.8c13.9-9.2,24.9-5.2,25.4-5c1,0.4,1.6,1.6,1.2,2.6
								c-0.4,1-1.6,1.6-2.6,1.2c-0.4-0.1-9.7-3.4-21.7,4.6C824.4,476.6,824,476.7,823.6,476.7z"/>
						</g>
						<g>
							<path class="st0" d="M811.3,478.1c0,0-7.2-4.2-10.8,1.1"/>
							<path d="M800.4,481.2c-0.4,0-0.8-0.1-1.1-0.4c-0.9-0.6-1.2-1.9-0.5-2.8c3.7-5.5,10.5-3.5,13.5-1.7c1,0.6,1.3,1.8,0.7,2.8
								c-0.6,1-1.8,1.3-2.8,0.7l0,0c-0.2-0.1-5.6-3.2-8.2,0.5C801.7,480.9,801.1,481.2,800.4,481.2z"/>
						</g>
					</g>
					<g>
						<path class="st0" d="M888.7,469.6c5.3-11.4,16.1-3.1,4.9,13.2"/>
						<path d="M895.2,484l-3.3-2.3c4.5-6.6,5.3-12,3.9-14.4c-0.4-0.7-0.8-1-1.4-1c-1,0-2.6,1.1-4,4.1l-3.7-1.7
							c1.8-4,4.6-6.4,7.5-6.5c2.1-0.1,4,1,5.1,3.1C901.8,469.7,900.2,476.7,895.2,484z"/>
					</g>
				</g>
				<g>
					<path d="M829.4,518.5c-2.4,0-4.9-0.6-6.9-2.2c-6.1-4.8-3.1-27.2-2.4-31.6c0.2-1.1,1.2-1.9,2.3-1.7c1.1,0.2,1.9,1.2,1.7,2.3
						c-1.7,11.7-1.9,25.6,1,27.9c3.6,2.9,10.6,0.3,13-1c1-0.5,2.2-0.1,2.7,0.9c0.5,1,0.1,2.2-0.9,2.7
						C839.6,516,834.6,518.5,829.4,518.5z"/>
				</g>
			</g>
			<g>
				<path d="M848.7,535.3c-2.1,0-3.5-0.3-3.6-0.3c-1.1-0.2-1.8-1.3-1.6-2.4c0.2-1.1,1.3-1.8,2.4-1.6c0.1,0,6.2,1.2,11.2-2.1
					c3.2-2.1,5.4-5.7,6.4-10.7c0.2-1.1,1.3-1.8,2.4-1.6c1.1,0.2,1.8,1.3,1.6,2.4c-1.2,6.1-4,10.5-8.2,13.3
					C855.5,534.8,851.5,535.3,848.7,535.3z"/>
			</g>
			<g>
				<g>
					<path class="st1" d="M796.3,521.3c-12.1,0-22-12.6-22-28c0-15.4,9.8-28,22-28c12.1,0,22,12.6,22,28
						C818.3,508.8,808.4,521.3,796.3,521.3z M796.3,469.2c-10,0-18.1,10.8-18.1,24.1c0,13.3,8.1,24.1,18.1,24.1
						c10,0,18.1-10.8,18.1-24.1C814.4,480,806.3,469.2,796.3,469.2z"/>
				</g>
				<g>
					<path class="st1" d="M843.5,510c-13.2,0-24-13.7-24-30.6s10.8-30.6,24-30.6c13.2,0,24,13.7,24,30.6S856.7,510,843.5,510z
						 M843.5,452.6c-11.1,0-20.1,12-20.1,26.8c0,14.8,9,26.8,20.1,26.8s20.1-12,20.1-26.8C863.6,464.6,854.6,452.6,843.5,452.6z"/>
				</g>
				<g>
					<rect x="815.6" y="484.5" class="st1" width="6.5" height="3.9"/>
				</g>
				<g>
					
						<rect x="862.2" y="460.6" transform="matrix(0.8439 -0.5365 0.5365 0.8439 -111.2655 542.7)" class="st1" width="29.5" height="3.9"/>
				</g>
			</g>
		</g>
	</g>
	<g>
		<path d="M817.1,861c-5.7,0-11.4-0.9-17.2-2.6c-18.7-5.6-32.4-17.6-40.9-35.6c-14.8-31.6-13.6-81.2,3.6-147.4
			c12.7-49.1,30-89.5,30.2-89.9l3.7,1.6c-0.7,1.6-68.2,160.3-33.9,233.9c7.9,17,20.8,28.2,38.4,33.5c15.9,4.7,31.5,2.5,46.3-6.8
			c74.9-46.7,110.8-255.3,111.2-257.4l4,0.7c-0.1,0.5-9.1,53.6-27.4,111.8c-24.6,78.4-53.5,128.3-85.6,148.4
			C839,857.7,828.1,861,817.1,861z"/>
	</g>
	<g>
		<g>
			
				<rect x="314.2" y="441.7" transform="matrix(0.9856 -0.1693 0.1693 0.9856 -115.6457 100.7745)" class="st1" width="437.6" height="573.4"/>
			<g>
				<g>
					<path d="M343,564.6c-1,0-1.8-0.7-2-1.7c-0.2-1.1,0.6-2.1,1.7-2.3l307.1-52.8c1.1-0.2,2.1,0.6,2.3,1.7c0.2,1.1-0.6,2.1-1.7,2.3
						l-307.1,52.8C343.2,564.6,343.1,564.6,343,564.6z"/>
				</g>
				<g>
					<path d="M353.2,624.2c-1,0-1.8-0.7-2-1.7c-0.2-1.1,0.6-2.1,1.7-2.3L660,567.4c1.1-0.2,2.1,0.6,2.3,1.7c0.2,1.1-0.6,2.1-1.7,2.3
						l-307.1,52.8C353.5,624.2,353.3,624.2,353.2,624.2z"/>
				</g>
				<g>
					<path d="M363.5,683.7c-1,0-1.8-0.7-2-1.7c-0.2-1.1,0.6-2.1,1.7-2.3l307.1-52.8c1.1-0.2,2.1,0.6,2.3,1.7
						c0.2,1.1-0.6,2.1-1.7,2.3l-307.1,52.8C363.7,683.7,363.6,683.7,363.5,683.7z"/>
				</g>
				<g>
					<path d="M373.7,743.2c-1,0-1.8-0.7-2-1.7c-0.2-1.1,0.6-2.1,1.7-2.3l307.1-52.8c1.1-0.2,2.1,0.6,2.3,1.7
						c0.2,1.1-0.6,2.1-1.7,2.3L374,743.2C373.9,743.2,373.8,743.2,373.7,743.2z"/>
				</g>
				<g>
					<path d="M383.9,802.7c-1,0-1.8-0.7-2-1.7c-0.2-1.1,0.6-2.1,1.7-2.3L690.7,746c1.1-0.2,2.1,0.6,2.3,1.7c0.2,1.1-0.6,2.1-1.7,2.3
						l-307.1,52.8C384.1,802.7,384,802.7,383.9,802.7z"/>
				</g>
			</g>
		</g>
		<g>
			<g>
				<polygon class="st0" points="314.8,717.9 610.2,522.1 905.7,719.4 				"/>
				<path d="M912.4,721.4l-604.3-1.5l302.1-200.3L912.4,721.4z M321.5,715.9l577.5,1.4L610.2,524.5L321.5,715.9z"/>
			</g>
			<g>
				<g>
					<rect x="310.4" y="719.4" class="st0" width="600.1" height="383.1"/>
					<path d="M912.5,1104.5H308.4V717.3h604.1V1104.5z M312.4,1100.5h596V721.4h-596V1100.5z"/>
				</g>
				<g>
					<path d="M437.4,814.6h-11.7v-4.1l11.7,0V814.6z M416,814.6h-9.7v-4.1h9.7V814.6z M396.6,814.6h-9.7v-4.1h9.7V814.6z
						 M377.3,814.6h-9.7v-4.1h9.7V814.6z M357.9,814.6h-9.7v-4.1h9.7V814.6z M348.6,804.6h-4.1v-9.7h4.1V804.6z M437.4,800.8h-4.1
						v-9.7h4.1V800.8z M348.6,785.2h-4.1v-9.7h4.1V785.2z M437.4,781.5h-4.1v-9.7h4.1V781.5z M432.8,766.8h-9.7v-4.1h9.7V766.8z
						 M413.4,766.8h-9.7v-4.1h9.7V766.8z M394,766.8h-9.7v-4.1h9.7V766.8z M374.6,766.8h-9.7v-4.1h9.7V766.8z M355.2,766.8h-8.7v-1
						h-2v-3.1h10.7V766.8z"/>
				</g>
				<g>
					<rect x="447.1" y="764.7" class="st1" width="82.7" height="47.9"/>
					<path d="M531.9,814.6h-11.7v-4.1h7.7v-7h4.1V814.6z M510.4,814.6h-9.7v-4.1h9.7V814.6z M491.1,814.6h-9.7v-4.1h9.7V814.6z
						 M471.7,814.6H462v-4.1h9.7V814.6z M452.3,814.6h-7.2V808h4.1v2.5h3.1V814.6z M449.2,798.3h-4.1v-9.7h4.1V798.3z M531.9,793.9
						h-4.1v-9.7h4.1V793.9z M449.2,779h-4.1v-9.7h4.1V779z M531.9,774.5h-4.1v-9.7h4.1V774.5z M520.2,766.8h-9.7v-4.1h9.7V766.8z
						 M500.8,766.8h-9.7v-4.1h9.7V766.8z M481.4,766.8h-9.7v-4.1h9.7V766.8z M462,766.8h-9.7v-4.1h9.7V766.8z"/>
				</g>
				<g>
					<g>
						<rect x="583.9" y="877.5" width="268.9" height="4.1"/>
					</g>
					<g>
						<rect x="583.9" y="912.7" width="268.9" height="4.1"/>
					</g>
					<g>
						<rect x="583.9" y="947.8" width="268.9" height="4.1"/>
					</g>
					<g>
						<rect x="583.9" y="983.9" width="268.9" height="4.1"/>
					</g>
				</g>
				<g>
					<g>
						<path d="M549.4,1058.9c-24.1,0-46.4-15.6-53.8-39.8c-9.1-29.7,7.6-61.2,37.3-70.3c29.7-9.1,61.2,7.6,70.3,37.3
							c9.1,29.7-7.6,61.2-37.3,70.3C560.4,1058.1,554.8,1058.9,549.4,1058.9z M549.3,950.4c-5.1,0-10.2,0.7-15.3,2.3
							c-27.5,8.5-43.1,37.7-34.6,65.3c6.9,22.4,27.6,36.9,50,36.9c5.1,0,10.2-0.7,15.3-2.3c27.5-8.5,43.1-37.7,34.6-65.3l0,0
							C592.4,964.8,571.6,950.4,549.3,950.4z"/>
					</g>
					<g>
						<path d="M549.3,1046.2c-18.6,0-35.9-12.1-41.7-30.8c-3.4-11.1-2.3-22.9,3.2-33.2c5.5-10.3,14.6-17.8,25.7-21.2
							c23-7.1,47.4,5.9,54.5,28.9l0,0c7.1,23-5.9,47.4-28.9,54.5C557.9,1045.6,553.6,1046.2,549.3,1046.2z M549.3,963.1
							c-3.8,0-7.7,0.6-11.6,1.7c-10.1,3.1-18.4,9.9-23.3,19.3c-4.9,9.3-6,20-2.9,30.1c6.4,20.8,28.6,32.6,49.4,26.2
							c20.8-6.4,32.6-28.6,26.2-49.4l0,0C581.9,974,566.2,963.1,549.3,963.1z"/>
					</g>
				</g>
			</g>
		</g>
		<g>
			<g>
				<path class="st0" d="M1177.3,1110c0,0-86.4,2.3-133.1-40.9c-46.7-43.2-58-53.6-133.7-69.8v56c21.4,11.8,28.3,11.4,28.3,29.7
					c0,24.5-148.8-51.9-190.9-78.2c-32-20-92,16.6,73.3,111.7c-15.3,0-125.2-94.9-152.1-56.9c-23.5,33.2,129.2,105.1,138.9,113.2
					c-10.7,1.4-133.4-67.8-146.6-41.5c-25,50.1,126,87.3,143.3,96.3c0,0-140.6-52.3-150.2-16.8c-9.7,36,143.1,51,160.4,57.6
					c46.8,17.7,377.5,12.5,369.1-5.5L1177.3,1110z"/>
				<path d="M978.4,1283.6c-98.9,0-150.2-5.8-164.3-11.1c-3.9-1.5-15.5-3.5-30.3-6.1c-43.1-7.5-115.3-20.1-129.3-42
					c-2.4-3.8-3.1-7.9-2-12c1.2-4.3,4-7.6,8.5-9.9c14-7.2,43.1-3.4,71.5,3.3c-32.6-13.2-65.5-30.5-73.9-50.9
					c-3.1-7.5-2.8-15,0.9-22.3c9.2-18.5,59.4,2.1,114.4,26.8c4.1,1.8,8.2,3.7,12.1,5.4c-40.5-22.1-114.4-62.5-121-91.2
					c-1.1-4.8-0.3-9.2,2.3-13c14.4-20.3,49.8-5.7,83.4,13.8c-35.8-28.7-42.5-47-42.4-56.9c0.1-6.6,3.2-11.9,8.9-15
					c8.6-4.7,21.6-3.6,31.6,2.7c44.3,27.7,170.3,90.9,186.7,81.8c0.8-0.4,1.1-1,1.1-2c0-13.9-3.6-15.8-17.2-22.7
					c-2.9-1.5-6.2-3.2-10-5.3c-0.6-0.4-1-1-1-1.8v-56c0-0.6,0.3-1.2,0.8-1.6c0.5-0.4,1.1-0.5,1.7-0.4
					c76.4,16.3,87.6,26.7,134.7,70.3c45.6,42.2,130.8,40.4,131.7,40.4c1.1,0,2,0.8,2.1,1.9l6.6,154.8c0.4,1.3,0.1,2.6-1,3.7
					c-9,9.7-99.7,14.1-174.6,15C999.2,1283.6,988.5,1283.6,978.4,1283.6z M682.5,1202.7c-8.1,0-14.9,1-19.7,3.5
					c-3.5,1.8-5.6,4.2-6.4,7.4c-0.8,3-0.3,5.9,1.5,8.7c13,20.4,84.1,32.8,126.6,40.2c15.6,2.7,26.8,4.7,31.1,6.3
					c23.1,8.7,115.8,11.6,197.4,10.6c117.2-1.5,165.6-9,169.1-13.6c-0.1-0.2-0.1-0.3-0.1-0.5l-6.6-153.2
					c-13.3,0-89.8-1.9-132.6-41.5c-45.9-42.5-57.2-52.9-130.3-68.7v52.3c3.3,1.8,6.2,3.3,8.9,4.6c13.7,7,19.4,9.9,19.4,26.3
					c0,2.4-1.1,4.4-3.2,5.5c-1.5,0.8-3.6,1.2-6.3,1.2c-34.2,0-156.3-65.6-184.5-83.2c-8.9-5.5-20.2-6.6-27.5-2.6
					c-3.1,1.7-6.7,5-6.8,11.5c-0.1,10.8,10.3,42.1,109.7,99.3c0.8,0.5,1.2,1.4,0.9,2.3c-0.2,0.9-1,1.5-2,1.5
					c-4.9,0-15.4-6.7-35.2-19.5c-38.8-25.2-97.5-63.3-115.3-38.2c-2,2.8-2.6,6-1.7,9.7c6.3,27.2,83,69,119.9,89.1
					c11,6,18.3,10,20.3,11.7c0.6,0.5,0.9,1.3,0.7,2.1c-0.2,0.8-0.9,1.3-1.7,1.4c-3.7,0.5-14.3-4.2-35.9-13.9
					c-35.2-15.8-100.8-45.2-109.1-28.7c-3.2,6.4-3.4,12.6-0.8,19c12.4,30,83,53.7,120.9,66.5c10.9,3.7,18.9,6.4,22.3,8.1
					c0.9,0.5,1.4,1.6,0.9,2.6c-0.4,1-1.6,1.5-2.6,1.1C803,1231.4,725.2,1202.7,682.5,1202.7z"/>
			</g>
			<g>
				<path class="st0" d="M1123.6,605.9c72.8,3.4,492.2,204.4,447.9,480.6c-39,243.4-467.1,199.2-467.1,199.2s-75.1-54.5,0-192.2
					c0,0,198.6-3.4,218.7-71.7c22.3-76-98.9-101.6-153.3-132.6C1115.5,858.2,1050.9,602.5,1123.6,605.9z"/>
				<path d="M1180.1,1290.9c-44.9,0-75.3-3-75.9-3.1l-0.5-0.1l-0.4-0.3c-0.8-0.6-19.4-14.4-28.9-45.5
					c-15.7-51.6,6.7-109.7,28.3-149.3l0.6-1l1.2,0c2,0,197.4-4.1,216.8-70.3c16.6-56.6-48.5-84.3-105.9-108.7
					c-17.3-7.4-33.7-14.3-46.4-21.6c-16.2-9.2-40.9-44.3-61.6-115.1c-13.6-46.5-24.4-109.1-14-145.1c5.3-18.2,15.8-27.5,30.5-26.8
					c24.5,1.1,87.5,24.1,160.4,65.7c60.6,34.6,146.4,92.4,210.6,171.4c65.5,80.6,92,163.3,78.8,245.9c-9,56.1-39.4,101.6-90.3,135.2
					c-40.6,26.8-94.3,46.1-159.5,57.4C1271.6,1288.5,1220.1,1290.9,1180.1,1290.9z M1105.3,1283.8c8.6,0.8,111.7,10,217.9-8.4
					c64.7-11.2,117.8-30.3,157.9-56.8c49.9-32.9,79.7-77.5,88.5-132.4c13-81.4-13.2-163-77.9-242.7
					c-63.8-78.5-149.2-136.1-209.5-170.5c-72.4-41.3-134.6-64-158.6-65.1c-12.7-0.6-21.6,7.4-26.4,23.9c-8.5,29.4-3.2,84.2,14,142.9
					c16.8,57.4,40.2,101.6,59.7,112.8c12.6,7.2,28.8,14.1,46,21.4c56.1,23.8,125.9,53.5,108.2,113.6c-8.6,29.2-48.4,50.3-118.5,62.9
					c-47.3,8.5-93.1,10-101,10.2c-21,38.8-42.6,95.1-27.5,144.9C1086.4,1267.9,1102.5,1281.6,1105.3,1283.8z"/>
			</g>
			<g>
				<path d="M1125.4,1286.8c-2.1-2.5-4-5.2-5.9-7.9l3.4-2.3c1.8,2.6,3.7,5.2,5.6,7.6L1125.4,1286.8z M1114.4,1270.4
					c-1.6-2.9-3-5.8-4.3-8.9l3.7-1.6c1.3,2.9,2.7,5.8,4.1,8.6L1114.4,1270.4z M1106.6,1252.3c-1-3.1-1.9-6.3-2.7-9.5l3.9-1
					c0.8,3.1,1.6,6.2,2.6,9.2L1106.6,1252.3z M1101.9,1233.2c-0.5-3.2-1-6.5-1.3-9.7l4-0.4c0.3,3.2,0.7,6.4,1.2,9.5L1101.9,1233.2z
					 M1099.9,1213.7c-0.1-1.9-0.1-4-0.1-6c0-1.3,0-2.6,0-3.8l4.1,0.1c0,1.2,0,2.5,0,3.7c0,2,0,3.9,0.1,5.8L1099.9,1213.7z
					 M1104.4,1194.4l-4-0.3c0.2-3.2,0.5-6.5,0.9-9.7l4,0.5C1104.9,1188,1104.6,1191.3,1104.4,1194.4z M1106.7,1175.3l-4-0.7
					c0.5-3.2,1.1-6.4,1.8-9.6l4,0.8C1107.8,1169,1107.2,1172.2,1106.7,1175.3z M1110.5,1156.5l-3.9-1c0.8-3.1,1.6-6.3,2.5-9.5
					l3.9,1.1C1112.1,1150.2,1111.3,1153.4,1110.5,1156.5z M1115.7,1137.9l-3.9-1.2c1-3.1,2-6.2,3.1-9.3l3.8,1.3
					C1117.7,1131.8,1116.6,1134.9,1115.7,1137.9z M1122,1119.7l-3.8-1.4c1.2-3,2.4-6.1,3.6-9.1l3.7,1.6
					C1124.4,1113.7,1123.2,1116.7,1122,1119.7z M1129.5,1101.9l-3.7-1.7c2.6-5.6,4.2-8.7,4.3-8.9l3.6,1.9
					C1133.6,1093.3,1132,1096.4,1129.5,1101.9z"/>
			</g>
		</g>
	</g>
	<g>
		<g>
			<path class="st0" d="M187.1,449.5c0,0,160.1-144,348.1-82.8c124,40.3,77.2,81.3,43.2,67.6c15.8,11.2,27.2,22.7,27.1,34.9
				c-0.2,16.7-22.5,24-44.1,13c39.2,35.4,14.3,59.2-15.2,42.6c-11.6-6.5-86.7-44.3-101.7-43.2c0,0,108.4,52.6,79,76
				c-30.4,24.2-81.6-63.5-135.5-51c-43,10-74.8,74.4-143.7,127.1L187.1,449.5z"/>
			<path d="M244.3,636c-0.2,0-0.4,0-0.6-0.1c-0.6-0.2-1.1-0.7-1.3-1.3l-57.1-184.4c-0.2-0.8,0-1.6,0.6-2.1
				c0.4-0.4,41-36.5,104.1-64.7c37.1-16.5,74.6-27.1,111.4-31.5c46.1-5.4,91.4-1.1,134.6,13c66.8,21.7,80,42.1,81.9,52.3
				c1.1,6.1-1,11.7-6,15.8c-6,4.9-15.1,7-24.2,5.9c13.8,11.1,20,20.8,19.9,30.5c-0.1,6.8-3.4,12.5-9.5,16.2
				c-7.4,4.5-17.9,5.2-28.3,2.3c15.5,16.8,16.1,30.1,10.8,37.4c-6.5,9-21,9.6-35.4,1.5c-10.2-5.8-58.9-30.1-85.5-39.4
				c23.7,12.8,68.5,39.4,70.7,59.3c0.5,4.9-1.4,9.2-5.7,12.7c-16,12.7-36.1-2.2-59.4-19.6c-23.5-17.5-50.1-37.3-77-31
				c-23.5,5.5-43.6,27.7-69.2,55.8c-20.3,22.4-43.3,47.7-73.8,71C245.2,635.8,244.7,636,244.3,636z M189.5,450.2l55.9,180.4
				c29-22.6,51.3-47.1,70.9-68.7c26-28.6,46.6-51.2,71.2-57c28.7-6.7,56.1,13.7,80.3,31.7c21.9,16.3,40.9,30.4,54.4,19.6
				c3.2-2.6,4.6-5.5,4.2-9.1c-2.7-24.4-82-63.1-82.8-63.5c-0.8-0.4-1.3-1.3-1.1-2.2c0.2-0.9,0.9-1.6,1.8-1.6
				c15.9-1.2,91.9,37.3,102.9,43.4c10.6,5.9,24.3,7.7,30.2-0.4c7.5-10.5-4.6-27.5-17.3-39c-0.8-0.7-0.9-1.8-0.3-2.6
				c0.6-0.8,1.7-1.1,2.6-0.7c12,6.1,25.2,6.6,33.7,1.5c3.4-2.1,7.5-5.9,7.5-12.7c0.1-9.9-8.2-20.5-26.2-33.3
				c-0.8-0.6-1.1-1.7-0.6-2.6c0.5-0.9,1.6-1.3,2.5-0.9c10.4,4.2,23.1,3,30.1-2.7c2.7-2.2,5.6-6.1,4.5-11.9
				c-1.4-7.5-12-27.4-79.2-49.2c-42.6-13.9-87.3-18.2-132.8-12.8c-36.5,4.3-73.5,14.8-110.2,31.1C234.5,412.5,196,444.6,189.5,450.2
				z"/>
		</g>
		<g>
			<path d="M578.5,436.4c-0.5,0-0.9-0.1-1.3-0.5c-0.3-0.3-35.4-28.6-79.7-35.7c-1.1-0.2-1.9-1.2-1.7-2.3c0.2-1.1,1.2-1.9,2.3-1.7
				c45.4,7.3,81.3,36.3,81.7,36.6c0.9,0.7,1,2,0.3,2.8C579.7,436.2,579.1,436.4,578.5,436.4z"/>
		</g>
		<g>
			<path d="M561.5,484.4c-0.6,0-1.3-0.3-1.6-0.8c-0.2-0.3-18.4-24.9-76.5-47.3c-1-0.4-1.6-1.6-1.2-2.6c0.4-1,1.6-1.6,2.6-1.2
				c59.4,22.9,77.6,47.6,78.3,48.7c0.7,0.9,0.4,2.2-0.5,2.8C562.3,484.3,561.9,484.4,561.5,484.4z"/>
		</g>
	</g>
	<g>
		<g>
			<path class="st0" d="M191,425.4c0,0-240.7,215-89.6,406.1c15.6-0.4,31.2-1.7,46.8-2.6c7.3-0.4,14.6-0.7,21.9-0.7l118.5-121.3
				c-35.4-36.2,49.5-131.5,49.5-131.5C364.4,425.6,191,425.4,191,425.4z"/>
		</g>
		<g>
			<g>
				<path d="M105.1,839.4C67.9,795,49.2,745.6,49.5,692.3c0.3-42.5,12.7-87.5,36.8-133.7c41-78.5,102.7-134.1,103.3-134.6l0.6-0.5
					l0.8,0c0.8,0,85.2,0.7,127.5,51.2c21.6,25.7,28.8,59.8,21.6,101.3l-0.1,0.6l-0.4,0.4c-0.8,0.9-83.2,94.2-49.5,128.7l-2.9,2.8
					c-15.4-15.8-11.6-43.3,11.2-81.8c15.5-26.1,34.9-48.6,37.8-52c6.9-40-0.1-72.8-20.8-97.5c-39-46.5-115.2-49.6-123.7-49.7
					c-6.4,5.8-63.3,59.2-101.9,133c-23.8,45.6-36,90-36.3,131.8c-0.3,52.3,18,100.8,54.6,144.4L105.1,839.4z"/>
			</g>
		</g>
		<g>
			<path d="M319.5,593.6c-0.3-3.2-0.7-6.4-1.1-9.6l4-0.5c0.4,3.2,0.8,6.4,1.1,9.7L319.5,593.6z M317,574.5c-0.5-3.2-1.1-6.4-1.7-9.5
				l4-0.8c0.6,3.1,1.2,6.4,1.8,9.6L317,574.5z M313.2,555.7c-0.8-3.2-1.6-6.3-2.5-9.3l3.9-1.1c0.9,3.1,1.7,6.2,2.5,9.4L313.2,555.7z
				 M307.8,537.3c-1.1-3-2.2-6.1-3.4-9l3.8-1.5c1.2,3,2.4,6.1,3.5,9.2L307.8,537.3z M300.5,519.6c-1.4-2.9-2.9-5.8-4.4-8.5l3.5-2
				c1.6,2.8,3.1,5.7,4.5,8.7L300.5,519.6z M291.2,503c-1.8-2.7-3.6-5.3-5.5-7.8l3.2-2.5c2,2.6,3.9,5.3,5.7,8L291.2,503z
				 M279.6,487.9c-2.1-2.4-4.4-4.6-6.7-6.8l2.8-3c2.4,2.2,4.7,4.6,6.9,7L279.6,487.9z M265.7,474.9c-2.5-2-5.1-3.8-7.7-5.5l2.2-3.4
				c2.7,1.8,5.4,3.7,8,5.7L265.7,474.9z M249.8,464.5c-2.8-1.5-5.7-2.9-8.6-4.1l1.6-3.7c3,1.3,6,2.7,8.9,4.3L249.8,464.5z
				 M232.3,457c-3-1-6.1-1.9-9.2-2.7l1-3.9c3.2,0.8,6.4,1.7,9.5,2.8L232.3,457z M166.4,452.6l-0.9-3.9c0.2,0,3.7-0.8,9.8-1.5l0.4,4
				C169.9,451.8,166.4,452.6,166.4,452.6z M213.8,452.4c-3.1-0.5-6.3-1-9.5-1.3l0.4-4c3.3,0.3,6.6,0.8,9.8,1.3L213.8,452.4z
				 M185.3,450.5l-0.2-4c3.2-0.1,6.4-0.1,9.8,0l-0.1,4C191.5,450.4,188.4,450.4,185.3,450.5z"/>
		</g>
	</g>
	<path class="st2" d="M654,1246.2c22.6-129.6,688.8-13.3,765-153.9c76.2-140.7-161.2-311.7-96-377.5
		c118.3-119.3,417.4,326.3,216.2,525.5S641.4,1318.5,654,1246.2z"/>
</g>
</svg>
