<?xml version="1.0" encoding="utf-8"?>
<!-- Generator: Adobe Illustrator 24.2.0, SVG Export Plug-In . SVG Version: 6.00 Build 0)  -->
<svg version="1.1" id="Calque_1" xmlns="http://www.w3.org/2000/svg" xmlns:xlink="http://www.w3.org/1999/xlink" x="0px" y="0px"
	 viewBox="0 0 500.73 290.3" style="enable-background:new 0 0 500.73 290.3;" xml:space="preserve">
<style type="text/css">
	.st0{fill:url(#SVGID_1_);}
	.st1{fill:url(#SVGID_2_);}
	.st2{fill:url(#SVGID_3_);}
	.st3{fill:url(#SVGID_4_);}
	.st4{fill:url(#SVGID_5_);}
	.st5{fill:#C3AF91;}
</style>
<g>
	<linearGradient id="SVGID_1_" gradientUnits="userSpaceOnUse" x1="192.9751" y1="100.5823" x2="122.6138" y2="100.5823">
		<stop  offset="0" style="stop-color:#99692F"/>
		<stop  offset="1" style="stop-color:#BD8B45;stop-opacity:0.9"/>
	</linearGradient>
	<path class="st0" d="M144.96,133.77c4.22,1.82,5.57,2.67,10.85,2.67c4.69,0,8.82-0.69,12.41-2.08s5.13-2.48,6.88-4.89
		c1.75-2.41,2.63-5.04,2.63-7.89c0-2.89-0.85-5.42-2.53-7.58c-1.69-2.16-4.48-3.97-8.36-5.44c-2.49-0.96-4.6-2.4-13.13-4.43
		c-8.53-2.03-14.5-3.95-17.92-5.75c-4.43-2.31-7.74-5.17-9.91-8.58c-2.18-3.42-3.26-7.24-3.26-11.48c0-4.65,1.33-9,3.99-13.05
		c2.66-4.05,6.54-7.12,11.65-9.21c5.11-2.1,10.79-3.14,17.04-3.14c6.88,0,12.95,1.1,18.21,3.3c5.26,2.2,9.3,5.44,12.13,9.72
		c2.83,4.28,3.94,10.95,4.16,16.36h-14.04c-0.63-5.83-1.3-10.74-4.95-13.71c-3.65-2.98-7.86-4.91-14.99-4.91
		c-7.43,0-12.85,1.35-16.24,4.06c-3.4,2.7-5.1,5.96-5.1,9.78c0,3.31,1.2,6.04,3.61,8.18c2.36,2.14,8.54,4.33,18.52,6.57
		c9.98,2.24,16.84,4.2,20.55,5.88c5.4,2.47,9.39,5.61,11.97,9.4c2.58,3.8,3.86,8.17,3.86,13.11c0,4.91-1.42,9.53-4.24,13.87
		c-2.83,4.34-6.89,7.72-12.19,10.13c-5.3,2.41-11.26,3.62-17.89,3.62c-8.4,0-17.29-1.82-22.97-4.25L144.96,133.77z"/>
	<linearGradient id="SVGID_2_" gradientUnits="userSpaceOnUse" x1="310.1987" y1="100.5103" x2="214.69" y2="100.5103">
		<stop  offset="0.296" style="stop-color:#99692F;stop-opacity:0.9"/>
		<stop  offset="1" style="stop-color:#BD8B45"/>
	</linearGradient>
	<path class="st1" d="M284.69,68.62c-1.92-3.8-4.44-6.76-7.59-8.87c-3.14-2.11-7.04-3.54-11.69-4.29c-3.31-0.58-8.11-0.88-14.4-0.88
		h-35.7v10.89l36.74-0.05c5.68,0,9.58,0.27,11.69,0.81c3.27,0.88,5.91,2.68,7.91,5.42c2,2.74,3,6.03,3,9.87
		c0,5.3-1.7,9.42-5.1,12.34c-3.4,2.92-9.15,4.39-17.24,4.39h-24.47V98.2h-12.53v48.24h15.48v-37.34h21.32
		c13.39,0,22.64-2.7,27.76-8.11c5.12-5.41,7.68-12.02,7.68-19.83C287.56,76.6,286.6,72.42,284.69,68.62z"/>
	<linearGradient id="SVGID_3_" gradientUnits="userSpaceOnUse" x1="606.6578" y1="71.4893" x2="353.2007" y2="71.4893">
		<stop  offset="0.8569" style="stop-color:#99692F;stop-opacity:0.9"/>
		<stop  offset="0.9533" style="stop-color:#BD8B45"/>
	</linearGradient>
	<path class="st2" d="M367.35,89.91h14.31V53.06h-14.43v36.86C367.28,89.92,367.31,89.91,367.35,89.91z"/>
	<linearGradient id="SVGID_4_" gradientUnits="userSpaceOnUse" x1="381.6659" y1="99.7467" x2="305.1938" y2="99.7467">
		<stop  offset="0.6941" style="stop-color:#99692F;stop-opacity:0.9"/>
		<stop  offset="0.9444" style="stop-color:#BD8B45"/>
	</linearGradient>
	<polygon class="st3" points="381.67,146.43 368.49,146.43 318.89,73.06 319.28,146.43 305.19,146.43 305.19,53.06 318.37,53.06 	
		"/>
	<linearGradient id="SVGID_5_" gradientUnits="userSpaceOnUse" x1="136.9782" y1="125.1436" x2="119.0668" y2="125.1436">
		<stop  offset="0" style="stop-color:#99692F"/>
		<stop  offset="1" style="stop-color:#BD8B45;stop-opacity:0.9"/>
	</linearGradient>
	<path class="st4" d="M136.98,127.29c-2.01-2.96-3.72-6.63-4.27-11.24l-13.64-0.87c0.17,6.16,3.54,15.04,6.77,19.92L136.98,127.29z"
		/>
</g>
</svg>
