<?xml version="1.0" encoding="utf-8"?>
<!-- Generator: Adobe Illustrator 24.2.0, SVG Export Plug-In . SVG Version: 6.00 Build 0)  -->
<svg version="1.1" id="Calque_1" xmlns="http://www.w3.org/2000/svg" xmlns:xlink="http://www.w3.org/1999/xlink" x="0px" y="0px"
	 viewBox="0 0 500.73 290.3" style="enable-background:new 0 0 500.73 290.3;" xml:space="preserve">
<style type="text/css">
	.st0{fill:url(#SVGID_1_);}
	.st1{fill:url(#SVGID_2_);}
	.st2{fill:url(#SVGID_3_);}
	.st3{fill:url(#SVGID_4_);}
	.st4{fill:url(#SVGID_5_);}
	.st5{fill:#C3AF91;}
</style>
<g>
	<linearGradient id="SVGID_1_" gradientUnits="userSpaceOnUse" x1="192.9751" y1="100.5823" x2="122.6138" y2="100.5823">
		<stop  offset="0" style="stop-color:#99692F"/>
		<stop  offset="1" style="stop-color:#BD8B45;stop-opacity:0.9"/>
	</linearGradient>
	<path class="st0" d="M144.96,133.77c4.22,1.82,5.57,2.67,10.85,2.67c4.69,0,8.82-0.69,12.41-2.08s5.13-2.48,6.88-4.89
		c1.75-2.41,2.63-5.04,2.63-7.89c0-2.89-0.85-5.42-2.53-7.58c-1.69-2.16-4.48-3.97-8.36-5.44c-2.49-0.96-4.6-2.4-13.13-4.43
		c-8.53-2.03-14.5-3.95-17.92-5.75c-4.43-2.31-7.74-5.17-9.91-8.58c-2.18-3.42-3.26-7.24-3.26-11.48c0-4.65,1.33-9,3.99-13.05
		c2.66-4.05,6.54-7.12,11.65-9.21c5.11-2.1,10.79-3.14,17.04-3.14c6.88,0,12.95,1.1,18.21,3.3c5.26,2.2,9.3,5.44,12.13,9.72
		c2.83,4.28,3.94,10.95,4.16,16.36h-14.04c-0.63-5.83-1.3-10.74-4.95-13.71c-3.65-2.98-7.86-4.91-14.99-4.91
		c-7.43,0-12.85,1.35-16.24,4.06c-3.4,2.7-5.1,5.96-5.1,9.78c0,3.31,1.2,6.04,3.61,8.18c2.36,2.14,8.54,4.33,18.52,6.57
		c9.98,2.24,16.84,4.2,20.55,5.88c5.4,2.47,9.39,5.61,11.97,9.4c2.58,3.8,3.86,8.17,3.86,13.11c0,4.91-1.42,9.53-4.24,13.87
		c-2.83,4.34-6.89,7.72-12.19,10.13c-5.3,2.41-11.26,3.62-17.89,3.62c-8.4,0-17.29-1.82-22.97-4.25L144.96,133.77z"/>
	<linearGradient id="SVGID_2_" gradientUnits="userSpaceOnUse" x1="310.1987" y1="100.5103" x2="214.69" y2="100.5103">
		<stop  offset="0.296" style="stop-color:#99692F;stop-opacity:0.9"/>
		<stop  offset="1" style="stop-color:#BD8B45"/>
	</linearGradient>
	<path class="st1" d="M284.69,68.62c-1.92-3.8-4.44-6.76-7.59-8.87c-3.14-2.11-7.04-3.54-11.69-4.29c-3.31-0.58-8.11-0.88-14.4-0.88
		h-35.7v10.89l36.74-0.05c5.68,0,9.58,0.27,11.69,0.81c3.27,0.88,5.91,2.68,7.91,5.42c2,2.74,3,6.03,3,9.87
		c0,5.3-1.7,9.42-5.1,12.34c-3.4,2.92-9.15,4.39-17.24,4.39h-24.47V98.2h-12.53v48.24h15.48v-37.34h21.32
		c13.39,0,22.64-2.7,27.76-8.11c5.12-5.41,7.68-12.02,7.68-19.83C287.56,76.6,286.6,72.42,284.69,68.62z"/>
	<linearGradient id="SVGID_3_" gradientUnits="userSpaceOnUse" x1="606.6578" y1="71.4893" x2="353.2007" y2="71.4893">
		<stop  offset="0.8569" style="stop-color:#99692F;stop-opacity:0.9"/>
		<stop  offset="0.9533" style="stop-color:#BD8B45"/>
	</linearGradient>
	<path class="st2" d="M367.35,89.91h14.31V53.06h-14.43v36.86C367.28,89.92,367.31,89.91,367.35,89.91z"/>
	<linearGradient id="SVGID_4_" gradientUnits="userSpaceOnUse" x1="381.6659" y1="99.7467" x2="305.1938" y2="99.7467">
		<stop  offset="0.6941" style="stop-color:#99692F;stop-opacity:0.9"/>
		<stop  offset="0.9444" style="stop-color:#BD8B45"/>
	</linearGradient>
	<polygon class="st3" points="381.67,146.43 368.49,146.43 318.89,73.06 319.28,146.43 305.19,146.43 305.19,53.06 318.37,53.06 	
		"/>
	<linearGradient id="SVGID_5_" gradientUnits="userSpaceOnUse" x1="136.9782" y1="125.1436" x2="119.0668" y2="125.1436">
		<stop  offset="0" style="stop-color:#99692F"/>
		<stop  offset="1" style="stop-color:#BD8B45;stop-opacity:0.9"/>
	</linearGradient>
	<path class="st4" d="M136.98,127.29c-2.01-2.96-3.72-6.63-4.27-11.24l-13.64-0.87c0.17,6.16,3.54,15.04,6.77,19.92L136.98,127.29z"
		/>
	<g>
		<path class="st5" d="M81.76,178.2c-0.32-0.37-0.7-0.7-1.14-0.99c-0.43-0.29-0.92-0.55-1.46-0.76c-0.54-0.22-1.12-0.39-1.74-0.52
			s-1.27-0.19-1.96-0.19c-2.01,0-3.49,0.38-4.43,1.15c-0.94,0.77-1.41,1.81-1.41,3.13c0,0.91,0.22,1.62,0.67,2.14
			c0.44,0.52,1.14,0.94,2.1,1.27s2.17,0.66,3.64,1.01c1.65,0.35,3.06,0.76,4.26,1.23c1.19,0.48,2.11,1.12,2.76,1.93
			c0.65,0.81,0.97,1.91,0.97,3.29c0,1.06-0.21,1.98-0.62,2.76c-0.41,0.78-0.99,1.43-1.72,1.95s-1.61,0.9-2.63,1.15
			c-1.02,0.25-2.13,0.37-3.35,0.37c-1.19,0-2.33-0.13-3.43-0.37c-1.09-0.25-2.13-0.62-3.1-1.1s-1.88-1.11-2.73-1.87l1.14-1.85
			c0.41,0.43,0.9,0.84,1.48,1.22c0.57,0.38,1.21,0.72,1.92,1.02s1.46,0.54,2.27,0.7c0.81,0.16,1.65,0.24,2.52,0.24
			c1.84,0,3.28-0.33,4.3-1c1.03-0.67,1.54-1.66,1.54-2.98c0-0.95-0.26-1.71-0.78-2.29c-0.52-0.57-1.3-1.04-2.34-1.41
			c-1.04-0.37-2.32-0.72-3.83-1.07c-1.6-0.37-2.96-0.78-4.06-1.23s-1.93-1.05-2.48-1.8s-0.83-1.74-0.83-2.97
			c0-1.43,0.35-2.63,1.06-3.62c0.7-0.98,1.67-1.73,2.91-2.24c1.23-0.51,2.65-0.76,4.26-0.76c1.02,0,1.97,0.1,2.84,0.31
			c0.88,0.21,1.69,0.5,2.44,0.89c0.75,0.39,1.45,0.88,2.1,1.46L81.76,178.2z"/>
		<path class="st5" d="M108.56,180.08h2.18l-7.28,16.86h-1.92L98,188.56l-3.51,8.38h-1.92l-7.28-16.86h2.14l6.17,14.59l3.12-7.6
			l-2.86-6.96h1.98l2.14,5.47l2.18-5.47h1.95l-2.83,6.96l3.12,7.6L108.56,180.08z"/>
		<path class="st5" d="M113.89,176.48v-3.25h2.21v3.25H113.89z M113.89,196.94v-16.92h2.21v16.92H113.89z"/>
		<path class="st5" d="M126.75,197.27c-1.39,0-2.67-0.23-3.87-0.68c-1.19-0.45-2.22-1.15-3.09-2.08l0.91-1.56
			c0.95,0.89,1.91,1.53,2.87,1.93c0.96,0.4,1.99,0.6,3.07,0.6c1.32,0,2.39-0.26,3.22-0.79c0.82-0.53,1.23-1.28,1.23-2.27
			c0-0.67-0.2-1.18-0.6-1.53c-0.4-0.36-0.97-0.65-1.72-0.87s-1.64-0.47-2.68-0.73c-1.17-0.32-2.15-0.66-2.94-1.02
			c-0.79-0.35-1.39-0.81-1.79-1.36c-0.4-0.55-0.6-1.27-0.6-2.15c0-1.1,0.28-2.01,0.83-2.73c0.55-0.72,1.31-1.27,2.27-1.65
			c0.96-0.38,2.04-0.57,3.23-0.57c1.3,0,2.45,0.21,3.44,0.62c1,0.41,1.81,0.99,2.44,1.72l-1.07,1.49c-0.61-0.69-1.33-1.21-2.16-1.54
			c-0.83-0.34-1.76-0.5-2.78-0.5c-0.69,0-1.35,0.09-1.98,0.27c-0.63,0.18-1.14,0.48-1.54,0.9c-0.4,0.42-0.6,1-0.6,1.73
			c0,0.6,0.15,1.07,0.46,1.4c0.3,0.33,0.76,0.61,1.36,0.84c0.61,0.23,1.35,0.47,2.24,0.73c1.28,0.34,2.39,0.69,3.35,1.05
			c0.95,0.35,1.69,0.81,2.21,1.37c0.52,0.56,0.78,1.34,0.78,2.36c0,1.57-0.6,2.8-1.79,3.68
			C130.27,196.83,128.7,197.27,126.75,197.27z"/>
		<path class="st5" d="M142.67,197.27c-1.39,0-2.67-0.23-3.87-0.68c-1.19-0.45-2.22-1.15-3.09-2.08l0.91-1.56
			c0.95,0.89,1.91,1.53,2.87,1.93c0.96,0.4,1.99,0.6,3.07,0.6c1.32,0,2.39-0.26,3.22-0.79c0.82-0.53,1.23-1.28,1.23-2.27
			c0-0.67-0.2-1.18-0.6-1.53c-0.4-0.36-0.97-0.65-1.72-0.87s-1.64-0.47-2.68-0.73c-1.17-0.32-2.15-0.66-2.94-1.02
			c-0.79-0.35-1.39-0.81-1.79-1.36c-0.4-0.55-0.6-1.27-0.6-2.15c0-1.1,0.28-2.01,0.83-2.73c0.55-0.72,1.31-1.27,2.27-1.65
			c0.96-0.38,2.04-0.57,3.23-0.57c1.3,0,2.45,0.21,3.44,0.62c1,0.41,1.81,0.99,2.44,1.72l-1.07,1.49c-0.61-0.69-1.33-1.21-2.16-1.54
			c-0.83-0.34-1.76-0.5-2.78-0.5c-0.69,0-1.35,0.09-1.98,0.27c-0.63,0.18-1.14,0.48-1.54,0.9c-0.4,0.42-0.6,1-0.6,1.73
			c0,0.6,0.15,1.07,0.46,1.4c0.3,0.33,0.76,0.61,1.36,0.84c0.61,0.23,1.35,0.47,2.24,0.73c1.28,0.34,2.39,0.69,3.35,1.05
			c0.95,0.35,1.69,0.81,2.21,1.37c0.52,0.56,0.78,1.34,0.78,2.36c0,1.57-0.6,2.8-1.79,3.68
			C146.19,196.83,144.62,197.27,142.67,197.27z"/>
		<path class="st5" d="M161.99,196.94v-23.06h9.55c1,0,1.91,0.21,2.75,0.62c0.83,0.41,1.55,0.97,2.16,1.67
			c0.61,0.7,1.08,1.48,1.43,2.34c0.35,0.86,0.52,1.73,0.52,2.61c0,1.26-0.28,2.44-0.83,3.56c-0.55,1.12-1.33,2.02-2.32,2.71
			c-1,0.69-2.17,1.04-3.51,1.04h-7.47v8.51H161.99z M164.27,186.42h7.37c0.91,0,1.7-0.25,2.37-0.75c0.67-0.5,1.19-1.15,1.56-1.95
			c0.37-0.8,0.55-1.67,0.55-2.6c0-0.95-0.22-1.83-0.65-2.63c-0.43-0.8-1-1.43-1.71-1.9c-0.7-0.47-1.48-0.7-2.32-0.7h-7.18V186.42z"
			/>
		<path class="st5" d="M190.42,181.97c-1.47,0.04-2.77,0.45-3.88,1.23c-1.12,0.78-1.9,1.85-2.36,3.22v10.52h-2.21v-16.86h2.08v4
			c0.58-1.19,1.36-2.15,2.32-2.89c0.96-0.74,1.99-1.15,3.07-1.23c0.22-0.02,0.41-0.03,0.57-0.03s0.3,0.01,0.41,0.03V181.97z"/>
		<path class="st5" d="M200.39,197.27c-1.21,0-2.34-0.23-3.38-0.7c-1.04-0.46-1.94-1.1-2.7-1.91c-0.76-0.81-1.35-1.74-1.77-2.8
			c-0.42-1.06-0.63-2.19-0.63-3.4c0-1.57,0.36-3.01,1.09-4.32c0.73-1.31,1.73-2.36,3-3.14c1.28-0.78,2.73-1.18,4.35-1.18
			c1.67,0,3.12,0.4,4.37,1.19c1.25,0.8,2.23,1.84,2.94,3.15c0.71,1.3,1.07,2.73,1.07,4.27c0,0.17,0,0.34,0,0.5
			c0,0.16-0.01,0.29-0.03,0.37h-14.49c0.11,1.21,0.45,2.28,1.02,3.22c0.57,0.94,1.32,1.68,2.24,2.23c0.92,0.55,1.92,0.82,3,0.82
			c1.1,0,2.15-0.28,3.13-0.84c0.98-0.56,1.67-1.3,2.06-2.21l1.92,0.52c-0.35,0.8-0.88,1.53-1.59,2.18
			c-0.71,0.65-1.55,1.15-2.52,1.51C202.53,197.09,201.49,197.27,200.39,197.27z M194.15,187.72h12.51
			c-0.09-1.22-0.42-2.29-0.99-3.21c-0.57-0.92-1.32-1.65-2.24-2.17c-0.92-0.52-1.93-0.79-3.04-0.79s-2.11,0.26-3.02,0.79
			s-1.65,1.25-2.23,2.19C194.57,185.45,194.24,186.52,194.15,187.72z"/>
		<path class="st5" d="M237.55,196.94h-2.21v-9.39c0-1.96-0.31-3.4-0.94-4.32c-0.63-0.93-1.56-1.39-2.79-1.39
			c-1.28,0-2.42,0.45-3.43,1.36c-1.01,0.9-1.72,2.07-2.13,3.49v10.26h-2.21v-9.39c0-1.98-0.3-3.43-0.91-4.34
			c-0.61-0.91-1.54-1.37-2.79-1.37c-1.26,0-2.39,0.44-3.41,1.32c-1.02,0.88-1.73,2.04-2.14,3.48v10.3h-2.21v-16.86h2.01v3.84
			c0.71-1.31,1.63-2.33,2.75-3.04c1.12-0.71,2.35-1.07,3.72-1.07c1.41,0,2.54,0.4,3.41,1.2c0.87,0.8,1.4,1.84,1.59,3.13
			c0.78-1.42,1.72-2.5,2.81-3.23c1.09-0.73,2.33-1.1,3.72-1.1c0.95,0,1.76,0.17,2.42,0.52c0.66,0.34,1.19,0.83,1.59,1.47
			c0.4,0.64,0.69,1.4,0.88,2.29c0.18,0.89,0.28,1.89,0.28,2.99V196.94z"/>
		<path class="st5" d="M242.46,176.48v-3.25h2.21v3.25H242.46z M242.46,196.94v-16.92h2.21v16.92H242.46z"/>
		<path class="st5" d="M249.6,189.99v-9.9h2.21v9.51c0,1.92,0.33,3.35,0.99,4.3c0.66,0.95,1.64,1.42,2.94,1.42
			c0.87,0,1.71-0.19,2.52-0.57c0.81-0.38,1.53-0.92,2.16-1.62s1.1-1.51,1.43-2.44v-10.61h2.21v14.2c0,0.3,0.06,0.52,0.19,0.66
			s0.33,0.22,0.58,0.24v1.75c-0.26,0.02-0.47,0.04-0.62,0.05c-0.15,0.01-0.29,0.02-0.42,0.02c-0.43-0.04-0.81-0.22-1.12-0.52
			c-0.31-0.3-0.48-0.67-0.5-1.1l-0.07-2.26c-0.74,1.29-1.74,2.31-3,3.04c-1.27,0.73-2.64,1.1-4.11,1.1c-1.78,0-3.12-0.61-4.03-1.84
			C250.06,194.19,249.6,192.38,249.6,189.99z"/>
		<path class="st5" d="M294.46,196.94h-2.21v-9.39c0-1.96-0.31-3.4-0.94-4.32c-0.63-0.93-1.56-1.39-2.79-1.39
			c-1.28,0-2.42,0.45-3.43,1.36c-1.01,0.9-1.72,2.07-2.13,3.49v10.26h-2.21v-9.39c0-1.98-0.3-3.43-0.91-4.34
			c-0.61-0.91-1.54-1.37-2.79-1.37c-1.26,0-2.39,0.44-3.41,1.32c-1.02,0.88-1.73,2.04-2.14,3.48v10.3h-2.21v-16.86h2.01v3.84
			c0.71-1.31,1.63-2.33,2.75-3.04s2.36-1.07,3.72-1.07c1.41,0,2.54,0.4,3.41,1.2s1.4,1.84,1.59,3.13c0.78-1.42,1.72-2.5,2.81-3.23
			c1.09-0.73,2.33-1.1,3.72-1.1c0.95,0,1.76,0.17,2.42,0.52c0.66,0.34,1.19,0.83,1.59,1.47c0.4,0.64,0.69,1.4,0.88,2.29
			c0.18,0.89,0.28,1.89,0.28,2.99V196.94z"/>
		<path class="st5" d="M310.61,178.07v18.87h-2.27v-23.06h1.88l15.14,19.23v-19.2h2.27v23.03h-2.11L310.61,178.07z"/>
		<path class="st5" d="M340.23,197.27c-1.21,0-2.34-0.23-3.38-0.7c-1.04-0.46-1.94-1.1-2.7-1.91c-0.76-0.81-1.35-1.74-1.77-2.8
			c-0.42-1.06-0.63-2.19-0.63-3.4c0-1.57,0.36-3.01,1.09-4.32c0.72-1.31,1.73-2.36,3-3.14c1.28-0.78,2.73-1.18,4.35-1.18
			c1.67,0,3.12,0.4,4.37,1.19c1.25,0.8,2.22,1.84,2.94,3.15c0.71,1.3,1.07,2.73,1.07,4.27c0,0.17,0,0.34,0,0.5
			c0,0.16-0.01,0.29-0.03,0.37h-14.49c0.11,1.21,0.45,2.28,1.02,3.22c0.57,0.94,1.32,1.68,2.24,2.23c0.92,0.55,1.92,0.82,3,0.82
			c1.1,0,2.15-0.28,3.13-0.84c0.99-0.56,1.67-1.3,2.06-2.21l1.92,0.52c-0.35,0.8-0.88,1.53-1.59,2.18s-1.55,1.15-2.52,1.51
			C342.37,197.09,341.34,197.27,340.23,197.27z M333.99,187.72h12.51c-0.09-1.22-0.42-2.29-0.99-3.21
			c-0.57-0.92-1.32-1.65-2.24-2.17s-1.93-0.79-3.04-0.79s-2.11,0.26-3.02,0.79c-0.91,0.52-1.65,1.25-2.23,2.19
			C334.41,185.45,334.08,186.52,333.99,187.72z"/>
		<path class="st5" d="M359.01,197.27c-1.15,0-2.21-0.24-3.18-0.71s-1.81-1.12-2.52-1.93c-0.7-0.81-1.25-1.74-1.64-2.78
			s-0.58-2.11-0.58-3.22c0-1.19,0.19-2.31,0.57-3.36c0.38-1.05,0.92-1.99,1.62-2.81c0.7-0.82,1.53-1.47,2.49-1.93
			c0.95-0.47,2.01-0.7,3.18-0.7c1.45,0,2.71,0.36,3.79,1.09c1.07,0.73,1.98,1.63,2.71,2.71v-3.54h1.98v16.94
			c0,1.56-0.37,2.87-1.12,3.94c-0.75,1.07-1.75,1.87-3.02,2.41c-1.27,0.54-2.65,0.81-4.14,0.81c-1.93,0-3.49-0.35-4.68-1.04
			c-1.19-0.69-2.17-1.62-2.92-2.79l1.36-1.07c0.67,1.06,1.56,1.85,2.68,2.37c1.11,0.52,2.3,0.78,3.56,0.78c1.1,0,2.12-0.2,3.04-0.59
			c0.92-0.39,1.66-0.98,2.21-1.77c0.55-0.79,0.83-1.78,0.83-2.97v-3.35c-0.65,1.06-1.54,1.91-2.66,2.55
			C361.42,196.95,360.24,197.27,359.01,197.27z M359.62,195.41c0.67,0,1.32-0.12,1.93-0.36c0.62-0.24,1.19-0.56,1.71-0.96
			c0.52-0.4,0.95-0.85,1.3-1.35c0.35-0.5,0.56-1.01,0.65-1.53v-5.23c-0.32-0.82-0.79-1.55-1.4-2.19s-1.29-1.14-2.06-1.49
			c-0.77-0.36-1.57-0.54-2.39-0.54c-0.95,0-1.8,0.2-2.55,0.6c-0.75,0.4-1.38,0.93-1.88,1.59c-0.51,0.66-0.9,1.4-1.19,2.23
			c-0.28,0.82-0.42,1.65-0.42,2.47c0,0.91,0.16,1.77,0.49,2.58c0.32,0.81,0.77,1.54,1.35,2.18c0.57,0.64,1.25,1.13,2.01,1.48
			C357.94,195.24,358.76,195.41,359.62,195.41z"/>
		<path class="st5" d="M379.76,197.27c-1.23,0-2.37-0.23-3.39-0.69c-1.03-0.46-1.92-1.1-2.66-1.91s-1.33-1.73-1.74-2.78
			c-0.41-1.04-0.62-2.15-0.62-3.31c0-1.21,0.21-2.33,0.62-3.38c0.41-1.04,1-1.97,1.75-2.78c0.76-0.81,1.65-1.44,2.68-1.91
			c1.03-0.46,2.15-0.69,3.36-0.69c1.21,0,2.33,0.23,3.35,0.69c1.02,0.46,1.91,1.1,2.66,1.91c0.76,0.81,1.34,1.73,1.75,2.78
			c0.41,1.04,0.62,2.17,0.62,3.38c0,1.16-0.21,2.27-0.62,3.31c-0.41,1.04-0.99,1.97-1.74,2.78s-1.64,1.44-2.66,1.91
			C382.1,197.03,380.98,197.27,379.76,197.27z M373.59,188.61c0,1.25,0.28,2.38,0.83,3.4c0.55,1.02,1.29,1.83,2.22,2.42
			s1.96,0.89,3.09,0.89s2.16-0.3,3.09-0.9c0.93-0.6,1.68-1.42,2.24-2.47c0.56-1.04,0.84-2.19,0.84-3.44c0-1.23-0.28-2.35-0.84-3.39
			c-0.56-1.03-1.31-1.85-2.24-2.45c-0.93-0.6-1.96-0.9-3.09-0.9s-2.16,0.31-3.09,0.94c-0.93,0.62-1.67,1.45-2.22,2.47
			C373.87,186.2,373.59,187.34,373.59,188.61z"/>
		<path class="st5" d="M399.42,197.27c-1.23,0-2.37-0.23-3.39-0.69c-1.03-0.46-1.93-1.1-2.7-1.92c-0.77-0.82-1.36-1.76-1.79-2.81
			s-0.63-2.17-0.63-3.36c0-1.59,0.36-3.05,1.07-4.36c0.71-1.31,1.71-2.36,2.99-3.13c1.28-0.77,2.75-1.16,4.42-1.16
			c1.58,0,2.98,0.36,4.19,1.09s2.11,1.71,2.7,2.94l-2.14,0.68c-0.48-0.87-1.14-1.54-2-2.03c-0.86-0.49-1.8-0.73-2.84-0.73
			c-1.13,0-2.16,0.29-3.09,0.87c-0.93,0.58-1.67,1.38-2.22,2.39c-0.55,1.01-0.83,2.16-0.83,3.45c0,1.27,0.28,2.42,0.84,3.45
			c0.56,1.03,1.31,1.85,2.24,2.47c0.93,0.61,1.96,0.92,3.09,0.92c0.74,0,1.45-0.13,2.13-0.39c0.68-0.26,1.28-0.61,1.79-1.06
			c0.51-0.44,0.85-0.93,1.02-1.45l2.18,0.65c-0.3,0.8-0.81,1.52-1.51,2.16c-0.7,0.64-1.53,1.14-2.47,1.49
			C401.51,197.09,400.5,197.27,399.42,197.27z"/>
		<path class="st5" d="M417.28,197.27c-1.21,0-2.34-0.23-3.38-0.7c-1.04-0.46-1.94-1.1-2.7-1.91c-0.76-0.81-1.35-1.74-1.77-2.8
			c-0.42-1.06-0.63-2.19-0.63-3.4c0-1.57,0.36-3.01,1.09-4.32c0.72-1.31,1.73-2.36,3-3.14c1.28-0.78,2.73-1.18,4.35-1.18
			c1.67,0,3.12,0.4,4.37,1.19c1.25,0.8,2.22,1.84,2.94,3.15c0.71,1.3,1.07,2.73,1.07,4.27c0,0.17,0,0.34,0,0.5
			c0,0.16-0.01,0.29-0.03,0.37h-14.49c0.11,1.21,0.45,2.28,1.02,3.22c0.57,0.94,1.32,1.68,2.24,2.23c0.92,0.55,1.92,0.82,3,0.82
			c1.1,0,2.15-0.28,3.13-0.84c0.99-0.56,1.67-1.3,2.06-2.21l1.92,0.52c-0.35,0.8-0.88,1.53-1.59,2.18s-1.55,1.15-2.52,1.51
			C419.42,197.09,418.39,197.27,417.28,197.27z M411.05,187.72h12.51c-0.09-1.22-0.42-2.29-0.99-3.21
			c-0.57-0.92-1.32-1.65-2.24-2.17s-1.93-0.79-3.04-0.79s-2.11,0.26-3.02,0.79c-0.91,0.52-1.65,1.25-2.23,2.19
			C411.46,185.45,411.13,186.52,411.05,187.72z"/>
		<path class="st5" d="M205.61,231.45c-1.29,0-2.49-0.28-3.59-0.83c-1.11-0.55-2.07-1.3-2.88-2.25s-1.45-2-1.89-3.16
			c-0.44-1.16-0.67-2.36-0.67-3.59c0-1.31,0.22-2.54,0.67-3.71c0.44-1.17,1.07-2.21,1.86-3.12s1.74-1.62,2.83-2.15
			c1.09-0.53,2.28-0.79,3.56-0.79c1.9,0,3.46,0.39,4.65,1.17c1.2,0.78,2.1,1.8,2.72,3.05l-1.47,0.98c-0.62-1.2-1.44-2.08-2.48-2.64
			c-1.03-0.56-2.19-0.84-3.46-0.84c-1.07,0-2.04,0.23-2.9,0.68c-0.86,0.45-1.6,1.06-2.22,1.82c-0.62,0.76-1.08,1.62-1.4,2.58
			c-0.32,0.96-0.48,1.96-0.48,2.99c0,1.09,0.18,2.12,0.54,3.09c0.36,0.97,0.88,1.83,1.55,2.59c0.67,0.75,1.45,1.34,2.33,1.77
			s1.83,0.64,2.84,0.64c1.18,0,2.29-0.29,3.35-0.88c1.05-0.59,2.06-1.5,3.02-2.73v2.01C210.28,230.35,208.11,231.45,205.61,231.45z
			 M211.81,223.29h-4.3v-1.47h5.91v9.5h-1.61V223.29z"/>
		<path class="st5" d="M230.51,229.63v1.69h-12.98V212h12.74v1.69h-10.83v6.97h9.44v1.61h-9.44v7.38H230.51z"/>
		<path class="st5" d="M236.2,215.51v15.81h-1.91V212h1.58l12.68,16.11v-16.08h1.9v19.29h-1.77L236.2,215.51z"/>
		<path class="st5" d="M268.47,229.63v1.69h-12.98V212h12.74v1.69H257.4v6.97h9.44v1.61h-9.44v7.38H268.47z M259.71,206.36h1.93
			l1.63,2.53l-1.2,0.46L259.71,206.36z"/>
		<path class="st5" d="M272.17,212l6.91,16.95l6.88-16.95h1.99l-8,19.32h-1.74L270.19,212H272.17z"/>
		<path class="st5" d="M303.9,229.63v1.69h-12.98V212h12.74v1.69h-10.83v6.97h9.44v1.61h-9.44v7.38H303.9z"/>
	</g>
</g>
</svg>
